<svg xmlns="http://www.w3.org/2000/svg" viewBox="0 0 256 256" width="48" height="48"><path fill="#1b1b1d" d="M232 104a8 8 0 0 0 8-8V64a16 16 0 0 0-16-16H32a16 16 0 0 0-16 16v32a8 8 0 0 0 8 8a24 24 0 0 1 0 48a8 8 0 0 0-8 8v32a16 16 0 0 0 16 16h192a16 16 0 0 0 16-16v-32a8 8 0 0 0-8-8a24 24 0 0 1 0-48M32 167.2a40 40 0 0 0 0-78.4V64h56v128H32Z"/><path fill="#f8ecd0" d="M232 100a4 4 0 0 0 4-4V64a12 12 0 0 0-12-12H32a12 12 0 0 0-12 12v32a4 4 0 0 0 4 4a28 28 0 0 1 0 56a4 4 0 0 0-4 4v32a12 12 0 0 0 12 12h192a12 12 0 0 0 12-12v-32a4 4 0 0 0-4-4a28 28 0 0 1 0-56M28 192v-28.22a36 36 0 0 0 0-71.56V64a4 4 0 0 1 4-4h60v136H32a4 4 0 0 1-4-4m168-64a36.06 36.06 0 0 0 32 35.78V192a4 4 0 0 1-4 4H100V60h124a4 4 0 0 1 4 4v28.22A36.06 36.06 0 0 0 196 128"/></svg>