<svg xmlns="http://www.w3.org/2000/svg" viewBox="0 0 256 256" width="48" height="48"><path fill="#1b1b1d" d="M240 136v32a8 8 0 0 1-8 8a7.6 7.6 0 0 1-1.57-.16L156 161v23.73l17.66 17.65A8 8 0 0 1 176 208v24a8 8 0 0 1-11 7.43l-37-14.81l-37 14.81A8 8 0 0 1 80 232v-24a8 8 0 0 1 2.34-5.66L100 184.69V161l-74.43 14.84A7.6 7.6 0 0 1 24 176a8 8 0 0 1-8-8v-32a8 8 0 0 1 4.42-7.16L100 89.06V44a28 28 0 0 1 56 0v45.06l79.58 39.78A8 8 0 0 1 240 136"/><path fill="#d9e6f7" d="M233.79 132.42L156 93.53V48a28 28 0 0 0-56 0v45.53l-77.79 38.89A4 4 0 0 0 20 136v32a4 4 0 0 0 4.78 3.92l75.22-15v25.46l-14.83 14.79A4 4 0 0 0 84 200v32a4 4 0 0 0 5.49 3.71l38.51-15.4l38.51 15.4a3.9 3.9 0 0 0 1.49.29a3.94 3.94 0 0 0 2.24-.69A4 4 0 0 0 172 232v-32a4 4 0 0 0-1.17-2.83L156 182.34v-25.46l75.22 15A4 4 0 0 0 236 168v-32a4 4 0 0 0-2.21-3.58m-5.79 30.7l-75.22-15A4 4 0 0 0 148 152v32a4 4 0 0 0 1.17 2.83L164 201.66v24.43l-34.51-13.8a4 4 0 0 0-3 0L92 226.09v-24.43l14.83-14.83A4 4 0 0 0 108 184v-32a4 4 0 0 0-4.78-3.92L28 163.12v-24.65l77.79-38.89A4 4 0 0 0 108 96V48a20 20 0 0 1 40 0v48a4 4 0 0 0 2.21 3.58L228 138.47Z"/></svg>