<svg xmlns="http://www.w3.org/2000/svg" viewBox="0 0 256 256" width="48" height="48"><path fill="#1b1b1d" d="M226 88.08c-.4-1-.82-2-1.25-3a87.93 87.93 0 0 0-30.17-37H216a8 8 0 0 0 0-16H112a88.12 88.12 0 0 0-87.72 81A32 32 0 0 0 0 144a8 8 0 0 0 16 0a16 16 0 0 1 8.57-14.16A87.7 87.7 0 0 0 46 178.22l12.56 35.16A16 16 0 0 0 73.64 224h12.72a16 16 0 0 0 15.07-10.62l1.92-5.38h57.3l1.92 5.38A16 16 0 0 0 177.64 224h12.72a16 16 0 0 0 15.07-10.62L221.64 168H224a24 24 0 0 0 24-24v-32a24 24 0 0 0-22-23.92M152 72h-40a8 8 0 0 1 0-16h40a8 8 0 0 1 0 16m28 56a12 12 0 1 1 12-12a12 12 0 0 1-12 12"/><path fill="#d9f0d5" d="M188 116a8 8 0 1 1-8-8a8 8 0 0 1 8 8m-36-48h-40a4 4 0 0 0 0 8h40a4 4 0 0 0 0-8m92 44v32a20 20 0 0 1-20 20h-5.18l-17.16 48a12 12 0 0 1-11.3 8h-12.72a12 12 0 0 1-11.3-8l-2.87-8h-62.94l-2.87 8a12 12 0 0 1-11.3 8H73.64a12 12 0 0 1-11.3-8l-12.82-35.9a83.73 83.73 0 0 1-21.4-51.76A20 20 0 0 0 12 144a4 4 0 0 1-8 0a28 28 0 0 1 24.09-27.72A84.1 84.1 0 0 1 112 36h104a4 4 0 0 1 0 8h-36.2a84 84 0 0 1 41.31 42.63c.76 1.76 1.47 3.55 2.11 5.37h.78a20 20 0 0 1 20 20m-8 0a12 12 0 0 0-12-12h-3.66a4 4 0 0 1-3.82-2.8a75 75 0 0 0-2.75-7.39A76 76 0 0 0 144 44h-32a76 76 0 0 0-56 127.34a4 4 0 0 1 .82 1.36l13.09 36.65a4 4 0 0 0 3.73 2.65h12.72a4 4 0 0 0 3.77-2.65l3.87-10.7a4 4 0 0 1 3.71-2.65h68.58a4 4 0 0 1 3.76 2.65l3.82 10.7a4 4 0 0 0 3.77 2.65h12.72a4 4 0 0 0 3.77-2.65l18.1-50.7A4 4 0 0 1 216 156h8a12 12 0 0 0 12-12Z"/></svg>