<svg xmlns="http://www.w3.org/2000/svg" viewBox="0 0 256 256" width="48" height="48"><path fill="#1b1b1d" d="m255.43 117l-14-35a15.93 15.93 0 0 0-14.85-10H192v-8a8 8 0 0 0-8-8H32a16 16 0 0 0-16 16v112a16 16 0 0 0 16 16h17a32 32 0 0 0 62 0h50a32 32 0 0 0 62 0h17a16 16 0 0 0 16-16v-64a7.9 7.9 0 0 0-.57-3M80 208a16 16 0 1 1 16-16a16 16 0 0 1-16 16m56-80h-16v16a8 8 0 0 1-16 0v-16H88a8 8 0 0 1 0-16h16V96a8 8 0 0 1 16 0v16h16a8 8 0 0 1 0 16m56 80a16 16 0 1 1 16-16a16 16 0 0 1-16 16m0-96V88h34.58l9.6 24Z"/><path fill="#f8dee4" d="M84 120a4 4 0 0 1 4-4h20V96a4 4 0 0 1 8 0v20h20a4 4 0 0 1 0 8h-20v20a4 4 0 0 1-8 0v-20H88a4 4 0 0 1-4-4m168 0v64a12 12 0 0 1-12 12h-20.29a28 28 0 0 1-55.42 0h-56.58a28 28 0 0 1-55.42 0H32a12 12 0 0 1-12-12V72a12 12 0 0 1 12-12h152a4 4 0 0 1 4 4v12h38.58a12 12 0 0 1 11.15 7.54l14 35A4 4 0 0 1 252 120m-64-36v32h54.09L230.3 86.51a4 4 0 0 0-3.72-2.51ZM32 188h20.29a28 28 0 0 1 55.42 0h56.58A28.05 28.05 0 0 1 180 166.71V68H32a4 4 0 0 0-4 4v112a4 4 0 0 0 4 4m68 4a20 20 0 1 0-20 20a20 20 0 0 0 20-20m112 0a20 20 0 1 0-20 20a20 20 0 0 0 20-20m32-8v-60h-56v40.29A28 28 0 0 1 219.71 188H240a4 4 0 0 0 4-4"/></svg>