<svg xmlns="http://www.w3.org/2000/svg" viewBox="0 0 256 256" width="48" height="48"><path fill="#1b1b1d" d="M232 128v56a24 24 0 0 1-24 24h-16a24 24 0 0 1-24-24v-40a24 24 0 0 1 24-24h23.65a87.71 87.71 0 0 0-87-80H128a88 88 0 0 0-87.64 80H64a24 24 0 0 1 24 24v40a24 24 0 0 1-24 24H48a24 24 0 0 1-24-24v-56a104.11 104.11 0 0 1 177.89-73.34A103.4 103.4 0 0 1 232 128"/><path fill="#f8ecd0" d="M199.05 57.48A100.07 100.07 0 0 0 28 128v56a20 20 0 0 0 20 20h16a20 20 0 0 0 20-20v-40a20 20 0 0 0-20-20H36.08A92 92 0 0 1 128 36h.7a91.75 91.75 0 0 1 91.22 88H192a20 20 0 0 0-20 20v40a20 20 0 0 0 20 20h16a20 20 0 0 0 20-20v-56a99.43 99.43 0 0 0-28.95-70.52M64 132a12 12 0 0 1 12 12v40a12 12 0 0 1-12 12H48a12 12 0 0 1-12-12v-52Zm156 52a12 12 0 0 1-12 12h-16a12 12 0 0 1-12-12v-40a12 12 0 0 1 12-12h28Z"/></svg>