<svg xmlns="http://www.w3.org/2000/svg" viewBox="0 0 256 256" width="48" height="48"><path fill="#1b1b1d" d="M240 104h-10.8l-27.78-62.5A16 16 0 0 0 186.8 32H69.2a16 16 0 0 0-14.62 9.5L26.8 104H16a8 8 0 0 0 0 16h8v80a16 16 0 0 0 16 16h24a16 16 0 0 0 16-16v-8h96v8a16 16 0 0 0 16 16h24a16 16 0 0 0 16-16v-80h8a8 8 0 0 0 0-16M80 152H56a8 8 0 0 1 0-16h24a8 8 0 0 1 0 16m120 0h-24a8 8 0 0 1 0-16h24a8 8 0 0 1 0 16M44.31 104L69.2 48h117.6l24.89 56Z"/><path fill="#d9e6f7" d="M240 108h-13.4l-28.83-64.87a12 12 0 0 0-11-7.13H69.2a12 12 0 0 0-11 7.13L29.4 108H16a4 4 0 0 0 0 8h12v84a12 12 0 0 0 12 12h24a12 12 0 0 0 12-12v-20h104v20a12 12 0 0 0 12 12h24a12 12 0 0 0 12-12v-84h12a4 4 0 0 0 0-8M65.54 46.38A4 4 0 0 1 69.2 44h117.6a4 4 0 0 1 3.66 2.38L217.84 108H38.16ZM68 200a4 4 0 0 1-4 4H40a4 4 0 0 1-4-4v-20h32Zm148 4h-24a4 4 0 0 1-4-4v-20h32v20a4 4 0 0 1-4 4m4-32H36v-56h184ZM60 144a4 4 0 0 1 4-4h16a4 4 0 0 1 0 8H64a4 4 0 0 1-4-4m112 0a4 4 0 0 1 4-4h16a4 4 0 0 1 0 8h-16a4 4 0 0 1-4-4"/></svg>