<svg xmlns="http://www.w3.org/2000/svg" viewBox="0 0 256 256" width="48" height="48"><path fill="#1b1b1d" d="M134.16 24.1a4 4 0 0 0-3.56 1.81C120.3 41.48 120 55.79 120 56a8 8 0 0 0 9.68 7.79a8.24 8.24 0 0 0 6.32-8.11a8 8 0 0 1 8.8-7.68a8.14 8.14 0 0 1 7.2 8.23a24 24 0 0 1-48-.27c0-.63.09-10.78 5.44-24a4 4 0 0 0-4.59-5.39a104.16 104.16 0 0 0-80.78 105.09C26 186.72 71.23 231 126.32 231.9a104 104 0 0 0 7.84-207.8M80 127.91a12 12 0 1 1 12 12a12 12 0 0 1-12-12m80.27 54.77a61 61 0 0 1-64.54 0a8 8 0 0 1 8.54-13.54a45 45 0 0 0 47.46 0a8 8 0 0 1 8.54 13.54m3.73-42.77a12 12 0 1 1 12-12a12 12 0 0 1-12 12"/><path fill="#d6eee1" d="M92 136a8 8 0 1 1 8-8a8 8 0 0 1-8 8m72-16a8 8 0 1 0 8 8a8 8 0 0 0-8-8m-10.13 44.62a49 49 0 0 1-51.74 0a4 4 0 0 0-4.26 6.76a57 57 0 0 0 60.26 0a4 4 0 1 0-4.26-6.76M228 128A100 100 0 1 1 128 28a100.11 100.11 0 0 1 100 100m-8 0a92.11 92.11 0 0 0-90.06-92C116.26 54.07 116 71.83 116 72a12 12 0 0 0 24 0a4 4 0 0 1 8 0a20 20 0 0 1-40 0c0-.78.16-17.31 12-35.64A92 92 0 1 0 220 128"/></svg>