<svg xmlns="http://www.w3.org/2000/svg" viewBox="0 0 256 256" width="48" height="48"><path fill="#1b1b1d" d="m239.43 133l-32-80a8 8 0 0 0-7.43-5a8.3 8.3 0 0 0-1.73.21L136 62V40a8 8 0 0 0-16 0v25.58L54.27 80.21a8 8 0 0 0-5.7 4.79l-32 80a7.9 7.9 0 0 0-.57 3c0 23.31 24.54 32 40 32s40-8.69 40-32a7.9 7.9 0 0 0-.57-3L66.92 93.77L120 82v126h-16a8 8 0 0 0 0 16h48a8 8 0 0 0 0-16h-16V78.42l51-11.32l-26.43 65.9a7.9 7.9 0 0 0-.57 3c0 23.31 24.54 32 40 32s40-8.69 40-32a7.9 7.9 0 0 0-.57-3m-160 35H32.62L56 109.54Zm97.24-32L200 77.54L223.38 136Z"/><path fill="#e8e3da" d="m235.71 134.51l-32-80a4 4 0 0 0-4.57-2.41L132 67V40a4 4 0 0 0-8 0v28.79L55.13 84.1a4 4 0 0 0-2.84 2.41l-32 80A4 4 0 0 0 20 168c0 20.4 22.08 28 36 28s36-7.6 36-28a4 4 0 0 0-.29-1.49L61.46 90.88L124 77v135h-20a4 4 0 0 0 0 8h48a4 4 0 0 0 0-8h-20V75.21l61.47-13.66l-29.18 73A4 4 0 0 0 164 136c0 20.4 22.08 28 36 28s36-7.6 36-28a4 4 0 0 0-.29-1.49M56 188c-7.15 0-27.37-3.56-28-19.27l28-70l28 70C83.37 184.44 63.15 188 56 188m144-32c-7.15 0-27.37-3.56-28-19.27l28-70l28 70c-.63 15.71-20.85 19.27-28 19.27"/></svg>