<svg xmlns="http://www.w3.org/2000/svg" viewBox="0 0 256 256" width="48" height="48"><path fill="#1b1b1d" d="M232 56v120a8 8 0 0 1-2.76 6c-15.28 13.23-29.89 18-43.82 18c-18.91 0-36.57-8.74-53-16.85C105.87 170 82.79 158.61 56 179.77V224a8 8 0 0 1-16 0V56a8 8 0 0 1 2.77-6c36-31.18 68.31-15.21 96.79-1.12C167 62.46 190.79 74.2 218.76 50A8 8 0 0 1 232 56"/><path fill="#eae9ec" d="M45.39 53.06a4 4 0 0 0-1.39 3V224a4 4 0 0 0 8 0v-46.13c29.41-24.39 55.08-11.69 82.23 1.73c16.5 8.17 33.33 16.5 51.13 16.5c13.14 0 26.81-4.55 41.26-17.06a4 4 0 0 0 1.38-3v-120a4 4 0 0 0-6.62-3c-30 26-56 13.07-83.61-.57c-28.7-14.19-58.37-28.85-92.38.59M220 174.17c-29.41 24.4-55.08 11.7-82.23-1.73c-26.82-13.27-54.5-27-85.77-4.66V57.92c29.41-24.4 55.08-11.7 82.23 1.73c26.82 13.27 54.5 27 85.77 4.66Z"/></svg>