<svg xmlns="http://www.w3.org/2000/svg" viewBox="0 0 256 256" width="48" height="48"><path fill="#1b1b1d" d="M248 208a8 8 0 0 1-8 8H16a8 8 0 0 1 0-16h224a8 8 0 0 1 8 8M16.3 98.18a8 8 0 0 1 3.51-9l104-64a8 8 0 0 1 8.38 0l104 64A8 8 0 0 1 232 104h-24v64h16a8 8 0 0 1 0 16H32a8 8 0 0 1 0-16h16v-64H24a8 8 0 0 1-7.7-5.82M144 160a8 8 0 0 0 16 0v-48a8 8 0 0 0-16 0Zm-48 0a8 8 0 0 0 16 0v-48a8 8 0 0 0-16 0Z"/><path fill="#d9f0d5" d="M24 100h28v72H32a4 4 0 0 0 0 8h192a4 4 0 0 0 0-8h-20v-72h28a4 4 0 0 0 2.1-7.41l-104-64a4 4 0 0 0-4.2 0l-104 64A4 4 0 0 0 24 100m36 0h40v72H60Zm88 0v72h-40v-72Zm48 72h-40v-72h40ZM128 36.7L217.87 92H38.13ZM244 208a4 4 0 0 1-4 4H16a4 4 0 0 1 0-8h224a4 4 0 0 1 4 4"/></svg>