<svg xmlns="http://www.w3.org/2000/svg" viewBox="0 0 256 256" width="48" height="48"><path fill="#1b1b1d" d="M221.06 110.59L208 106.23V56a16 16 0 0 0-16-16h-56V24a8 8 0 0 0-16 0v16H64a16 16 0 0 0-16 16v50.23l-13.06 4.36A16 16 0 0 0 24 125.77V152c0 61.54 97.89 86.72 102.06 87.76a8 8 0 0 0 3.88 0C134.11 238.72 232 213.54 232 152v-26.23a16 16 0 0 0-10.94-15.18M136 168a8 8 0 0 1-16 0v-63.13a8 8 0 0 1 16 0Zm56-67.1l-61.47-20.49a8 8 0 0 0-5.06 0L64 100.9V56h128Z"/><path fill="#d9e6f7" d="M219.79 114.38L204 109.12V56a12 12 0 0 0-12-12h-60V24a4 4 0 0 0-8 0v20H64a12 12 0 0 0-12 12v53.12l-15.8 5.26a12 12 0 0 0-8.2 11.39V152c0 24.46 17.32 46.77 50.09 64.52A233.2 233.2 0 0 0 127 235.88a4 4 0 0 0 1.94 0a233.2 233.2 0 0 0 48.94-19.36C210.68 198.77 228 176.46 228 152v-26.23a12 12 0 0 0-8.21-11.39M60 56a4 4 0 0 1 4-4h128a4 4 0 0 1 4 4v50.45l-66.74-22.24a3.9 3.9 0 0 0-2.52 0L60 106.45Zm160 96c0 49.32-82.08 73.16-92 75.86c-9.92-2.7-92-26.54-92-75.86v-26.23a4 4 0 0 1 2.73-3.8L124 93.55V168a4 4 0 0 0 8 0V93.55L217.26 122a4 4 0 0 1 2.74 3.8Z"/></svg>