<svg xmlns="http://www.w3.org/2000/svg" viewBox="0 0 256 256" width="48" height="48"><path fill="#1b1b1d" d="M238 82.73a8 8 0 0 0-6-2.73h-44.37L134 18.73a8 8 0 0 0-12 0L68.37 80H24a8 8 0 0 0-7.93 9.06l15.07 113.06A16.06 16.06 0 0 0 47 216h162a16.06 16.06 0 0 0 15.86-13.88l15.07-113.06a8 8 0 0 0-1.93-6.33M81.6 184a7 7 0 0 1-.81 0a8 8 0 0 1-8-7.2l-5.6-56a8 8 0 0 1 15.92-1.6l5.6 56a8 8 0 0 1-7.11 8.8m54.4-8a8 8 0 0 1-16 0v-56a8 8 0 0 1 16 0ZM89.63 80L128 36.15L166.37 80Zm99.13 40.8l-5.6 56a8 8 0 0 1-7.95 7.2a7 7 0 0 1-.81 0a8 8 0 0 1-7.16-8.76l5.6-56a8 8 0 0 1 15.92 1.6Z"/><path fill="#e7e0f7" d="M132 120v56a4 4 0 0 1-8 0v-56a4 4 0 0 1 8 0m49.2-4a4 4 0 0 0-4.38 3.58l-5.6 56a4 4 0 0 0 3.58 4.42h.41a4 4 0 0 0 4-3.6l5.6-56a4 4 0 0 0-3.61-4.4m-106.4 0a4 4 0 0 0-3.58 4.38l5.6 56a4 4 0 0 0 4 3.6h.41a4 4 0 0 0 3.58-4.38l-5.6-56a4 4 0 0 0-4.41-3.6M236 88.53l-15.11 113.06A12 12 0 0 1 209 212H47a12 12 0 0 1-11.89-10.41L20 88.53a4 4 0 0 1 1-3.16A4 4 0 0 1 24 84h46.18L125 21.37a4 4 0 0 1 6 0L185.82 84H232a4 4 0 0 1 3 1.37a4 4 0 0 1 1 3.16M80.82 84h94.36L128 30.07Zm146.61 8H28.57L43 200.53a4 4 0 0 0 4 3.47h162a4 4 0 0 0 4-3.47Z"/></svg>