<svg xmlns="http://www.w3.org/2000/svg" viewBox="0 0 256 256" width="48" height="48"><path fill="#1b1b1d" d="M63.6 46.39a103.5 103.5 0 0 1 52-21.65a4 4 0 0 1 4.45 4V120H95.7a103.77 103.77 0 0 0-32.32-67.56a4 4 0 0 1 .22-6.05M46 64.07a103.5 103.5 0 0 0-21.29 51.46a4 4 0 0 0 4 4.47h50.92a87.86 87.86 0 0 0-27.74-56.41a4 4 0 0 0-5.89.48m146.4-17.68a103.5 103.5 0 0 0-52-21.65a4 4 0 0 0-4.45 4V120h24.3a103.77 103.77 0 0 1 32.32-67.56a4 4 0 0 0-.17-6.05m38.86 69.14A103.5 103.5 0 0 0 210 64.07a4 4 0 0 0-5.86-.48A87.86 87.86 0 0 0 176.37 120h50.91a4 4 0 0 0 3.98-4.47M24.74 140.47A103.5 103.5 0 0 0 46 191.93a4 4 0 0 0 5.86.48A87.86 87.86 0 0 0 79.63 136H28.72a4 4 0 0 0-3.98 4.47M210 191.93a103.5 103.5 0 0 0 21.29-51.46a4 4 0 0 0-4-4.47h-50.92a87.86 87.86 0 0 0 27.74 56.41a4 4 0 0 0 5.89-.48M63.6 209.61a103.5 103.5 0 0 0 52 21.65a4 4 0 0 0 4.45-4V136H95.7a103.77 103.77 0 0 1-32.32 67.56a4 4 0 0 0 .22 6.05M160.3 136H136v91.28a4 4 0 0 0 4.45 4a103.5 103.5 0 0 0 52-21.65a4 4 0 0 0 .22-6.05A103.77 103.77 0 0 1 160.3 136"/><path fill="#e3edd5" d="M128 28a100 100 0 1 0 100 100A100.11 100.11 0 0 0 128 28M60 66.07A91.22 91.22 0 0 1 83.9 124H36.09A91.7 91.7 0 0 1 60 66.07M132 124V36.09a91.63 91.63 0 0 1 58.32 24.3A99.24 99.24 0 0 0 164.09 124Zm-8 0H91.91a99.24 99.24 0 0 0-26.23-63.61A91.63 91.63 0 0 1 124 36.09Zm-40.1 8A91.22 91.22 0 0 1 60 189.93A91.7 91.7 0 0 1 36.09 132Zm8 0H124v87.91a91.63 91.63 0 0 1-58.32-24.3A99.24 99.24 0 0 0 91.91 132Zm40.1 0h32.09a99.24 99.24 0 0 0 26.23 63.61a91.63 91.63 0 0 1-58.32 24.3Zm40.1 0h47.81A91.7 91.7 0 0 1 196 189.93A91.22 91.22 0 0 1 172.1 132m0-8A91.22 91.22 0 0 1 196 66.07A91.7 91.7 0 0 1 219.91 124Z"/></svg>