<svg xmlns="http://www.w3.org/2000/svg" viewBox="0 0 256 256" width="48" height="48"><path fill="#1b1b1d" d="m54.46 164.71l27.87-38.21a48 48 0 1 1-12.92-9.44l-27.87 38.23a8 8 0 1 0 12.92 9.42M208 112a47.8 47.8 0 0 0-16.93 3.09L214.91 156a8 8 0 1 1-13.82 8l-23.83-40.86A48 48 0 1 0 208 112m-42.07-40H192a8 8 0 0 1 8 8a8 8 0 0 0 16 0a24 24 0 0 0-24-24h-40a8 8 0 0 0-6.91 12l11.65 20H99.26L82.91 60A8 8 0 0 0 76 56H48a8 8 0 0 0 0 16h23.41l13.71 23.51l-15.71 21.55a47.9 47.9 0 0 1 12.92 9.44l11.59-15.9l31.17 53.4a8 8 0 1 0 13.82-8l-30.32-52h57.48l11.19 19.17a48.1 48.1 0 0 1 13.81-8.08Z"/><path fill="#d9e6f7" d="M208 116a43.7 43.7 0 0 0-18.62 4.15L159 68h33a12 12 0 0 1 12 12a4 4 0 0 0 8 0a20 20 0 0 0-20-20h-40a4 4 0 0 0-3.46 6l15.16 26H97L79.46 62A4 4 0 0 0 76 60H48a4 4 0 0 0 0 8h25.7l16.19 27.76l-19.32 26.49A44.21 44.21 0 1 0 77 127l17.29-23.7l34.25 58.7a4 4 0 0 0 3.46 2a4.1 4.1 0 0 0 2-.54a4 4 0 0 0 1.44-5.48l-33.83-58h66.74l14.11 24.19A44 44 0 1 0 208 116M84 160a36 36 0 1 1-18.16-31.25l-21.07 28.89a4 4 0 0 0 6.46 4.72l21.07-28.9A35.92 35.92 0 0 1 84 160m124 36a36 36 0 0 1-21.47-64.88l18 30.9a4 4 0 0 0 3.46 2a4.1 4.1 0 0 0 2-.54a4 4 0 0 0 1.44-5.48l-18-30.89A36 36 0 1 1 208 196"/></svg>