<svg xmlns="http://www.w3.org/2000/svg" viewBox="0 0 256 256" width="48" height="48"><path fill="#1b1b1d" d="M212 76v-4a44 44 0 0 0-74.86-31.31a3.93 3.93 0 0 0-1.14 2.8v88.72a4 4 0 0 0 6.2 3.33a47.67 47.67 0 0 1 25.48-7.54a8.18 8.18 0 0 1 8.31 7.58a8 8 0 0 1-8 8.42a32 32 0 0 0-32 32v33.88a4 4 0 0 0 1.49 3.12a47.92 47.92 0 0 0 74.21-17.16a4 4 0 0 0-4.49-5.56A68 68 0 0 1 192 192h-7.73a8.18 8.18 0 0 1-8.25-7.47a8 8 0 0 1 8-8.53h8a51.6 51.6 0 0 0 24-5.88A52 52 0 0 0 212 76m-12 36h-4a36 36 0 0 1-36-36v-4a8 8 0 0 1 16 0v4a20 20 0 0 0 20 20h4a8 8 0 0 1 0 16M88 28a44.05 44.05 0 0 0-44 44v4a52 52 0 0 0-4 94.12A51.6 51.6 0 0 0 64 176h7.73a8.18 8.18 0 0 1 8.27 7.47a8 8 0 0 1-8 8.53h-8a67.5 67.5 0 0 1-15.21-1.73a4 4 0 0 0-4.5 5.55A47.93 47.93 0 0 0 118.51 213a4 4 0 0 0 1.49-3.12V176a32 32 0 0 0-32-32a8 8 0 0 1-8-8.42a8.18 8.18 0 0 1 8.32-7.58a47.67 47.67 0 0 1 25.48 7.54a4 4 0 0 0 6.2-3.33V43.49a4 4 0 0 0-1.14-2.81A43.85 43.85 0 0 0 88 28m8 48a36 36 0 0 1-36 36h-4a8 8 0 0 1 0-16h4a20 20 0 0 0 20-20v-4a8 8 0 0 1 16 0Z"/><path fill="#eae9ec" d="M244 124a52.1 52.1 0 0 0-32-48v-4a44 44 0 0 0-84-18.3A44 44 0 0 0 44 72v4a52 52 0 0 0 0 96v4a44 44 0 0 0 84 18.3a44 44 0 0 0 84-18.3v-4a52.07 52.07 0 0 0 32-48M88 212a36 36 0 0 1-36-36v-1.41A52 52 0 0 0 64 176h8a4 4 0 0 0 0-8h-8a44 44 0 0 1-14.67-85.5A4 4 0 0 0 52 78.73V72a36 36 0 0 1 72 0v78.75A44 44 0 0 0 88 132a4 4 0 0 0 0 8a36 36 0 0 1 0 72m104-44h-8a4 4 0 0 0 0 8h8a52 52 0 0 0 12-1.41V176a36 36 0 1 1-36-36a4 4 0 0 0 0-8a44 44 0 0 0-36 18.75V72a36 36 0 0 1 72 0v6.73a4 4 0 0 0 2.67 3.77A44 44 0 0 1 192 168m12-56a4 4 0 0 1-4 4h-4a32 32 0 0 1-32-32v-4a4 4 0 0 1 8 0v4a24 24 0 0 0 24 24h4a4 4 0 0 1 4 4M92 84a32 32 0 0 1-32 32h-4a4 4 0 0 1 0-8h4a24 24 0 0 0 24-24v-4a4 4 0 0 1 8 0Z"/></svg>