<svg xmlns="http://www.w3.org/2000/svg" viewBox="0 0 256 256" width="48" height="48"><path fill="#1b1b1d" d="M152 112a8 8 0 0 1-8 8h-32a8 8 0 0 1 0-16h32a8 8 0 0 1 8 8m80-40v128a16 16 0 0 1-16 16H40a16 16 0 0 1-16-16V72a16 16 0 0 1 16-16h40v-8a24 24 0 0 1 24-24h48a24 24 0 0 1 24 24v8h40a16 16 0 0 1 16 16M96 56h64v-8a8 8 0 0 0-8-8h-48a8 8 0 0 0-8 8Zm120 57.61V72H40v41.61A184 184 0 0 0 128 136a184 184 0 0 0 88-22.39"/><path fill="#dde3ef" d="M108 112a4 4 0 0 1 4-4h32a4 4 0 0 1 0 8h-32a4 4 0 0 1-4-4m120-40v128a12 12 0 0 1-12 12H40a12 12 0 0 1-12-12V72a12 12 0 0 1 12-12h44V48a20 20 0 0 1 20-20h48a20 20 0 0 1 20 20v12h44a12 12 0 0 1 12 12M92 60h72V48a12 12 0 0 0-12-12h-48a12 12 0 0 0-12 12ZM36 72v44a188 188 0 0 0 92 24a188 188 0 0 0 92-24V72a4 4 0 0 0-4-4H40a4 4 0 0 0-4 4m184 128v-74.9a196.06 196.06 0 0 1-92 22.9a196 196 0 0 1-92-22.9V200a4 4 0 0 0 4 4h176a4 4 0 0 0 4-4"/></svg>