<svg xmlns="http://www.w3.org/2000/svg" viewBox="0 0 256 256" width="48" height="48"><path fill="#1b1b1d" d="M221.87 83.16A104.1 104.1 0 1 1 195.67 49l22.67-22.68a8 8 0 0 1 11.32 11.32L167.6 99.71l-37.71 37.71l-23.95 23.95a40 40 0 0 0 62-35.67a8 8 0 1 1 16-.9a56 56 0 0 1-95.5 42.79a56 56 0 0 1 73.13-84.43l22.73-22.77a87.88 87.88 0 1 0 23.13 29.67a8 8 0 0 1 14.44-6.9"/><path fill="#d9f0d5" d="M218.26 84.89a100.16 100.16 0 1 1-22.44-30.37l25.35-25.35a4 4 0 1 1 5.66 5.66l-96 96a4 4 0 0 1-5.66-5.66l31-31a44 44 0 1 0 15.78 31.3a4 4 0 0 1 8-.46a52 52 0 1 1-18.1-36.51l28.34-28.33A92 92 0 0 0 63 193.05A92 92 0 0 0 211 88.33a4 4 0 1 1 7.22-3.44Z"/></svg>