<svg xmlns="http://www.w3.org/2000/svg" viewBox="0 0 256 256" width="48" height="48"><path fill="#1b1b1d" d="M248 80v24a8 8 0 0 1-16 0V80a8 8 0 0 1 16 0M16 72a8 8 0 0 0-8 8v24a8 8 0 0 0 16 0V80a8 8 0 0 0-8-8m200-8v144a16 16 0 0 1-16 16h-16a16 16 0 0 1-16-16v-8H88v8a16 16 0 0 1-16 16H56a16 16 0 0 1-16-16V64a32 32 0 0 1 32-32h112a32 32 0 0 1 32 32m-112 84a12 12 0 1 0-12 12a12 12 0 0 0 12-12m72 0a12 12 0 1 0-12 12a12 12 0 0 0 12-12m24-76H56v40h144Z"/><path fill="#d9e6f7" d="M184 36H72a28 28 0 0 0-28 28v144a12 12 0 0 0 12 12h24a12 12 0 0 0 12-12v-20h72v20a12 12 0 0 0 12 12h24a12 12 0 0 0 12-12V64a28 28 0 0 0-28-28M52 180v-64h152v64Zm152-72H52V76h152ZM84 208a4 4 0 0 1-4 4H56a4 4 0 0 1-4-4v-20h32Zm116 4h-24a4 4 0 0 1-4-4v-20h32v20a4 4 0 0 1-4 4m4-144H52v-4a20 20 0 0 1 20-20h112a20 20 0 0 1 20 20Zm-104 80a8 8 0 1 1-8-8a8 8 0 0 1 8 8m72 0a8 8 0 1 1-8-8a8 8 0 0 1 8 8m72-68v24a4 4 0 0 1-8 0V80a4 4 0 0 1 8 0M20 80v24a4 4 0 0 1-8 0V80a4 4 0 0 1 8 0"/></svg>