<svg xmlns="http://www.w3.org/2000/svg" viewBox="0 0 256 256" width="48" height="48"><path fill="#1b1b1d" d="M208 88h-72v-9a32.06 32.06 0 0 0 24-31c0-28-26.44-45.91-27.56-46.66a8 8 0 0 0-8.88 0C122.44 2.09 96 20 96 48a32.06 32.06 0 0 0 24 31v9H48a24 24 0 0 0-24 24v23.33a40.84 40.84 0 0 0 8 24.24V200a24 24 0 0 0 24 24h144a24 24 0 0 0 24-24v-40.43a40.84 40.84 0 0 0 8-24.24V112a24 24 0 0 0-24-24m-96-40c0-13.57 10-24.46 16-29.79c6 5.33 16 16.22 16 29.79a16 16 0 0 1-32 0m104 87.33c0 13.25-10.46 24.31-23.32 24.66A24 24 0 0 1 168 136a8 8 0 0 0-16 0a24 24 0 0 1-48 0a8 8 0 0 0-16 0a24 24 0 0 1-24.68 24C50.46 159.64 40 148.58 40 135.33V112a8 8 0 0 1 8-8h160a8 8 0 0 1 8 8Z"/><path fill="#f8e3d2" d="M228 112a20 20 0 0 0-20-20h-76V75.71A28 28 0 0 0 156 48c0-25.84-24.73-42.63-25.78-43.33a4 4 0 0 0-4.44 0C124.73 5.37 100 22.16 100 48a28 28 0 0 0 24 27.71V92H48a20 20 0 0 0-20 20v23.33a36.85 36.85 0 0 0 8 22.91V200a20 20 0 0 0 20 20h144a20 20 0 0 0 20-20v-41.76a36.85 36.85 0 0 0 8-22.91ZM108 48c0-17.39 14.37-30.53 20-35c5.63 4.48 20 17.62 20 35a20 20 0 0 1-40 0m92 164H56a12 12 0 0 1-12-12v-34.27A35.16 35.16 0 0 0 63 172a36.13 36.13 0 0 0 33-19.48a36 36 0 0 0 64 0A36.13 36.13 0 0 0 192 172h1a35.16 35.16 0 0 0 19-6.26V200a12 12 0 0 1-12 12m20-76.67c0 15.39-12.21 28.25-27.21 28.66A28 28 0 0 1 164 136a4 4 0 0 0-8 0a28 28 0 0 1-56 0a4 4 0 0 0-8 0a28 28 0 0 1-28.79 28c-15-.41-27.21-13.27-27.21-28.66V112a12 12 0 0 1 12-12h160a12 12 0 0 1 12 12Z"/></svg>