<svg xmlns="http://www.w3.org/2000/svg" viewBox="0 0 256 256" width="48" height="48"><path fill="#1b1b1d" d="M208 32h-24v-8a8 8 0 0 0-16 0v8H88v-8a8 8 0 0 0-16 0v8H48a16 16 0 0 0-16 16v160a16 16 0 0 0 16 16h160a16 16 0 0 0 16-16V48a16 16 0 0 0-16-16M84 184a12 12 0 1 1 12-12a12 12 0 0 1-12 12m44 0a12 12 0 1 1 12-12a12 12 0 0 1-12 12m0-40a12 12 0 1 1 12-12a12 12 0 0 1-12 12m44 40a12 12 0 1 1 12-12a12 12 0 0 1-12 12m0-40a12 12 0 1 1 12-12a12 12 0 0 1-12 12m36-64H48V48h24v8a8 8 0 0 0 16 0v-8h80v8a8 8 0 0 0 16 0v-8h24Z"/><path fill="#eae9ec" d="M208 36h-28V24a4 4 0 0 0-8 0v12H84V24a4 4 0 0 0-8 0v12H48a12 12 0 0 0-12 12v160a12 12 0 0 0 12 12h160a12 12 0 0 0 12-12V48a12 12 0 0 0-12-12M48 44h28v12a4 4 0 0 0 8 0V44h88v12a4 4 0 0 0 8 0V44h28a4 4 0 0 1 4 4v36H44V48a4 4 0 0 1 4-4m160 168H48a4 4 0 0 1-4-4V92h168v116a4 4 0 0 1-4 4m-72-80a8 8 0 1 1-8-8a8 8 0 0 1 8 8m44 0a8 8 0 1 1-8-8a8 8 0 0 1 8 8m-88 40a8 8 0 1 1-8-8a8 8 0 0 1 8 8m44 0a8 8 0 1 1-8-8a8 8 0 0 1 8 8m44 0a8 8 0 1 1-8-8a8 8 0 0 1 8 8"/></svg>