<svg xmlns="http://www.w3.org/2000/svg" viewBox="0 0 256 256" width="48" height="48"><path fill="#1b1b1d" d="M221.8 175.94c-5.55-9.56-13.8-36.61-13.8-71.94a80 80 0 1 0-160 0c0 35.34-8.26 62.38-13.81 71.94A16 16 0 0 0 48 200h40.81a40 40 0 0 0 78.38 0H208a16 16 0 0 0 13.8-24.06M128 216a24 24 0 0 1-22.62-16h45.24A24 24 0 0 1 128 216"/><path fill="#eae9ec" d="M218.35 178c-5.77-10-14.35-37.87-14.35-74a76 76 0 1 0-152 0c0 36.13-8.59 64-14.36 73.95A12 12 0 0 0 48 196h44.23a36 36 0 0 0 71.54 0H208a12 12 0 0 0 10.35-18M128 220a28 28 0 0 1-27.71-24h55.42A28 28 0 0 1 128 220m83.45-34a3.91 3.91 0 0 1-3.44 2H48a3.91 3.91 0 0 1-3.44-2a4 4 0 0 1 0-4C52 169.17 60 139.32 60 104a68 68 0 1 1 136 0c0 35.31 8 65.17 15.44 78a4 4 0 0 1 .01 4"/></svg>