<svg xmlns="http://www.w3.org/2000/svg" viewBox="0 0 256 256" width="48" height="48"><path fill="#1b1b1d" d="M208 80h-32V56a48 48 0 0 0-96 0v24H48a16 16 0 0 0-16 16v112a16 16 0 0 0 16 16h160a16 16 0 0 0 16-16V96a16 16 0 0 0-16-16m-80 84a12 12 0 1 1 12-12a12 12 0 0 1-12 12m32-84H96V56a32 32 0 0 1 64 0Z"/><path fill="#eae9ec" d="M208 84h-36V56a44 44 0 0 0-88 0v28H48a12 12 0 0 0-12 12v112a12 12 0 0 0 12 12h160a12 12 0 0 0 12-12V96a12 12 0 0 0-12-12M92 56a36 36 0 0 1 72 0v28H92Zm120 152a4 4 0 0 1-4 4H48a4 4 0 0 1-4-4V96a4 4 0 0 1 4-4h160a4 4 0 0 1 4 4Zm-76-56a8 8 0 1 1-8-8a8 8 0 0 1 8 8"/></svg>