<svg xmlns="http://www.w3.org/2000/svg" viewBox="0 0 256 256" width="48" height="48"><path fill="#1b1b1d" d="M230.33 141.06a24.34 24.34 0 0 0-18.61-4.77C230.5 117.33 240 98.48 240 80c0-26.47-21.29-48-47.46-48A47.58 47.58 0 0 0 156 48.75A47.58 47.58 0 0 0 119.46 32C93.29 32 72 53.53 72 80c0 11 3.24 21.69 10.06 33a31.87 31.87 0 0 0-14.75 8.4L44.69 144H16a16 16 0 0 0-16 16v40a16 16 0 0 0 16 16h104a8 8 0 0 0 1.94-.24l64-16a7 7 0 0 0 1.19-.4L226 182.82l.44-.2a24.6 24.6 0 0 0 3.93-41.56Zm-10.9 27.15l-38 16.18L119 200H56v-44.69l22.63-22.62A15.86 15.86 0 0 1 89.94 128H140a12 12 0 0 1 0 24h-28a8 8 0 0 0 0 16h32a8.3 8.3 0 0 0 1.79-.2l67-15.41l.31-.08a8.6 8.6 0 0 1 6.3 15.9Z"/><path fill="#d6eee1" d="M227.9 144.24a20.45 20.45 0 0 0-17.84-3.53l-11.95 2.75C223.26 121.88 236 100.58 236 80c0-24.26-19.5-44-43.46-44A43.41 43.41 0 0 0 156 55.44A43.41 43.41 0 0 0 119.46 36C95.5 36 76 55.74 76 80c0 11.85 4.11 23.44 12.81 36a27.8 27.8 0 0 0-18.67 8.17L46.34 148H16a12 12 0 0 0-12 12v40a12 12 0 0 0 12 12h104a4 4 0 0 0 1-.12l64-16a5 5 0 0 0 .6-.2l38.82-16.54l.22-.1a20.6 20.6 0 0 0 3.29-34.8ZM119.46 44a35.15 35.15 0 0 1 32.84 21.52a4 4 0 0 0 7.4 0A35.15 35.15 0 0 1 192.54 44C211.76 44 228 60.49 228 80c0 21.27-16.13 44-47.94 67.61L160.75 152a23.76 23.76 0 0 0 3.25-12a24 24 0 0 0-24-24H98.69C88.69 103 84 91.5 84 80c0-19.51 16.24-36 35.46-36M12 200v-40a4 4 0 0 1 4-4h28v48H16a4 4 0 0 1-4-4m209.13-28.17l-38.41 16.37l-63.21 15.8H52v-50.34l23.8-23.8A19.86 19.86 0 0 1 89.94 124H140a16 16 0 0 1 0 32h-28a4 4 0 0 0 0 8h32a4 4 0 0 0 .9-.1l67-15.41h.16a12.6 12.6 0 0 1 9 23.38Z"/></svg>