<svg xmlns="http://www.w3.org/2000/svg" viewBox="0 0 256 256" width="48" height="48"><path fill="#1b1b1d" d="M222.83 33.54a16 16 0 0 0-18.14 3.15c-.14.14-.26.27-.38.41L187.05 57A111.28 111.28 0 0 0 69 57L51.69 37.1c-.12-.14-.24-.27-.38-.41a16 16 0 0 0-18.14-3.15A16.4 16.4 0 0 0 24 48.46V136c0 49 40.06 89.63 91.56 95.32a4 4 0 0 0 4.44-4v-32l-13.42-13.43a8.22 8.22 0 0 1-.41-11.37a8 8 0 0 1 11.49-.18L128 180.68l10.34-10.35a8 8 0 0 1 11.49.18a8.22 8.22 0 0 1-.41 11.37L136 195.31v32a4 4 0 0 0 4.44 4C191.94 225.62 232 185 232 136V48.46a16.4 16.4 0 0 0-9.17-14.92M84 152a12 12 0 1 1 12-12a12 12 0 0 1-12 12m20-64a8 8 0 1 1-16 0V69a8 8 0 0 1 16 0Zm32 0a8 8 0 1 1-16 0V64a8 8 0 0 1 16 0Zm16 0V69a8 8 0 0 1 16 0v19a8 8 0 1 1-16 0m20 64a12 12 0 1 1 12-12a12 12 0 0 1-12 12"/><path fill="#ece7d6" d="M220.59 36.94a11.83 11.83 0 0 0-13.08 2.61l-.19.2l-19.55 22.49a107.1 107.1 0 0 0-119.54 0L48.68 39.75l-.19-.2A12 12 0 0 0 28 48v88c0 50.72 44.86 92 100 92s100-41.27 100-92V48a11.82 11.82 0 0 0-7.41-11.06M220 136c0 45.09-39.12 82-88 83.91v-26.25l14.83-14.83a4 4 0 1 0-5.66-5.65L128 186.35l-13.17-13.17a4 4 0 1 0-5.66 5.65L124 193.66v26.26C75.12 218 36 181.1 36 136V48a3.93 3.93 0 0 1 2.47-3.7a4.4 4.4 0 0 1 1.6-.31a3.77 3.77 0 0 1 2.67 1.1l21.84 25.14a4 4 0 0 0 5.4.59A94 94 0 0 1 92 58.74V88a4 4 0 0 0 8 0V56a100 100 0 0 1 24-3.93V88a4 4 0 0 0 8 0V52.09A100 100 0 0 1 156 56v32a4 4 0 0 0 8 0V58.74a94 94 0 0 1 22 12.08a4 4 0 0 0 5.4-.59l21.84-25.11A4 4 0 0 1 220 48Zm-128 4a8 8 0 1 1-8-8a8 8 0 0 1 8 8m88 0a8 8 0 1 1-8-8a8 8 0 0 1 8 8"/></svg>