<svg xmlns="http://www.w3.org/2000/svg" viewBox="0 0 256 256" width="48" height="48"><path fill="#1b1b1d" d="M216 40H40a16 16 0 0 0-16 16v144a16 16 0 0 0 16 16h176a16 16 0 0 0 16-16V56a16 16 0 0 0-16-16m-16 152H56a8 8 0 0 1-8-8V72a8 8 0 0 1 16 0v76.69l34.34-34.35a8 8 0 0 1 11.32 0L128 132.69L172.69 88H144a8 8 0 0 1 0-16h48a8 8 0 0 1 8 8v48a8 8 0 0 1-16 0V99.31l-50.34 50.35a8 8 0 0 1-11.32 0L104 131.31l-40 40V176h136a8 8 0 0 1 0 16"/><path fill="#d9f0d5" d="M228 208a4 4 0 0 1-4 4H32a4 4 0 0 1-4-4V48a4 4 0 0 1 8 0v118.34l57.17-57.17a4 4 0 0 1 5.66 0L128 138.34L190.34 76H160a4 4 0 0 1 0-8h40a4 4 0 0 1 4 4v40a4 4 0 0 1-8 0V81.66l-65.17 65.17a4 4 0 0 1-5.66 0L96 117.66l-60 60V204h188a4 4 0 0 1 4 4"/></svg>