<svg xmlns="http://www.w3.org/2000/svg" viewBox="0 0 256 256" width="48" height="48"><path fill="#1b1b1d" d="m255.31 188.75l-64-144A8 8 0 0 0 184 40H72a8 8 0 0 0-7.31 4.75v.12l-64 143.88A8 8 0 0 0 8 200h240a8 8 0 0 0 7.31-11.25M64 184H20.31L64 85.7Zm16 0V85.7l43.69 98.3Z"/><path fill="#f8ecd0" d="m251.66 190.38l-64-144A4 4 0 0 0 184 44H72a4 4 0 0 0-3.63 2.35v.06l-64 143.93A4 4 0 0 0 8 196h240a4 4 0 0 0 3.66-5.62M68 66.85V188H14.16ZM76 188V66.85L129.84 188Zm62.6 0L78.16 52H181.4l60.44 136Z"/></svg>