<svg xmlns="http://www.w3.org/2000/svg" viewBox="0 0 256 256" width="48" height="48"><path fill="#1b1b1d" d="M216 104H102.09L210 75.51a8 8 0 0 0 5.68-9.84l-8.16-30a15.93 15.93 0 0 0-19.42-11.13L35.81 64.74a15.75 15.75 0 0 0-9.7 7.4a15.5 15.5 0 0 0-1.55 12L32 111.56V200a16 16 0 0 0 16 16h160a16 16 0 0 0 16-16v-88a8 8 0 0 0-8-8m-23.84-64l6 22.07L164.57 71l-28.13-16.28ZM77.55 70.27l28.12 16.24l-59.6 15.73l-6-22.08Z"/><path fill="#f8ecd0" d="M216 108H71.26L209 71.64a4 4 0 0 0 2.84-4.92l-8.16-30a11.92 11.92 0 0 0-14.54-8.31L36.83 68.61a11.78 11.78 0 0 0-7.26 5.53A11.6 11.6 0 0 0 28.41 83l7.67 28.19a4 4 0 0 0-.08.81v88a12 12 0 0 0 12 12h160a12 12 0 0 0 12-12v-88a4 4 0 0 0-4-4m-90-54.67l38 21.92l-47.92 12.65L78.12 66Zm65.16-17.2a4 4 0 0 1 1-.13a3.88 3.88 0 0 1 3.84 2.81l7.1 26.12l-28.1 7.42l-38-21.92Zm-154.7 42a3.86 3.86 0 0 1 2.37-1.8l28.27-7.46l38 21.91l-61.85 16.34l-7.12-26.18a3.66 3.66 0 0 1 .37-2.8ZM212 200a4 4 0 0 1-4 4H48a4 4 0 0 1-4-4v-84h168Z"/></svg>