<svg xmlns="http://www.w3.org/2000/svg" viewBox="0 0 256 256" width="48" height="48"><path fill="#1b1b1d" d="M216 88h-16V72a40 40 0 0 0-40-40h-11.18c-11.91-10.2-28-16-44.82-16c-35.29 0-64 25.12-64 56v136a16 16 0 0 0 16 16h128a16 16 0 0 0 16-16v-8h16a24 24 0 0 0 24-24v-64a24 24 0 0 0-24-24m-112 96a8 8 0 0 1-16 0v-80a8 8 0 0 1 16 0Zm48 0a8 8 0 0 1-16 0v-80a8 8 0 0 1 16 0ZM57 64c4.46-18.24 23.85-32 47-32c13.87 0 27.06 5 36.21 13.78a8 8 0 0 0 5.53 2.22H160a24 24 0 0 1 22.62 16Zm167 112a8 8 0 0 1-8 8h-16v-80h16a8 8 0 0 1 8 8Z"/><path fill="#f8ecd0" d="M216 92h-20V72a36 36 0 0 0-36-36h-12.69C136 25.81 120.34 20 104 20c-33.08 0-60 23.33-60 52v136a12 12 0 0 0 12 12h128a12 12 0 0 0 12-12v-12h20a20 20 0 0 0 20-20v-64a20 20 0 0 0-20-20M104 28c14.89 0 29.09 5.43 39 14.89a4 4 0 0 0 2.74 1.11H160a28 28 0 0 1 27.71 24H52.22c2.4-22.39 24.7-40 51.78-40m84 180a4 4 0 0 1-4 4H56a4 4 0 0 1-4-4V76h136Zm40-32a12 12 0 0 1-12 12h-20v-88h20a12 12 0 0 1 12 12Zm-128-72v80a4 4 0 0 1-8 0v-80a4 4 0 0 1 8 0m48 0v80a4 4 0 0 1-8 0v-80a4 4 0 0 1 8 0"/></svg>