<svg xmlns="http://www.w3.org/2000/svg" viewBox="0 0 256 256" width="48" height="48"><path fill="#1b1b1d" d="M215.58 54.55a7.5 7.5 0 0 0-1.32-1.27A79.68 79.68 0 0 0 160 32h-8a16 16 0 0 0-16 16v56H55.2A40.07 40.07 0 0 0 16 72a8 8 0 0 0 0 16a24 24 0 0 1 24 24a80.09 80.09 0 0 0 80 80h40a79.94 79.94 0 0 0 55.58-137.45m-6.91 16A63.73 63.73 0 0 1 223.48 104h-56.67ZM160 48a63.6 63.6 0 0 1 36.69 11.61L152 95.35V48Zm-56 176a16 16 0 1 1-16-16a16 16 0 0 1 16 16m104 0a16 16 0 1 1-16-16a16 16 0 0 1 16 16"/><path fill="#d6eee1" d="M160 36h-8a12 12 0 0 0-12 12v60H51.77A36 36 0 0 0 16 76a4 4 0 0 0 0 8a28 28 0 0 1 28 28a76.08 76.08 0 0 0 76 76h40a76 76 0 0 0 0-152m67.87 72H155.4l53.71-43a67.76 67.76 0 0 1 18.76 43M152 44h8a67.72 67.72 0 0 1 43.2 15.52L148 103.68V48a4 4 0 0 1 4-4m8 136h-40a68.08 68.08 0 0 1-67.88-64h175.76A68.08 68.08 0 0 1 160 180m-60 44a12 12 0 1 1-12-12a12 12 0 0 1 12 12m104 0a12 12 0 1 1-12-12a12 12 0 0 1 12 12"/></svg>