<svg xmlns="http://www.w3.org/2000/svg" viewBox="0 0 256 256" width="48" height="48"><path fill="#1b1b1d" d="M240 102c0 70-103.79 126.66-108.21 129a8 8 0 0 1-7.58 0C119.79 228.66 16 172 16 102a62.07 62.07 0 0 1 62-62c20.65 0 38.73 8.88 50 23.89C139.27 48.88 157.35 40 178 40a62.07 62.07 0 0 1 62 62"/><path fill="#eae9ec" d="M178 44c-21.44 0-39.92 10.19-50 27.07C117.92 54.19 99.44 44 78 44a58.07 58.07 0 0 0-58 58c0 28.59 18 58.47 53.4 88.79a334 334 0 0 0 52.7 36.73a4 4 0 0 0 3.8 0a334 334 0 0 0 52.7-36.73C218 160.47 236 130.59 236 102a58.07 58.07 0 0 0-58-58m-50 175.42c-14-8-100-59.35-100-117.42a50.06 50.06 0 0 1 50-50c21.11 0 38.85 11.31 46.3 29.51a4 4 0 0 0 7.4 0C139.15 63.31 156.89 52 178 52a50.06 50.06 0 0 1 50 50c0 58-86 109.46-100 117.42"/></svg>