<svg xmlns="http://www.w3.org/2000/svg" viewBox="0 0 256 256" width="48" height="48"><path fill="#1b1b1d" d="M248 80a28 28 0 1 0-51.12 15.77l-26.79 33L146 73.4a28 28 0 1 0-36.06 0l-24.03 55.34l-26.79-33a28 28 0 1 0-26.6 12L47 194.63A16 16 0 0 0 62.78 208h130.44A16 16 0 0 0 209 194.63l14.47-86.85A28 28 0 0 0 248 80M128 40a12 12 0 1 1-12 12a12 12 0 0 1 12-12M24 80a12 12 0 1 1 12 12a12 12 0 0 1-12-12m196 12a12 12 0 1 1 12-12a12 12 0 0 1-12 12"/><path fill="#e6dff2" d="M244 80a24 24 0 1 0-42 15.83l-33 40.54l-27.9-64.28a24 24 0 1 0-26.2 0L87 136.37L54 95.83A24 24 0 1 0 35.94 104l15 90a12 12 0 0 0 11.84 10h130.44a12 12 0 0 0 11.84-10l15-90A24 24 0 0 0 244 80M128 36a16 16 0 1 1-16 16a16 16 0 0 1 16-16M20 80a16 16 0 1 1 16 16a16 16 0 0 1-16-16m177.17 112.66a4 4 0 0 1-3.95 3.34H62.78a4 4 0 0 1-4-3.34l-15-90a23.4 23.4 0 0 0 4-1.8l37.12 45.66A4 4 0 0 0 88 148a3.3 3.3 0 0 0 .54 0a4 4 0 0 0 3.13-2.37l30.56-70.3a23.8 23.8 0 0 0 11.54 0l30.56 70.3a4 4 0 0 0 3.13 2.37a3.3 3.3 0 0 0 .54 0a4 4 0 0 0 3.1-1.48l37.09-45.64a23.4 23.4 0 0 0 4 1.8ZM220 96a16 16 0 1 1 16-16a16 16 0 0 1-16 16"/></svg>