<svg xmlns="http://www.w3.org/2000/svg" viewBox="0 0 256 256" width="48" height="48"><path fill="#1b1b1d" d="M120 56a32 32 0 1 1 32 32a32 32 0 0 1-32-32m103.28 74.08a8 8 0 0 0-10.6-4c-.25.12-26.71 10.72-72.18-20.19c-52.29-35.54-88-7.77-89.51-6.57a8 8 0 1 0 10 12.48c.26-.21 25.12-19.5 64.07 3.27c-4.25 13.35-12.76 31.82-25.25 47c-18.56 22.48-41.11 32.56-67 30A8 8 0 0 0 31.2 208a92 92 0 0 0 9.34.47c27.38 0 52-12.38 71.63-36.18c.57-.69 1.14-1.4 1.69-2.1C133.31 175.29 168 190.3 168 232a8 8 0 0 0 16 0c0-24.65-10.08-45.35-29.15-59.86a104.3 104.3 0 0 0-31.31-15.81A169.3 169.3 0 0 0 139 124c26.14 16.09 46.84 20 60.69 20c12.18 0 19.06-3 19.67-3.28a8 8 0 0 0 3.92-10.64"/><path fill="#e3edd5" d="M152 84a28 28 0 1 0-28-28a28 28 0 0 0 28 28m0-48a20 20 0 1 1-20 20a20 20 0 0 1 20-20m65.66 101c-.57.26-6.84 3-18.08 3c-13.86 0-35.25-4.15-62.81-22.16a162.6 162.6 0 0 1-19.49 40.78c9.47 2.56 23.08 7.5 35.14 16.67c18.3 13.92 27.58 33 27.58 56.68a4 4 0 0 1-8 0c0-15.89-5.88-53.77-59.7-66.37q-1.56 2.06-3.22 4.08c-18.85 22.83-42.42 34.72-68.6 34.72q-4.4 0-8.89-.45a4 4 0 1 1 .8-8c27.33 2.73 51.06-7.83 70.52-31.41c13.82-16.74 22.89-37.44 26.9-51.32c-42.84-26.69-71-4.8-71.32-4.57a4 4 0 1 1-5-6.24c.36-.29 9-7.1 23.84-9.58c13.5-2.27 35-1.26 60.91 16.34c25 17 44.41 21.64 56.29 22.56c12.75 1 19.77-2 19.84-2.05a4 4 0 0 1 3.29 7.29Z"/></svg>