<svg xmlns="http://www.w3.org/2000/svg" viewBox="0 0 256 256" width="48" height="48"><path fill="#1b1b1d" d="M16 100V72a16 16 0 0 1 16-16h84a4 4 0 0 1 4 4v76H64a32 32 0 0 0-32-32H20a4 4 0 0 1-4-4m208 4h12a4 4 0 0 0 4-4V72a16 16 0 0 0-16-16h-84a4 4 0 0 0-4 4v76h56a32 32 0 0 1 32-32m8 16h-8a16 16 0 0 0-16 16v8a8 8 0 0 1-8 8H56a8 8 0 0 1-8-8v-8a16 16 0 0 0-16-16h-8a16 16 0 0 0-16 16v32a16 16 0 0 0 16 16h8v15.73a8.18 8.18 0 0 0 7.47 8.27a8 8 0 0 0 8.53-8v-16h160v15.73a8.17 8.17 0 0 0 7.47 8.25a8 8 0 0 0 8.53-8V184h8a16 16 0 0 0 16-16v-32a16 16 0 0 0-16-16"/><path fill="#e7e0f7" d="M236 108.7V72a12 12 0 0 0-12-12H32a12 12 0 0 0-12 12v36.7a12 12 0 0 0-8 11.3v48a12 12 0 0 0 12 12h12v20a4 4 0 0 0 8 0v-20h168v20a4 4 0 0 0 8 0v-20h12a12 12 0 0 0 12-12v-48a12 12 0 0 0-8-11.3M228 72v36h-12a12 12 0 0 0-12 12v20h-72V68h92a4 4 0 0 1 4 4M32 68h92v72H52v-20a12 12 0 0 0-12-12H28V72a4 4 0 0 1 4-4m204 100a4 4 0 0 1-4 4H24a4 4 0 0 1-4-4v-48a4 4 0 0 1 4-4h16a4 4 0 0 1 4 4v24a4 4 0 0 0 4 4h160a4 4 0 0 0 4-4v-24a4 4 0 0 1 4-4h16a4 4 0 0 1 4 4Z"/></svg>