<svg xmlns="http://www.w3.org/2000/svg" viewBox="0 0 256 256" width="48" height="48"><path fill="#1b1b1d" d="M224 48H32a16 16 0 0 0-16 16v128a16 16 0 0 0 16 16h192a16 16 0 0 0 16-16V64a16 16 0 0 0-16-16m-88 128h-16a8 8 0 0 1 0-16h16a8 8 0 0 1 0 16m64 0h-32a8 8 0 0 1 0-16h32a8 8 0 0 1 0 16M32 88V64h192v24Z"/><path fill="#d9f0d5" d="M224 52H32a12 12 0 0 0-12 12v128a12 12 0 0 0 12 12h192a12 12 0 0 0 12-12V64a12 12 0 0 0-12-12M32 60h192a4 4 0 0 1 4 4v28H28V64a4 4 0 0 1 4-4m192 136H32a4 4 0 0 1-4-4v-92h200v92a4 4 0 0 1-4 4m-20-28a4 4 0 0 1-4 4h-32a4 4 0 0 1 0-8h32a4 4 0 0 1 4 4m-64 0a4 4 0 0 1-4 4h-16a4 4 0 0 1 0-8h16a4 4 0 0 1 4 4"/></svg>