<svg xmlns="http://www.w3.org/2000/svg" viewBox="0 0 256 256" width="48" height="48"><path fill="#1b1b1d" d="M200 40H48a40 40 0 0 0-16 76.65V200a16 16 0 0 0 16 16h152a16 16 0 0 0 16-16v-83.35A40 40 0 0 0 200 40m-56 64a8 8 0 0 0 0 16v80H48v-80a8 8 0 0 0 0-16a24 24 0 0 1 0-48h96a24 24 0 0 1 0 48"/><path fill="#f8e3d2" d="M236 80a36 36 0 0 0-36-36H48a36 36 0 0 0-12 69.94V200a12 12 0 0 0 12 12h152a12 12 0 0 0 12-12v-86.06A36.07 36.07 0 0 0 236 80M44 200v-84.23a35 35 0 0 0 4 .23a4 4 0 0 0 0-8a28 28 0 0 1 0-56h96a28 28 0 0 1 0 56a4 4 0 0 0 0 8a35 35 0 0 0 4-.23V200a4 4 0 0 1-4 4H48a4 4 0 0 1-4-4m156-92a4 4 0 0 0 0 8a35 35 0 0 0 4-.23V200a4 4 0 0 1-4 4h-44.7a11.8 11.8 0 0 0 .7-4v-86.06A36 36 0 0 0 166.59 52H200a28 28 0 0 1 0 56"/></svg>