<svg xmlns="http://www.w3.org/2000/svg" viewBox="0 0 256 256" width="48" height="48"><path fill="#1b1b1d" d="M128 116a12 12 0 1 1-12 12a12 12 0 0 1 12-12m84.28 39.72a40 40 0 1 1-56.56 56.56L128 184.57l-27.72 27.71a40 40 0 1 1-56.56-56.56L71.43 128l-27.71-27.72a40 40 0 1 1 56.56-56.56L128 71.43l27.72-27.71a40 40 0 1 1 56.56 56.56L184.57 128Zm-95.59 17.53l-33.94-33.94L55 167a24 24 0 1 0 34 34ZM161.94 128L128 94.06L94.06 128L128 161.94Zm39-39A24 24 0 1 0 167 55l-27.69 27.75l33.94 33.94Z"/><path fill="#f8dee4" d="m178.91 128l30.55-30.54a36 36 0 0 0-50.92-50.92L128 77.09L97.46 46.54a36 36 0 0 0-50.92 50.92L77.09 128l-30.55 30.54a36 36 0 0 0 50.92 50.92L128 178.91l30.54 30.55a36 36 0 0 0 50.92-50.92ZM164.2 52.2a28 28 0 0 1 39.6 39.6l-30.55 30.54l-39.59-39.59Zm3.4 75.8L128 167.6L88.4 128L128 88.4ZM52.2 91.8a28 28 0 0 1 39.6-39.6l30.54 30.55l-39.59 39.59Zm39.6 112a28 28 0 0 1-39.6-39.6l30.55-30.54l39.59 39.59Zm112 0a28 28 0 0 1-39.6 0l-30.54-30.55l39.59-39.59l30.55 30.54a28 28 0 0 1 0 39.6M120 128a8 8 0 1 1 8 8a8 8 0 0 1-8-8"/></svg>