<svg xmlns="http://www.w3.org/2000/svg" viewBox="0 0 256 256" width="48" height="48"><path fill="#1b1b1d" d="M192 32H64a32 32 0 0 0-32 32v128a32 32 0 0 0 32 32h128a32 32 0 0 0 32-32V64a32 32 0 0 0-32-32M92 176a12 12 0 1 1 12-12a12 12 0 0 1-12 12m0-72a12 12 0 1 1 12-12a12 12 0 0 1-12 12m36 36a12 12 0 1 1 12-12a12 12 0 0 1-12 12m36 36a12 12 0 1 1 12-12a12 12 0 0 1-12 12m0-72a12 12 0 1 1 12-12a12 12 0 0 1-12 12"/><path fill="#f8ecd0" d="M192 36H64a28 28 0 0 0-28 28v128a28 28 0 0 0 28 28h128a28 28 0 0 0 28-28V64a28 28 0 0 0-28-28m20 156a20 20 0 0 1-20 20H64a20 20 0 0 1-20-20V64a20 20 0 0 1 20-20h128a20 20 0 0 1 20 20ZM100 92a8 8 0 1 1-8-8a8 8 0 0 1 8 8m36 36a8 8 0 1 1-8-8a8 8 0 0 1 8 8m36-36a8 8 0 1 1-8-8a8 8 0 0 1 8 8m-72 72a8 8 0 1 1-8-8a8 8 0 0 1 8 8m72 0a8 8 0 1 1-8-8a8 8 0 0 1 8 8"/></svg>