<svg xmlns="http://www.w3.org/2000/svg" viewBox="0 0 256 256" width="48" height="48"><path fill="#1b1b1d" d="M176 216a8 8 0 0 1-8 8H24a8 8 0 0 1 0-16h144a8 8 0 0 1 8 8m70.31-129.24l-18.64-23.89l-.12-.15a39.82 39.82 0 0 0-51.28-9.12L124.7 84.38L70.76 64.54a8 8 0 0 0-5.59 0L58 67.27l-.32.13a16 16 0 0 0-4.53 26.47L75 115.06l-20.17 12.2l-28.26-9.54a8 8 0 0 0-6.08.4l-3 1.47A16 16 0 0 0 13 145.8l36 35.27l.12.12a39.78 39.78 0 0 0 27.28 10.87a40.2 40.2 0 0 0 20.26-5.52l147.41-88a8 8 0 0 0 2.21-11.78Z"/><path fill="#d4edf3" d="M172 216a4 4 0 0 1-4 4H24a4 4 0 0 1 0-8h144a4 4 0 0 1 4 4m71.93-123.59a4 4 0 0 1-1.88 2.7l-147.41 88a36.15 36.15 0 0 1-18.2 4.95a35.78 35.78 0 0 1-24.55-9.79l-36.16-35.38a12 12 0 0 1 3.44-19.68l3.07-1.5a4 4 0 0 1 3-.2l30 10.13L81.5 115.8L55.91 91a12 12 0 0 1 3.36-19.89l.16-.06l7.15-2.71a4 4 0 0 1 2.8 0l55.73 20.46L178.32 57a35.83 35.83 0 0 1 46.14 8.22l18.69 24a4 4 0 0 1 .78 3.19m-9.87-1.85l-15.85-20.32a27.85 27.85 0 0 0-35.81-6.33l-54.82 32.73a4 4 0 0 1-3.44.32L68 76.31l-5.66 2.14a4 4 0 0 0-1 6.62a1 1 0 0 0 .11.11l29.35 28.49a4 4 0 0 1-.72 6.29l-32.22 19.48a4 4 0 0 1-3.35.37l-30.23-10.2l-1.67.82l-.18.09a4 4 0 0 0-1.16 6.59l36.15 35.39a27.82 27.82 0 0 0 33.16 3.72Z"/></svg>