<svg xmlns="http://www.w3.org/2000/svg" viewBox="0 0 256 256" width="48" height="48"><path fill="#1b1b1d" d="M112 120a16 16 0 1 1-16-16a16 16 0 0 1 16 16m120-64v144a16 16 0 0 1-16 16H40a16 16 0 0 1-16-16V56a16 16 0 0 1 16-16h176a16 16 0 0 1 16 16m-96.25 110a39.76 39.76 0 0 0-17.19-23.34a32 32 0 1 0-45.12 0A39.84 39.84 0 0 0 56.25 166a8 8 0 0 0 15.5 4c2.64-10.25 13.06-18 24.25-18s21.62 7.73 24.25 18a8 8 0 1 0 15.5-4M200 144a8 8 0 0 0-8-8h-40a8 8 0 0 0 0 16h40a8 8 0 0 0 8-8m0-32a8 8 0 0 0-8-8h-40a8 8 0 0 0 0 16h40a8 8 0 0 0 8-8"/><path fill="#e8e3da" d="M196 112a4 4 0 0 1-4 4h-40a4 4 0 0 1 0-8h40a4 4 0 0 1 4 4m-4 28h-40a4 4 0 0 0 0 8h40a4 4 0 0 0 0-8m36-84v144a12 12 0 0 1-12 12H40a12 12 0 0 1-12-12V56a12 12 0 0 1 12-12h176a12 12 0 0 1 12 12m-8 0a4 4 0 0 0-4-4H40a4 4 0 0 0-4 4v144a4 4 0 0 0 4 4h176a4 4 0 0 0 4-4Zm-88.13 111a4 4 0 1 1-7.74 2C121.06 157 109 148 96 148s-25 9-28.13 21a4 4 0 0 1-3.87 3a4 4 0 0 1-1-.13a4 4 0 0 1-2.87-4.87a36.28 36.28 0 0 1 20.43-23.66a28 28 0 1 1 30.88 0A36.2 36.2 0 0 1 131.87 167M96 140a20 20 0 1 0-20-20a20 20 0 0 0 20 20"/></svg>