<svg xmlns="http://www.w3.org/2000/svg" viewBox="0 0 256 256" width="48" height="48"><path fill="#1b1b1d" d="M160 152a16 16 0 0 1-16 16h-8v-32h8a16 16 0 0 1 16 16m72-24A104 104 0 1 1 128 24a104.11 104.11 0 0 1 104 104m-56 24a32 32 0 0 0-32-32h-8V88h4a16 16 0 0 1 16 16a8 8 0 0 0 16 0a32 32 0 0 0-32-32h-4v-8a8 8 0 0 0-16 0v8h-4a32 32 0 0 0 0 64h4v32h-8a16 16 0 0 1-16-16a8 8 0 0 0-16 0a32 32 0 0 0 32 32h8v8a8 8 0 0 0 16 0v-8h8a32 32 0 0 0 32-32m-76-48a16 16 0 0 0 16 16h4V88h-4a16 16 0 0 0-16 16"/><path fill="#d9f0d5" d="M152 124h-20V52h12a36 36 0 0 1 36 36a4 4 0 0 0 8 0a44.05 44.05 0 0 0-44-44h-12V24a4 4 0 0 0-8 0v20h-12a44 44 0 0 0 0 88h12v72h-20a36 36 0 0 1-36-36a4 4 0 0 0-8 0a44.05 44.05 0 0 0 44 44h20v20a4 4 0 0 0 8 0v-20h20a44 44 0 0 0 0-88m-40 0a36 36 0 0 1 0-72h12v72Zm40 80h-20v-72h20a36 36 0 0 1 0 72"/></svg>