<svg xmlns="http://www.w3.org/2000/svg" viewBox="0 0 256 256" width="48" height="48"><path fill="#1b1b1d" d="M174 47.75a254.2 254.2 0 0 0-41.45-38.3a8 8 0 0 0-9.18 0A254.2 254.2 0 0 0 82 47.75C54.51 79.32 40 112.6 40 144a88 88 0 0 0 176 0c0-31.4-14.51-64.68-42-96.25m9.85 105.59a57.6 57.6 0 0 1-46.56 46.55a9 9 0 0 1-1.29.11a8 8 0 0 1-1.32-15.89c16.57-2.79 30.63-16.85 33.44-33.45a8 8 0 0 1 15.78 2.68Z"/><path fill="#e7e0f7" d="M171 50.38a250 250 0 0 0-40.73-37.66a4 4 0 0 0-4.58 0A250 250 0 0 0 85 50.38C58.17 81.21 44 113.58 44 144a84 84 0 0 0 168 0c0-30.42-14.17-62.79-41-93.62M128 220a76.08 76.08 0 0 1-76-76c0-35.9 21.15-67.8 38.9-88.24A255 255 0 0 1 128 21a255 255 0 0 1 37.1 34.8C182.85 76.2 204 108.1 204 144a76.08 76.08 0 0 1-76 76m51.94-67.33a53.51 53.51 0 0 1-43.28 43.27a3.7 3.7 0 0 1-.66.06a4 4 0 0 1-.66-7.94c18.18-3.06 33.63-18.51 36.72-36.73a4 4 0 0 1 7.88 1.34"/></svg>