<svg xmlns="http://www.w3.org/2000/svg" viewBox="0 0 256 256" width="48" height="48"><path fill="#1b1b1d" d="M64 236a12 12 0 1 1-12-12a12 12 0 0 1 12 12m20-44a12 12 0 1 0 12 12a12 12 0 0 0-12-12m-64 0a12 12 0 1 0 12 12a12 12 0 0 0-12-12m32-32a12 12 0 1 0 12 12a12 12 0 0 0-12-12M248 32h-32a8 8 0 0 0-5.66 2.34l-30.2 30.2L53.38 86.19a16 16 0 0 0-8.69 27.1l98 98a16 16 0 0 0 27.09-8.66l21.68-126.77L219.31 48H248a8 8 0 0 0 0-16"/><path fill="#e7e0f7" d="M60 236a8 8 0 1 1-8-8a8 8 0 0 1 8 8m24-40a8 8 0 1 0 8 8a8 8 0 0 0-8-8m-64 0a8 8 0 1 0 8 8a8 8 0 0 0-8-8m32-32a8 8 0 1 0 8 8a8 8 0 0 0-8-8M252 40a4 4 0 0 1-4 4h-30.34l-29.93 29.93L165.86 202a12 12 0 0 1-8.17 9.44a12.1 12.1 0 0 1-3.69.56a12 12 0 0 1-8.46-3.52l-98-98A12 12 0 0 1 54 90.14l128-21.87l31.1-31.1A4 4 0 0 1 216 36h32a4 4 0 0 1 4 4m-72.89 36.89L55.37 98a4 4 0 0 0-2.19 6.78l98 98a4 4 0 0 0 6.78-2.17Z"/></svg>