<svg xmlns="http://www.w3.org/2000/svg" viewBox="0 0 256 256" width="48" height="48"><path fill="#1b1b1d" d="M237.66 77.66L203.31 112l26.35 26.34a8 8 0 0 1-11.32 11.32l-6.34-6.35l-53 53a40 40 0 0 1-56.57 0l-15.68-15.74l-49.09 49.09a8 8 0 0 1-11.32-11.32l49.09-49.09l-15.71-15.71a40 40 0 0 1 0-56.57l53-53l-6.35-6.34a8 8 0 0 1 11.32-11.32L144 52.69l34.34-34.35a8 8 0 1 1 11.32 11.32L155.31 64L192 100.69l34.34-34.35a8 8 0 0 1 11.32 11.32"/><path fill="#dde7ef" d="M234.83 69.17a4 4 0 0 0-5.66 0L192 106.34L149.66 64l37.17-37.17a4 4 0 1 0-5.66-5.66L144 58.34l-29.17-29.17a4 4 0 0 0-5.66 5.66l9.17 9.17l-55.8 55.8a36.05 36.05 0 0 0 0 50.91l18.55 18.54l-51.92 51.92a4 4 0 0 0 5.66 5.66l51.92-51.92l18.54 18.55a36.06 36.06 0 0 0 50.91 0l55.8-55.8l9.17 9.17a4 4 0 0 0 5.66-5.66L197.66 112l37.17-37.17a4 4 0 0 0 0-5.66M150.54 187.8a28 28 0 0 1-39.59 0L68.2 145.05a28 28 0 0 1 0-39.59l55.8-55.8L206.34 132Z"/></svg>