<svg xmlns="http://www.w3.org/2000/svg" viewBox="0 0 256 256" width="48" height="48"><path fill="#1b1b1d" d="M224 104h-8.37a88 88 0 0 0-175.26 0H32a8 8 0 0 0-8 8a104.35 104.35 0 0 0 56 92.28V208a16 16 0 0 0 16 16h64a16 16 0 0 0 16-16v-3.72A104.35 104.35 0 0 0 232 112a8 8 0 0 0-8-8m-50.52-47.77q2.75 2.25 5.27 4.75a87.92 87.92 0 0 0-49.15 43h-29.5A72.26 72.26 0 0 1 168 56c1.83 0 3.66.09 5.48.23M148.12 104a71.84 71.84 0 0 1 41.27-29.57A71.45 71.45 0 0 1 199.54 104ZM128 40a72 72 0 0 1 19 2.57A88.36 88.36 0 0 0 83.33 104H56.46A72.08 72.08 0 0 1 128 40"/><path fill="#f8e3d2" d="M224 108h-12.1a84 84 0 0 0-167.8 0H32a4 4 0 0 0-4 4a100.32 100.32 0 0 0 56 89.82V208a12 12 0 0 0 12 12h64a12 12 0 0 0 12-12v-6.18A100.32 100.32 0 0 0 228 112a4 4 0 0 0-4-4m-20.11 0h-62.84a75.92 75.92 0 0 1 50.16-38.14A75.45 75.45 0 0 1 203.89 108M186 62.93A83.92 83.92 0 0 0 132.08 108h-37.4A76.22 76.22 0 0 1 168 52c2.33 0 4.68.13 7 .34a77 77 0 0 1 11 10.59M128 36a75.5 75.5 0 0 1 34.3 8.21A84.26 84.26 0 0 0 86.41 108h-34.3A76.09 76.09 0 0 1 128 36m38.33 159.66a4 4 0 0 0-2.33 3.64v8.7a4 4 0 0 1-4 4H96a4 4 0 0 1-4-4v-8.7a4 4 0 0 0-2.33-3.64A92.33 92.33 0 0 1 36.09 116h183.82a92.33 92.33 0 0 1-53.58 79.66"/></svg>