<svg xmlns="http://www.w3.org/2000/svg" viewBox="0 0 256 256" width="48" height="48"><path fill="#1b1b1d" d="M235.29 216.7C212.86 205.69 200 182.12 200 152v-17.31a15.94 15.94 0 0 0-10.09-14.87l-28.65-11.46A8 8 0 0 1 156.79 98l22.32-56.67C184 28.79 178 14.21 165.34 9.51a24 24 0 0 0-30.7 13.71l-22.39 56.86a8 8 0 0 1-10.41 4.5l-28.73-11.5a15.91 15.91 0 0 0-17.38 3.66C34.68 98.4 24 123.71 24 152a111.53 111.53 0 0 0 31.15 77.53A8.06 8.06 0 0 0 61 232h171a8 8 0 0 0 8-7.51a8.21 8.21 0 0 0-4.71-7.79m-120.18-.7a87.5 87.5 0 0 1-24.26-41.71a8.21 8.21 0 0 0-9.25-6.18a8 8 0 0 0-6.32 9.89a105.3 105.3 0 0 0 18.36 38h-29.2A95.62 95.62 0 0 1 40 152a85.9 85.9 0 0 1 7.73-36.3l137.8 55.13c3 18.06 10.55 33.5 21.89 45.19Z"/><path fill="#e7e0f7" d="M233.75 220.4C209.76 208.75 196 183.82 196 152v-17.28a12 12 0 0 0-7.56-11.15l-24.89-9.83a12 12 0 0 1-6.71-15.55l21.33-53a23.88 23.88 0 0 0-31.93-31a24.72 24.72 0 0 0-12.62 13.11l-21 53.1A12 12 0 0 1 97 87.13L71.63 76.84a12 12 0 0 0-13 2.73C38.3 100.45 28 124.82 28 152a107.5 107.5 0 0 0 30.07 74.77A4 4 0 0 0 61 228h171a4 4 0 0 0 1.75-7.6M64.34 85.15a3.94 3.94 0 0 1 4.3-.89L94 94.55a20 20 0 0 0 26-11.2l21-53c3.39-8.16 12.61-12.35 20.58-9.35a16 16 0 0 1 9.19 21.16l-21.36 53.06a20 20 0 0 0 11.18 26l24.9 9.83a4 4 0 0 1 2.51 3.72V152c0 2.36.08 4.69.22 7l-138.5-55.4a111 111 0 0 1 14.62-18.45M113.56 220a91.35 91.35 0 0 1-26.66-45a4 4 0 0 0-7.75 2a100.2 100.2 0 0 0 23.09 43H62.68A99.5 99.5 0 0 1 36 152a89.4 89.4 0 0 1 9.73-41.4l143.4 57.4c3.22 22 13.23 40.09 28.8 52Z"/></svg>