<svg xmlns="http://www.w3.org/2000/svg" viewBox="0 0 256 256" width="48" height="48"><path fill="#1b1b1d" d="M143.38 17.85a8 8 0 0 0-12.63 3.41l-22 60.41l-24.16-23.41a8 8 0 0 0-11.93.89C51 87.53 40 116.08 40 144a88 88 0 0 0 176 0c0-59.45-50.79-108-72.62-126.15m40.51 135.49a57.6 57.6 0 0 1-46.56 46.55a7.7 7.7 0 0 1-1.33.11a8 8 0 0 1-1.32-15.89c16.57-2.79 30.63-16.85 33.44-33.45a8 8 0 0 1 15.78 2.68Z"/><path fill="#e7e0f7" d="M179.94 152.67a53.51 53.51 0 0 1-43.28 43.27a3.7 3.7 0 0 1-.66.06a4 4 0 0 1-.66-7.94c18.18-3.06 33.63-18.51 36.72-36.73a4 4 0 0 1 7.88 1.34M212 144a84 84 0 0 1-168 0c0-27 10.71-54.75 31.84-82.43a4 4 0 0 1 6-.44l28.55 27.7l24.15-66.2a4 4 0 0 1 6.31-1.71C162.22 38.69 212 86.24 212 144m-8 0c0-50.82-41.73-93.91-63.94-113.23l-24.3 66.6a4 4 0 0 1-6.55 1.5L79.5 70C61.25 95.07 52 119.93 52 144a76 76 0 0 0 152 0"/></svg>