<svg xmlns="http://www.w3.org/2000/svg" viewBox="0 0 256 256" width="48" height="48"><path fill="#1b1b1d" d="M216 40v184a8 8 0 0 1-16 0v-48h-48a8 8 0 0 1-8-8a268.8 268.8 0 0 1 7.22-56.88c9.78-40.49 28.32-67.63 53.63-78.47A8 8 0 0 1 216 40m-96.11-1.31a8 8 0 1 0-15.78 2.63L111.89 88H88V40a8 8 0 0 0-16 0v48H48.11l7.78-46.68a8 8 0 1 0-15.78-2.63l-8 48A8 8 0 0 0 32 88a48.07 48.07 0 0 0 40 47.32V224a8 8 0 0 0 16 0v-88.68A48.07 48.07 0 0 0 128 88a8 8 0 0 0-.11-1.31Z"/><path fill="#f8e3d2" d="M76 88V40a4 4 0 0 1 8 0v48a4 4 0 0 1-8 0m136-48v184a4 4 0 0 1-8 0v-52h-52a4 4 0 0 1-4-4a264.3 264.3 0 0 1 7.11-55.94c9.47-39.22 27.21-65.41 51.31-75.74A4 4 0 0 1 212 40m-8 6.46c-41.75 23.87-47.19 99.29-47.9 117.54H204Zm-88-7.12a4 4 0 0 0-7.9 1.32l8 47.66a36 36 0 0 1-72 0l8-47.66a4 4 0 0 0-7.9-1.32l-8 48a5 5 0 0 0-.2.66a44.06 44.06 0 0 0 40 43.81V224a4 4 0 0 0 8 0v-92.19A44.06 44.06 0 0 0 124 88a5 5 0 0 0 0-.66Z"/></svg>