<svg xmlns="http://www.w3.org/2000/svg" viewBox="0 0 256 256" width="48" height="48"><path fill="#1b1b1d" d="m241 69.66l-19.34-19.32a8 8 0 0 0-11.32 11.32L229.66 81a8 8 0 0 1 2.34 5.63V168a8 8 0 0 1-16 0v-40a24 24 0 0 0-24-24h-16V56a24 24 0 0 0-24-24H72a24 24 0 0 0-24 24v152H32a8 8 0 0 0 0 16h160a8 8 0 0 0 0-16h-16v-88h16a8 8 0 0 1 8 8v40a24 24 0 0 0 48 0V86.63a23.85 23.85 0 0 0-7-16.97M144 120H80a8 8 0 0 1 0-16h64a8 8 0 0 1 0 16"/><path fill="#d9e6f7" d="m238.14 72.49l-19.31-19.32a4 4 0 0 0-5.66 5.66l19.32 19.31a12 12 0 0 1 3.51 8.49V168a12 12 0 0 1-24 0v-40a20 20 0 0 0-20-20h-20V56a20 20 0 0 0-20-20H72a20 20 0 0 0-20 20v156H32a4 4 0 0 0 0 8h160a4 4 0 0 0 0-8h-20v-96h20a12 12 0 0 1 12 12v40a20 20 0 0 0 40 0V86.63a19.85 19.85 0 0 0-5.86-14.14M60 212V56a12 12 0 0 1 12-12h80a12 12 0 0 1 12 12v156Zm80-100a4 4 0 0 1-4 4H88a4 4 0 0 1 0-8h48a4 4 0 0 1 4 4"/></svg>