<svg xmlns="http://www.w3.org/2000/svg" viewBox="0 0 256 256" width="48" height="48"><path fill="#1b1b1d" d="M240 128a15.85 15.85 0 0 1-4.67 11.28l-96.05 96.06a16 16 0 0 1-22.56 0l-96-96.06a16 16 0 0 1 0-22.56l96.05-96.06a16 16 0 0 1 22.56 0l96.05 96.06A15.85 15.85 0 0 1 240 128"/><path fill="#efe0f6" d="m232.5 119.55l-96.05-96.06a12 12 0 0 0-16.9 0l-96 96.06a12 12 0 0 0 0 16.9l96.05 96.06a12 12 0 0 0 16.9 0l96.05-96.06a12 12 0 0 0 0-16.9Zm-5.66 11.24l-96.05 96.06a4 4 0 0 1-5.58 0l-96-96.06a3.94 3.94 0 0 1 0-5.58l96.05-96.06a4 4 0 0 1 5.58 0l96.05 96.06a3.94 3.94 0 0 1 0 5.58Z"/></svg>