<svg xmlns="http://www.w3.org/2000/svg" viewBox="0 0 256 256" width="48" height="48"><path fill="#1b1b1d" d="M232 72v92a44 44 0 0 1-87.81 4h-32.38A44 44 0 0 1 24 164V72a32 32 0 0 1 32-32a8 8 0 0 1 0 16a16 16 0 0 0-16 16v58.08A44 44 0 0 1 110.32 152h35.36A44 44 0 0 1 216 130.08V72a16 16 0 0 0-16-16a8 8 0 0 1 0-16a32 32 0 0 1 32 32"/><path fill="#f8dee4" d="M200 44a4 4 0 0 0 0 8a20 20 0 0 1 20 20v68a40 40 0 0 0-71.2 16h-41.6A40 40 0 0 0 36 140V72a20 20 0 0 1 20-20a4 4 0 0 0 0-8a28 28 0 0 0-28 28v92a40 40 0 0 0 80 0h40a40 40 0 0 0 80 0V72a28 28 0 0 0-28-28M68 196a32 32 0 1 1 32-32a32 32 0 0 1-32 32m120 0a32 32 0 1 1 32-32a32 32 0 0 1-32 32"/></svg>