<svg xmlns="http://www.w3.org/2000/svg" viewBox="0 0 256 256" width="48" height="48"><path fill="#1b1b1d" d="M128 24a104 104 0 1 0 104 104A104.12 104.12 0 0 0 128 24m78.36 64h-35.65a135.3 135.3 0 0 0-22.3-45.6A88.29 88.29 0 0 1 206.37 88Zm9.64 40a87.6 87.6 0 0 1-3.33 24h-38.51a157.4 157.4 0 0 0 0-48h38.51a87.6 87.6 0 0 1 3.33 24m-88-85a115.3 115.3 0 0 1 26 45h-52a115.1 115.1 0 0 1 26-45m-26 125h52a115.1 115.1 0 0 1-26 45a115.3 115.3 0 0 1-26-45m-3.9-16a140.8 140.8 0 0 1 0-48h59.88a140.8 140.8 0 0 1 0 48Zm50.35 61.6a135.3 135.3 0 0 0 22.3-45.6h35.66a88.29 88.29 0 0 1-58 45.6Z"/><path fill="#eae9ec" d="M128 28a100 100 0 1 0 100 100A100.11 100.11 0 0 0 128 28m0 190.61c-6.33-6.09-23-24.41-31.27-54.61h62.54c-8.27 30.2-24.94 48.52-31.27 54.61M94.82 156a140.4 140.4 0 0 1 0-56h66.36a140.4 140.4 0 0 1 0 56ZM128 37.39c6.33 6.09 23 24.41 31.27 54.61H96.73C105 61.8 121.67 43.48 128 37.39M169.41 100h46.23a92.1 92.1 0 0 1 0 56h-46.23a152.7 152.7 0 0 0 0-56m43.25-8h-45a129.4 129.4 0 0 0-29.19-55.4A92.25 92.25 0 0 1 212.66 92m-95.12-55.4A129.4 129.4 0 0 0 88.35 92h-45a92.25 92.25 0 0 1 74.19-55.4M40.36 100h46.23a152.7 152.7 0 0 0 0 56H40.36a92.1 92.1 0 0 1 0-56m3 64h45a129.4 129.4 0 0 0 29.19 55.4A92.25 92.25 0 0 1 43.34 164Zm95.12 55.4a129.4 129.4 0 0 0 29.17-55.4h45a92.25 92.25 0 0 1-74.19 55.4Z"/></svg>