<svg xmlns="http://www.w3.org/2000/svg" viewBox="0 0 256 256" width="48" height="48"><path fill="#1b1b1d" d="M128 16a88.1 88.1 0 0 0-88 88c0 23.43 9.4 49.42 25.13 69.5c12.08 15.41 26.5 26 41.91 31.09l-10.39 24.26A8 8 0 0 0 104 240h48a8 8 0 0 0 7.35-11.15L149 204.59c15.4-5.07 29.83-15.68 41.91-31.09C206.6 153.42 216 127.43 216 104a88.1 88.1 0 0 0-88-88m49.32 87.89a8.5 8.5 0 0 1-1.32.11a8 8 0 0 1-7.88-6.68a41.29 41.29 0 0 0-33.43-33.43a8 8 0 1 1 2.64-15.78a57.5 57.5 0 0 1 46.57 46.57a8 8 0 0 1-6.58 9.21"/><path fill="#d6eee1" d="M128 20a84.09 84.09 0 0 0-84 84c0 22.57 9.08 47.63 24.28 67c12.68 16.17 28 26.81 44.22 31l-12.18 28.4A4 4 0 0 0 104 236h48a4 4 0 0 0 3.68-5.58L143.5 202c16.23-4.17 31.54-14.81 44.22-31c15.2-19.41 24.28-44.47 24.28-67a84.09 84.09 0 0 0-84-84m17.93 208h-35.86l10.48-24.46a60.6 60.6 0 0 0 14.9 0ZM128 196c-42.1 0-76-50.33-76-92a76 76 0 0 1 152 0c0 41.67-33.9 92-76 92m52-100.66a4 4 0 0 1-3.29 4.61a5 5 0 0 1-.66 0a4 4 0 0 1-3.95-3.34A45.31 45.31 0 0 0 135.34 60a4 4 0 0 1 1.32-7.9A53.46 53.46 0 0 1 180 95.34"/></svg>