<svg xmlns="http://www.w3.org/2000/svg" viewBox="0 0 256 256" width="48" height="48"><path fill="#1b1b1d" d="M128 24A104.12 104.12 0 0 0 24 128v56a24 24 0 0 0 24 24a24.1 24.1 0 0 0 14.18-4.64C74.33 194.53 95.6 184 128 184s53.67 10.52 65.81 19.35A24 24 0 0 0 232 184v-56A104.12 104.12 0 0 0 128 24M40 128a88.15 88.15 0 0 1 69.81-86.1a167 167 0 0 0-28.87 76.76A166 166 0 0 0 40 136.88Zm176 56a7.77 7.77 0 0 1-4.34 7.1a8 8 0 0 1-8.44-.69C189.16 180.2 164.7 168 128 168s-61.16 12.2-75.22 22.42a8 8 0 0 1-8.44.69A7.77 7.77 0 0 1 40 184v-27.93a150.6 150.6 0 0 1 49.93-23.28a7 7 0 0 0 1-.26a154.06 154.06 0 0 1 74.17 0a9 9 0 0 0 1 .27a150.5 150.5 0 0 1 49.9 23.27Zm0-47.13a166 166 0 0 0-40.94-18.22a167 167 0 0 0-28.87-76.75A88.15 88.15 0 0 1 216 128Z"/><path fill="#efe0f6" d="M128 28A100.12 100.12 0 0 0 28 128v56a20 20 0 0 0 31.84 16.12C72.46 191 94.53 180 128 180s55.54 10.94 68.16 20.12a20 20 0 0 0 21 1.67A19.87 19.87 0 0 0 228 184v-56A100.12 100.12 0 0 0 128 28m92 100v16.23a162.3 162.3 0 0 0-48.67-22.47a162.56 162.56 0 0 0-34.15-85.31A92.12 92.12 0 0 1 220 128m-56.9-8.26a166.6 166.6 0 0 0-70.2 0C97.64 76.93 120 47.31 128 38c8 9.32 30.36 38.93 35.1 81.75Zm-44.28-83.28a162.56 162.56 0 0 0-34.15 85.31A162.3 162.3 0 0 0 36 144.24V128a92.12 92.12 0 0 1 82.82-91.54m94.66 158.21a11.88 11.88 0 0 1-12.61-1C187.29 183.78 163.62 172 128 172s-59.29 11.77-72.87 21.65a11.88 11.88 0 0 1-12.61 1A11.75 11.75 0 0 1 36 184v-30a156 156 0 0 1 184 0v30a11.75 11.75 0 0 1-6.52 10.67"/></svg>