<svg xmlns="http://www.w3.org/2000/svg" viewBox="0 0 256 256" width="48" height="48"><path fill="#1b1b1d" d="M232 208a8 8 0 0 1-8 8H32a8 8 0 0 1 0-16h8v-64a8 8 0 0 1 8-8h24a8 8 0 0 1 8 8v64h16V88a8 8 0 0 1 8-8h32a8 8 0 0 1 8 8v112h16V40a8 8 0 0 1 8-8h40a8 8 0 0 1 8 8v160h8a8 8 0 0 1 8 8"/><path fill="#dde3ef" d="M224 204h-12V40a4 4 0 0 0-4-4h-56a4 4 0 0 0-4 4v44H96a4 4 0 0 0-4 4v44H48a4 4 0 0 0-4 4v68H32a4 4 0 0 0 0 8h192a4 4 0 0 0 0-8M156 44h48v160h-48Zm-56 48h48v112h-48Zm-48 48h40v64H52Z"/></svg>