<svg xmlns="http://www.w3.org/2000/svg" viewBox="0 0 256 256" width="48" height="48"><path fill="#1b1b1d" d="M219.31 72L184 36.69A15.86 15.86 0 0 0 172.69 32H48a16 16 0 0 0-16 16v160a16 16 0 0 0 16 16h160a16 16 0 0 0 16-16V83.31A15.86 15.86 0 0 0 219.31 72M208 208h-24v-56a16 16 0 0 0-16-16H88a16 16 0 0 0-16 16v56H48V48h124.69L208 83.31ZM160 72a8 8 0 0 1-8 8H96a8 8 0 0 1 0-16h56a8 8 0 0 1 8 8"/><path fill="#dde7ef" d="m216.49 74.83l-35.32-35.32a11.93 11.93 0 0 0-8.48-3.51H48a12 12 0 0 0-12 12v160a12 12 0 0 0 12 12h160a12 12 0 0 0 12-12V83.31a11.93 11.93 0 0 0-3.51-8.48M172 212H84v-60a4 4 0 0 1 4-4h80a4 4 0 0 1 4 4Zm40-4a4 4 0 0 1-4 4h-28v-60a12 12 0 0 0-12-12H88a12 12 0 0 0-12 12v60H48a4 4 0 0 1-4-4V48a4 4 0 0 1 4-4h124.69a4 4 0 0 1 2.82 1.17l35.32 35.32a4 4 0 0 1 1.17 2.82ZM156 72a4 4 0 0 1-4 4H96a4 4 0 0 1 0-8h56a4 4 0 0 1 4 4"/></svg>