<svg xmlns="http://www.w3.org/2000/svg" viewBox="0 0 256 256" width="48" height="48"><path fill="#1b1b1d" d="m249.66 46.34l-40-40a8 8 0 0 0-11.32 11.32l2.35 2.34l-60.17 60.16c-22.79-11.86-48.31-10.87-63.77 4.58a42.3 42.3 0 0 0-9.39 14.37a8.24 8.24 0 0 1-7.55 4.89c-14.59.49-27.26 5.72-36.65 15.11C11.08 131.22 6 148.6 8.74 168.07C11.4 186.7 21.07 205.15 36 220s33.34 24.56 52 27.22a71 71 0 0 0 10.1.78c15.32 0 28.83-5.23 38.76-15.16c9.39-9.39 14.62-22.06 15.11-36.65a8.24 8.24 0 0 1 4.92-7.55a42.2 42.2 0 0 0 14.37-9.39c15.45-15.46 16.44-41 4.58-63.77L236 55.31l2.34 2.35a8 8 0 0 0 11.32-11.32m-156 159.31a8 8 0 0 1-11.31 0l-32-32a8 8 0 0 1 11.32-11.31l32 32a8 8 0 0 1-.01 11.31m42.14-45.86a28 28 0 1 1 0-39.59a28 28 0 0 1 0 39.59m31.06-58a87 87 0 0 0-6-6.68a85 85 0 0 0-6.69-6L176 67.31L188.69 80ZM200 68.68L187.32 56L212 31.31L224.69 44Z"/><path fill="#f8ecd0" d="m246.83 49.17l-40-40a4 4 0 0 0-5.66 5.66l5.17 5.17l-65.09 65.1c-21.91-12.54-46.89-12.31-61.67 2.47a38.1 38.1 0 0 0-8.5 13A12.24 12.24 0 0 1 59.94 108c-13.55.46-25.29 5.28-34 13.94c-11.12 11.2-15.84 27.37-13.24 45.57c2.54 17.77 11.8 35.42 26.08 49.71s31.94 23.54 49.71 26.08a67.4 67.4 0 0 0 9.59.7c14.25 0 26.79-4.82 36-14c8.66-8.67 13.48-20.41 13.94-34a12.24 12.24 0 0 1 7.45-11.14a38.1 38.1 0 0 0 13-8.5c14.78-14.78 15-39.76 2.47-61.67L236 49.66l5.17 5.17a4 4 0 1 0 5.66-5.66m-84.06 121.59a29.9 29.9 0 0 1-10.3 6.72A20.25 20.25 0 0 0 140 195.79c-.38 11.49-4.39 21.37-11.6 28.57c-9.34 9.34-23.1 13.26-38.75 11c-16.07-2.29-32.11-10.75-45.18-23.82s-21.53-29.11-23.82-45.18c-2.24-15.65 1.68-29.41 11-38.75c7.2-7.21 17.08-11.22 28.57-11.6a20.25 20.25 0 0 0 18.31-12.5a29.9 29.9 0 0 1 6.72-10.3c11.8-11.8 31.84-12 50.14-2.27l-25.09 25.09a28 28 0 1 0 29.7 29.68l25-25.09c9.81 18.3 9.57 38.38-2.23 50.14M112 124a20 20 0 0 1 20 20a20 20 0 1 1-20-20m26.71 11.63a28.06 28.06 0 0 0-18.34-18.34l22-22a74.5 74.5 0 0 1 18.35 18.35ZM158 98a81 81 0 0 0-9.9-8.44L176 61.65L194.34 80l-27.87 27.87A81 81 0 0 0 158 98m42-23.63L181.66 56L212 25.66L230.34 44ZM90.84 197.16a4 4 0 0 1-5.66 5.66l-32-32a4 4 0 0 1 5.66-5.66Z"/></svg>