<svg xmlns="http://www.w3.org/2000/svg" viewBox="0 0 256 256" width="48" height="48"><path fill="#1b1b1d" d="M224 64h-48v-8a24 24 0 0 0-24-24h-48a24 24 0 0 0-24 24v8H32a16 16 0 0 0-16 16v28a4 4 0 0 0 4 4h44V96.27A8.17 8.17 0 0 1 71.47 88A8 8 0 0 1 80 96v16h96V96.27a8.17 8.17 0 0 1 7.47-8.27a8 8 0 0 1 8.53 8v16h44a4 4 0 0 0 4-4V80a16 16 0 0 0-16-16m-64 0H96v-8a8 8 0 0 1 8-8h48a8 8 0 0 1 8 8Zm80 68v60a16 16 0 0 1-16 16H32a16 16 0 0 1-16-16v-60a4 4 0 0 1 4-4h44v16a8 8 0 0 0 8.53 8a8.17 8.17 0 0 0 7.47-8.27V128h96v16a8 8 0 0 0 8.53 8a8.17 8.17 0 0 0 7.47-8.25V128h44a4 4 0 0 1 4 4"/><path fill="#e7e0f7" d="M224 68h-52V56a20 20 0 0 0-20-20h-48a20 20 0 0 0-20 20v12H32a12 12 0 0 0-12 12v112a12 12 0 0 0 12 12h192a12 12 0 0 0 12-12V80a12 12 0 0 0-12-12M92 56a12 12 0 0 1 12-12h48a12 12 0 0 1 12 12v12H92ZM32 76h192a4 4 0 0 1 4 4v36h-40v-12a4 4 0 0 0-8 0v12H76v-12a4 4 0 0 0-8 0v12H28V80a4 4 0 0 1 4-4m192 120H32a4 4 0 0 1-4-4v-68h40v12a4 4 0 0 0 8 0v-12h104v12a4 4 0 0 0 8 0v-12h40v68a4 4 0 0 1-4 4"/></svg>