<svg xmlns="http://www.w3.org/2000/svg" viewBox="0 0 256 256" width="48" height="48"><path fill="#1b1b1d" d="m239.89 198.12l-14.26-120a16 16 0 0 0-16-14.12H176a48 48 0 0 0-96 0H46.33a16 16 0 0 0-16 14.12l-14.26 120A16 16 0 0 0 20 210.6a16.13 16.13 0 0 0 12 5.4h191.92a16.13 16.13 0 0 0 12.08-5.4a16 16 0 0 0 3.89-12.48M96 104a8 8 0 0 1-16 0V88a8 8 0 0 1 16 0Zm32-72a32 32 0 0 1 32 32H96a32 32 0 0 1 32-32m48 72a8 8 0 0 1-16 0V88a8 8 0 0 1 16 0Z"/><path fill="#efe0f6" d="m235.92 198.59l-14.26-120a12 12 0 0 0-12-10.59H172v-4a44 44 0 0 0-88 0v4H46.33a12 12 0 0 0-12 10.59l-14.26 120a12 12 0 0 0 2.93 9.35a12.1 12.1 0 0 0 9.08 4.06h191.84a12.1 12.1 0 0 0 9.06-4.06a12 12 0 0 0 2.94-9.35M92 64a36 36 0 0 1 72 0v4H92Zm135 138.63a4.08 4.08 0 0 1-3.08 1.37H32.08a4.08 4.08 0 0 1-3.08-1.37a3.9 3.9 0 0 1-1-3.09l14.25-120a4 4 0 0 1 4-3.54H84v28a4 4 0 0 0 8 0V76h72v28a4 4 0 0 0 8 0V76h37.67a4 4 0 0 1 4.05 3.54l14.25 120a3.9 3.9 0 0 1-.97 3.09"/></svg>