<svg xmlns="http://www.w3.org/2000/svg" viewBox="0 0 256 256" width="48" height="48"><path fill="#1b1b1d" d="m254.3 107.91l-25.52-51.06a16 16 0 0 0-21.47-7.15l-24.87 12.43l-52.39-13.86a8.14 8.14 0 0 0-4.1 0L73.56 62.13L48.69 49.7a16 16 0 0 0-21.47 7.15L1.7 107.9a16 16 0 0 0 7.15 21.47l27 13.51l55.49 39.63a8.1 8.1 0 0 0 2.71 1.25l64 16a8 8 0 0 0 7.6-2.1l40-40l15.08-15.08l26.42-13.21a16 16 0 0 0 7.15-21.46m-54.89 33.37L165 113.72a8 8 0 0 0-10.68.61C136.51 132.27 116.66 130 104 122l43.24-42h31.81l27.21 54.41Zm-41.87 41.86l-58.12-14.53l-49.2-35.14l28-56L128 64.28l9.8 2.59l-45 43.68l-.08.09a16 16 0 0 0 2.72 24.81c20.56 13.13 45.37 11 64.91-5L188 152.66Zm-25.72 34.8a8 8 0 0 1-7.75 6.06a8 8 0 0 1-1.95-.24l-41.71-10.43a7.9 7.9 0 0 1-2.71-1.25l-26.35-18.82a8 8 0 0 1 9.3-13l25.11 17.94L126 208.24a8 8 0 0 1 5.82 9.7"/><path fill="#d9f0d5" d="m250.73 109.69l-25.53-51a12 12 0 0 0-16.1-5.37l-26.22 13.06L129 52.14a3.9 3.9 0 0 0-2 0L73.12 66.38L46.9 53.27a12 12 0 0 0-16.1 5.37L5.27 109.69a12 12 0 0 0 5.37 16.1l27.29 13.65l55.75 39.82a3.9 3.9 0 0 0 1.35.62l64 16a4 4 0 0 0 3.8-1l55.54-55.54l27-13.5a12 12 0 0 0 5.37-16.1Zm-51 36.95l-37.2-29.8a4 4 0 0 0-5.34.3c-19.49 19.64-41.34 17.11-55.29 8.2a4.07 4.07 0 0 1-1.85-3a3.91 3.91 0 0 1 1.11-3.21L145.62 76h35.91l29.6 59.21ZM12.21 116.32a4 4 0 0 1 .22-3L38 62.22A4 4 0 0 1 41.54 60a4 4 0 0 1 1.78.43l24 12l-29.11 58.21l-24-12a4 4 0 0 1-2-2.32m146.56 71.25L97.71 172.3l-52.6-37.57L75.45 74L128 60.14L157.72 68H144a4 4 0 0 0-2.79 1.13l-45.7 44.33a12 12 0 0 0 2.06 18.62c19.88 12.71 44.13 10 62.66-6.81L194 152.33Zm85-71.25a4 4 0 0 1-2 2.32l-24 12l-29.09-58.21l24-12a4 4 0 0 1 5.32 1.79l25.53 51.05a4 4 0 0 1 .26 3.05ZM127.94 217a4 4 0 0 1-3.88 3a4 4 0 0 1-1-.12l-41.68-10.43a4 4 0 0 1-1.36-.62L53.68 190a4 4 0 0 1 4.65-6.51l25.72 18.37l41 10.25a4 4 0 0 1 2.89 4.89"/></svg>