<svg xmlns="http://www.w3.org/2000/svg" viewBox="0 0 256 256" width="48" height="48"><path fill="#1b1b1d" d="m213.85 125.46l-112 120a8 8 0 0 1-13.69-7l14.66-73.33l-57.63-21.64a8 8 0 0 1-3-13l112-120a8 8 0 0 1 13.69 7l-14.7 73.41l57.63 21.61a8 8 0 0 1 3 12.95Z"/><path fill="#e7e0f7" d="M211.89 119.09a4 4 0 0 0-2.49-2.84l-60.81-22.8l15.33-76.67a4 4 0 0 0-6.84-3.51l-112 120a4 4 0 0 0-1 3.64a4 4 0 0 0 2.49 2.84l60.81 22.8l-15.3 76.67a4 4 0 0 0 6.84 3.51l112-120a4 4 0 0 0 .97-3.64M102.68 227l13.24-66.2a4 4 0 0 0-2.52-4.53L55 134.36L153.32 29l-13.24 66.2a4 4 0 0 0 2.52 4.53l58.4 21.91Z"/></svg>