<svg xmlns="http://www.w3.org/2000/svg" viewBox="0 0 256 256" width="48" height="48"><path fill="#1b1b1d" d="M216 56h-40v-8a24 24 0 0 0-24-24h-48a24 24 0 0 0-24 24v8H40a16 16 0 0 0-16 16v128a16 16 0 0 0 16 16h176a16 16 0 0 0 16-16V72a16 16 0 0 0-16-16m-64 88h-16v16a8 8 0 0 1-16 0v-16h-16a8 8 0 0 1 0-16h16v-16a8 8 0 0 1 16 0v16h16a8 8 0 0 1 0 16m8-88H96v-8a8 8 0 0 1 8-8h48a8 8 0 0 1 8 8Z"/><path fill="#f8dee4" d="M216 60h-44V48a20 20 0 0 0-20-20h-48a20 20 0 0 0-20 20v12H40a12 12 0 0 0-12 12v128a12 12 0 0 0 12 12h176a12 12 0 0 0 12-12V72a12 12 0 0 0-12-12M92 48a12 12 0 0 1 12-12h48a12 12 0 0 1 12 12v12H92Zm128 152a4 4 0 0 1-4 4H40a4 4 0 0 1-4-4V72a4 4 0 0 1 4-4h176a4 4 0 0 1 4 4Zm-64-64a4 4 0 0 1-4 4h-20v20a4 4 0 0 1-8 0v-20h-20a4 4 0 0 1 0-8h20v-20a4 4 0 0 1 8 0v20h20a4 4 0 0 1 4 4"/></svg>