<svg xmlns="http://www.w3.org/2000/svg" viewBox="0 0 256 256" width="48" height="48"><path fill="#1b1b1d" d="M224 120v96a8 8 0 0 1-8 8h-56a8 8 0 0 1-8-8v-52a4 4 0 0 0-4-4h-40a4 4 0 0 0-4 4v52a8 8 0 0 1-8 8H40a8 8 0 0 1-8-8v-96a16 16 0 0 1 4.69-11.31l80-80a16 16 0 0 1 22.62 0l80 80A16 16 0 0 1 224 120"/><path fill="#e7e0f7" d="m216.49 111.51l-80-80a12 12 0 0 0-17 0l-80 80A12 12 0 0 0 36 120v96a4 4 0 0 0 4 4h64a4 4 0 0 0 4-4v-60h40v60a4 4 0 0 0 4 4h64a4 4 0 0 0 4-4v-96a12 12 0 0 0-3.51-8.49M212 212h-56v-60a4 4 0 0 0-4-4h-48a4 4 0 0 0-4 4v60H44v-92a4 4 0 0 1 1.17-2.83l80-80a4 4 0 0 1 5.66 0l80 80A4 4 0 0 1 212 120Z"/></svg>