<svg xmlns="http://www.w3.org/2000/svg" viewBox="0 0 256 256" width="48" height="48"><path fill="#1b1b1d" d="M239.73 208H224V96a16 16 0 0 0-16-16h-44a4 4 0 0 0-4 4v124h-16V32.41a16.43 16.43 0 0 0-6.16-13a16 16 0 0 0-18.72-.69L39.12 72A16 16 0 0 0 32 85.34V208H16.27A8.18 8.18 0 0 0 8 215.47a8 8 0 0 0 8 8.53h224a8 8 0 0 0 8-8.53a8.18 8.18 0 0 0-8.27-7.47M76 184a8 8 0 0 1-8.53 8a8.18 8.18 0 0 1-7.47-8.28v-15.45a8.19 8.19 0 0 1 7.47-8.27a8 8 0 0 1 8.53 8Zm0-56a8 8 0 0 1-8.53 8a8.19 8.19 0 0 1-7.47-8.28v-15.45a8.19 8.19 0 0 1 7.47-8.27a8 8 0 0 1 8.53 8Zm40 56a8 8 0 0 1-8.53 8a8.18 8.18 0 0 1-7.47-8.26v-15.47a8.19 8.19 0 0 1 7.47-8.26a8 8 0 0 1 8.53 8Zm0-56a8 8 0 0 1-8.53 8a8.19 8.19 0 0 1-7.47-8.26v-15.47a8.19 8.19 0 0 1 7.47-8.26a8 8 0 0 1 8.53 8Z"/><path fill="#e7e0f7" d="M240 212h-20V96a12 12 0 0 0-12-12h-68V32a12 12 0 0 0-18.66-10l-80 53.33a12 12 0 0 0-5.34 10V212H16a4 4 0 0 0 0 8h224a4 4 0 0 0 0-8M208 92a4 4 0 0 1 4 4v116h-72V92ZM44 85.34A4 4 0 0 1 45.78 82l80-53.33A4 4 0 0 1 132 32v180H44ZM108 112v16a4 4 0 0 1-8 0v-16a4 4 0 0 1 8 0m-32 0v16a4 4 0 0 1-8 0v-16a4 4 0 0 1 8 0m0 56v16a4 4 0 0 1-8 0v-16a4 4 0 0 1 8 0m32 0v16a4 4 0 0 1-8 0v-16a4 4 0 0 1 8 0"/></svg>