<svg xmlns="http://www.w3.org/2000/svg" viewBox="0 0 256 256" width="48" height="48"><path fill="#1b1b1d" d="M240 96v80a8 8 0 0 1-8 8h-32v32a8 8 0 0 1-8 8H64a8 8 0 0 1-8-8v-32H24a8 8 0 0 1-8-8V96c0-13.23 11.36-24 25.33-24H56V40a8 8 0 0 1 8-8h128a8 8 0 0 1 8 8v32h14.67C228.64 72 240 82.77 240 96M72 72h112V48H72Zm112 88H72v48h112Zm16-44a12 12 0 1 0-12 12a12 12 0 0 0 12-12"/><path fill="#dde7ef" d="M214.67 76H196V40a4 4 0 0 0-4-4H64a4 4 0 0 0-4 4v36H41.33C29.57 76 20 85 20 96v80a4 4 0 0 0 4 4h36v36a4 4 0 0 0 4 4h128a4 4 0 0 0 4-4v-36h36a4 4 0 0 0 4-4V96c0-11-9.57-20-21.33-20M68 44h120v32H68Zm120 168H68v-56h120Zm40-40h-32v-20a4 4 0 0 0-4-4H64a4 4 0 0 0-4 4v20H28V96c0-6.62 6-12 13.33-12h173.34C222 84 228 89.38 228 96Zm-32-56a8 8 0 1 1-8-8a8 8 0 0 1 8 8"/></svg>