<svg xmlns="http://www.w3.org/2000/svg" viewBox="0 0 256 256" width="48" height="48"><path fill="#1b1b1d" d="m53.44 43.5l.68-5.5A16 16 0 0 1 70 24h116a16 16 0 0 1 15.88 14l.68 5.49a4 4 0 0 1-4 4.5H57.41a4 4 0 0 1-3.97-4.49M169 64a32.06 32.06 0 0 0 31 24h3.59a4 4 0 0 0 4-4.5l-2-16a4 4 0 0 0-4-3.5ZM52.41 88H56a32.06 32.06 0 0 0 31-24H54.41a4 4 0 0 0-4 3.5l-2 16a4 4 0 0 0 4 4.5m171.47 126l-13.32-106.5a4 4 0 0 0-4-3.5H200a48.07 48.07 0 0 1-47.32-40H136v39.73a8.18 8.18 0 0 1-7.47 8.25a8 8 0 0 1-8.53-8V64h-16.68A48.07 48.07 0 0 1 56 104h-6.59a4 4 0 0 0-4 3.5L32.12 214a16 16 0 0 0 6.71 15.09a16.56 16.56 0 0 0 9.56 2.91h40.3a16 16 0 0 0 15.51-12.06l23.8-92l23.79 91.94A16 16 0 0 0 167.31 232h40.3a16.54 16.54 0 0 0 9.56-2.89a16 16 0 0 0 6.71-15.11"/><path fill="#efe0f6" d="m219.91 214.51l-22-176A12 12 0 0 0 186 28H70a12 12 0 0 0-11.91 10.51l-22 176A12 12 0 0 0 48 228h40.69a12 12 0 0 0 11.64-9.06L128 112l27.67 106.94a12 12 0 0 0 11.64 9.06H208a12 12 0 0 0 11.91-13.49M197.52 99.9A36 36 0 0 1 164.23 68h29.3ZM70 36h116a4 4 0 0 1 4 3.5l2.53 20.5H63.47L66 39.5a4 4 0 0 1 4-3.5m-7.53 32h29.3a36 36 0 0 1-33.29 31.9Zm30.1 149a4 4 0 0 1-3.88 3H48a4 4 0 0 1-4-4.5L57.47 108a44.05 44.05 0 0 0 42.34-40H124v27.49ZM211 218.65a4 4 0 0 1-3 1.35h-40.69a4 4 0 0 1-3.89-3.06L132 95.49V68h24.19a44.05 44.05 0 0 0 42.34 40L212 215.5a4 4 0 0 1-1 3.15"/></svg>