<svg xmlns="http://www.w3.org/2000/svg" viewBox="0 0 256 256" width="48" height="48"><path fill="#1b1b1d" d="M243.31 136L144 36.69A15.86 15.86 0 0 0 132.69 32H40a8 8 0 0 0-8 8v92.69A15.86 15.86 0 0 0 36.69 144L136 243.31a16 16 0 0 0 22.63 0l84.68-84.68a16 16 0 0 0 0-22.63M84 96a12 12 0 1 1 12-12a12 12 0 0 1-12 12"/><path fill="#eae9ec" d="m240.49 138.83l-99.32-99.32a11.93 11.93 0 0 0-8.48-3.51H40a4 4 0 0 0-4 4v92.69a11.93 11.93 0 0 0 3.51 8.48l99.32 99.32a12 12 0 0 0 17 0l84.69-84.69a12 12 0 0 0 0-17Zm-5.66 11.31l-84.69 84.69a4 4 0 0 1-5.65 0l-99.32-99.32a4 4 0 0 1-1.17-2.82V44h88.69a4 4 0 0 1 2.82 1.17l99.32 99.32a4 4 0 0 1 0 5.65M92 84a8 8 0 1 1-8-8a8 8 0 0 1 8 8"/></svg>