<svg xmlns="http://www.w3.org/2000/svg" viewBox="0 0 256 256" width="48" height="48"><path fill="#1b1b1d" d="M232 168h-8V72a24 24 0 0 0-24-24H56a24 24 0 0 0-24 24v96h-8a8 8 0 0 0-8 8v16a24 24 0 0 0 24 24h176a24 24 0 0 0 24-24v-16a8 8 0 0 0-8-8M112 72h32a8 8 0 0 1 0 16h-32a8 8 0 0 1 0-16m112 120a8 8 0 0 1-8 8H40a8 8 0 0 1-8-8v-8h192Z"/><path fill="#e4eed3" d="M232 172h-12V72a20 20 0 0 0-20-20H56a20 20 0 0 0-20 20v100H24a4 4 0 0 0-4 4v16a20 20 0 0 0 20 20h176a20 20 0 0 0 20-20v-16a4 4 0 0 0-4-4M44 72a12 12 0 0 1 12-12h144a12 12 0 0 1 12 12v100H44Zm184 120a12 12 0 0 1-12 12H40a12 12 0 0 1-12-12v-12h200ZM148 88a4 4 0 0 1-4 4h-32a4 4 0 0 1 0-8h32a4 4 0 0 1 4 4"/></svg>