<svg xmlns="http://www.w3.org/2000/svg" viewBox="0 0 256 256" width="48" height="48"><path fill="#1b1b1d" d="M240 102c0 70-103.79 126.66-108.21 129a8 8 0 0 1-7.58 0c-3.35-1.8-63.55-34.69-92.68-80.89a4 4 0 0 1 3.39-6.11H72a8 8 0 0 0 6.66-3.56l9.34-14l25.34 38a8 8 0 0 0 9.16 3.16a8.23 8.23 0 0 0 4.28-3.34l13.5-20.26H160a8 8 0 0 0 8-8.53a8.18 8.18 0 0 0-8.25-7.47H136a8 8 0 0 0-6.66 3.56l-9.34 14l-25.34-38a8 8 0 0 0-9.17-3.16a8.25 8.25 0 0 0-4.27 3.34L67.72 128H23.53a4 4 0 0 1-3.83-2.81A77 77 0 0 1 16 102a62.07 62.07 0 0 1 62-62c20.65 0 38.73 8.88 50 23.89C139.27 48.88 157.35 40 178 40a62.07 62.07 0 0 1 62 62"/><path fill="#f8dee4" d="M72 140H32a4 4 0 0 1 0-8h37.86l14.81-22.22a4 4 0 0 1 6.66 0l28.67 43l12.67-19A4 4 0 0 1 136 132h24a4 4 0 0 1 0 8h-21.86l-14.81 22.22a4 4 0 0 1-6.66 0L88 119.21l-12.67 19A4 4 0 0 1 72 140m106-96c-21.44 0-39.92 10.19-50 27.07C117.92 54.19 99.44 44 78 44a58.07 58.07 0 0 0-58 58v2.13a4 4 0 1 0 8-.26V102a50.06 50.06 0 0 1 50-50c21.11 0 38.85 11.31 46.3 29.51a4 4 0 0 0 7.4 0C139.15 63.31 156.89 52 178 52a50.06 50.06 0 0 1 50 50c0 58-86 109.46-100 117.42c-8.47-4.82-43.5-25.61-69.63-54.12a4 4 0 0 0-5.9 5.4c30.72 33.52 71.9 55.89 73.63 56.82a4 4 0 0 0 3.8 0a334 334 0 0 0 52.7-36.73C218 160.47 236 130.59 236 102a58.07 58.07 0 0 0-58-58"/></svg>