<svg xmlns="http://www.w3.org/2000/svg" viewBox="0 0 256 256" width="48" height="48"><path fill="#1b1b1d" d="M200 40a8 8 0 0 0 0 16a16 16 0 0 1 16 16v56H40V72a16 16 0 0 1 16-16a8 8 0 0 0 0-16a32 32 0 0 0-32 32v92a44 44 0 0 0 88 0v-20h32v20a44 44 0 0 0 88 0V72a32 32 0 0 0-32-32M91.22 179.22a8 8 0 0 1-11.31 0l-21.57-21.56a8 8 0 0 1 11.32-11.32l21.56 21.57a8 8 0 0 1 0 11.31m120 0a8 8 0 0 1-11.31 0l-21.57-21.56a8 8 0 0 1 11.32-11.32l21.56 21.57a8 8 0 0 1 0 11.31"/><path fill="#efe0f6" d="M200 44a4 4 0 0 0 0 8a20 20 0 0 1 20 20v60H36V72a20 20 0 0 1 20-20a4 4 0 0 0 0-8a28 28 0 0 0-28 28v92a40 40 0 0 0 80 0v-24h40v24a40 40 0 0 0 80 0V72a28 28 0 0 0-28-28M36 164v-24h2.34l49.27 49.26A32 32 0 0 1 36 164m64 0a31.83 31.83 0 0 1-6.74 19.61L49.66 140H100Zm56 0v-24h2.34l49.27 49.26A32 32 0 0 1 156 164m57.26 19.61L169.66 140H220v24a31.83 31.83 0 0 1-6.74 19.61"/></svg>