<svg xmlns="http://www.w3.org/2000/svg" viewBox="0 0 256 256" width="48" height="48"><path fill="#1b1b1d" d="M176 232a8 8 0 0 1-8 8H88a8 8 0 0 1 0-16h80a8 8 0 0 1 8 8m40-128a87.55 87.55 0 0 1-33.64 69.21A16.24 16.24 0 0 0 176 186v6a16 16 0 0 1-16 16H96a16 16 0 0 1-16-16v-6a16 16 0 0 0-6.23-12.66A87.59 87.59 0 0 1 40 104.49C39.74 56.83 78.26 17.14 125.88 16A88 88 0 0 1 216 104m-32.11-9.34a57.6 57.6 0 0 0-46.56-46.55a8 8 0 0 0-2.66 15.78c16.57 2.79 30.63 16.85 33.44 33.45A8 8 0 0 0 176 104a9 9 0 0 0 1.35-.11a8 8 0 0 0 6.54-9.23"/><path fill="#eae9ec" d="M172 232a4 4 0 0 1-4 4H88a4 4 0 0 1 0-8h80a4 4 0 0 1 4 4m40-128a83.59 83.59 0 0 1-32.11 66.06A20.2 20.2 0 0 0 172 186v6a12 12 0 0 1-12 12H96a12 12 0 0 1-12-12v-6a20 20 0 0 0-7.76-15.81A83.58 83.58 0 0 1 44 104.47C43.75 59 80.52 21.09 126 20a84 84 0 0 1 86 84m-8 0a76 76 0 0 0-77.83-76C85 29 51.77 63.27 52 104.43a75.62 75.62 0 0 0 29.17 59.43A28 28 0 0 1 92 186v6a4 4 0 0 0 4 4h64a4 4 0 0 0 4-4v-6a28.14 28.14 0 0 1 10.94-22.2A75.62 75.62 0 0 0 204 104m-67.34-51.94a4 4 0 0 0-1.32 7.88C153.53 63 169 78.45 172.06 96.67A4 4 0 0 0 176 100a4 4 0 0 0 .67-.06a4 4 0 0 0 3.27-4.61a53.51 53.51 0 0 0-43.28-43.27"/></svg>