<svg xmlns="http://www.w3.org/2000/svg" viewBox="0 0 256 256" width="48" height="48"><path fill="#1b1b1d" d="M232 32a8 8 0 0 0-8-8c-44.08 0-89.31 49.71-114.43 82.63A60 60 0 0 0 32 164c0 30.88-19.54 44.73-20.47 45.37A8 8 0 0 0 16 224h76a60 60 0 0 0 57.37-77.57C182.3 121.31 232 76.08 232 32m-107.58 81.55q5.14-6.66 10.09-12.55A76.2 76.2 0 0 1 155 121.49q-5.9 4.94-12.55 10.09a60.5 60.5 0 0 0-18.03-18.03m42.7-2.68a92.6 92.6 0 0 0-22-22c31.78-34.53 55.75-45 69.9-47.91c-2.85 14.16-13.37 38.13-47.9 69.91"/><path fill="#efe0f6" d="M224 28c-20.29 0-43.16 11.24-68 33.4c-18.47 16.49-34.39 35.83-45 49.93A56 56 0 0 0 36 164c0 33.22-21.26 48-22.22 48.68A4 4 0 0 0 16 220h76a56 56 0 0 0 52.67-75c14.11-10.63 33.44-26.55 49.93-45C216.76 75.16 228 52.29 228 32a4 4 0 0 0-4-4M92 212H26.35C33.91 203.69 44 188.08 44 164a48 48 0 1 1 48 48m26.52-97.31c4.13-5.44 9.32-12 15.29-18.9a80.1 80.1 0 0 1 26.4 26.4c-6.94 6-13.46 11.16-18.9 15.29a56.3 56.3 0 0 0-22.79-22.79m47.77 2.14a88.2 88.2 0 0 0-27.12-27.12c21.83-24.28 52.09-51.08 80.65-53.53c-2.45 28.56-29.25 58.82-53.53 80.65"/></svg>