<svg xmlns="http://www.w3.org/2000/svg" viewBox="0 0 256 256" width="48" height="48"><path fill="#1b1b1d" d="M216 56h-40v-8a24 24 0 0 0-24-24h-48a24 24 0 0 0-24 24v8H40a16 16 0 0 0-16 16v128a16 16 0 0 0 16 16h176a16 16 0 0 0 16-16V72a16 16 0 0 0-16-16M96 72h64v128H96Zm0-24a8 8 0 0 1 8-8h48a8 8 0 0 1 8 8v8H96Z"/><path fill="#d4edf3" d="M216 60h-44V48a20 20 0 0 0-20-20h-48a20 20 0 0 0-20 20v12H40a12 12 0 0 0-12 12v128a12 12 0 0 0 12 12h176a12 12 0 0 0 12-12V72a12 12 0 0 0-12-12M84 204H40a4 4 0 0 1-4-4V72a4 4 0 0 1 4-4h44Zm80 0H92V68h72Zm0-144H92V48a12 12 0 0 1 12-12h48a12 12 0 0 1 12 12Zm56 140a4 4 0 0 1-4 4h-44V68h44a4 4 0 0 1 4 4Z"/></svg>