<svg xmlns="http://www.w3.org/2000/svg" viewBox="0 0 256 256" width="48" height="48"><path fill="#1b1b1d" d="m251.34 112l-67.46-67.92a96.1 96.1 0 0 0-135.77 0l-.09.09L34.25 58.4a8 8 0 0 0 11.49 11.13l13.73-14.18a80 80 0 0 1 18.71-13.9L124.68 88l-96 96a16 16 0 0 0 0 22.63l20.69 20.69a16 16 0 0 0 22.63 0l96-96l32 32a16 16 0 0 0 22.63 0l28.69-28.69a16 16 0 0 0 .02-22.63m-89 2.33L140 136.67L119.31 116l22.35-22.35a8 8 0 0 0 0-11.32L94.32 35a80 80 0 0 1 78.23 20.41l44.22 44.51L188 128.66l-14.34-14.34a8 8 0 0 0-11.32 0Zm49 37.66l-12-12L228 111.25l12 12Z"/><path fill="#e7e0f7" d="M248.5 114.81L181.05 46.9A92.1 92.1 0 0 0 50.9 47L37.12 61.18a4 4 0 1 0 5.75 5.56L56.6 52.56a83.8 83.8 0 0 1 22.34-16L130.34 88l-98.83 98.82a12 12 0 0 0 0 17l20.69 20.66a12 12 0 0 0 17 0l98.8-98.85l17.17 17.18l17.66 17.66a12 12 0 0 0 17 0l28.69-28.69a12 12 0 0 0-.02-16.97m-185 104a4 4 0 0 1-5.66 0l-20.67-20.67a4 4 0 0 1 0-5.66L108 121.63L134.34 148Zm101.67-101.66L140 142.32L113.65 116l25.18-25.2a4 4 0 0 0 0-5.66l-52-52a84.11 84.11 0 0 1 88.52 19.38l47 47.35L188 134.32l-17.17-17.17a4 4 0 0 0-5.66 0m77.66 9l-28.68 28.69a4 4 0 0 1-5.66 0L193.66 140l34.39-34.4l14.78 14.88a4 4 0 0 1 0 5.64Z"/></svg>