<svg xmlns="http://www.w3.org/2000/svg" viewBox="0 0 256 256" width="48" height="48"><path fill="#1b1b1d" d="M184 24H72a32 32 0 0 0-32 32v128a32 32 0 0 0 32 32h8l-14.4 19.2a8 8 0 1 0 12.8 9.6L100 216h56l21.6 28.8a8 8 0 1 0 12.8-9.6L176 216h8a32 32 0 0 0 32-32V56a32 32 0 0 0-32-32M84 184a12 12 0 1 1 12-12a12 12 0 0 1-12 12m36-64H56V80h64Zm52 64a12 12 0 1 1 12-12a12 12 0 0 1-12 12m28-64h-64V80h64Z"/><path fill="#d9e6f7" d="M184 28H72a28 28 0 0 0-28 28v128a28 28 0 0 0 28 28h16l-19.2 25.6a4 4 0 1 0 6.4 4.8L98 212h60l22.8 30.4a4 4 0 0 0 6.4-4.8L168 212h16a28 28 0 0 0 28-28V56a28 28 0 0 0-28-28M52 124V76h72v48Zm80-48h72v48h-72ZM72 36h112a20 20 0 0 1 20 20v12H52V56a20 20 0 0 1 20-20m112 168H72a20 20 0 0 1-20-20v-52h152v52a20 20 0 0 1-20 20m-92-32a8 8 0 1 1-8-8a8 8 0 0 1 8 8m88 0a8 8 0 1 1-8-8a8 8 0 0 1 8 8"/></svg>