<svg xmlns="http://www.w3.org/2000/svg" viewBox="0 0 256 256" width="48" height="48"><path fill="#1b1b1d" d="M176 16H80a24 24 0 0 0-24 24v176a24 24 0 0 0 24 24h96a24 24 0 0 0 24-24V40a24 24 0 0 0-24-24M80 32h96a8 8 0 0 1 8 8v8H72v-8a8 8 0 0 1 8-8m96 192H80a8 8 0 0 1-8-8v-8h112v8a8 8 0 0 1-8 8"/><path fill="#e7e0f7" d="M176 20H80a20 20 0 0 0-20 20v176a20 20 0 0 0 20 20h96a20 20 0 0 0 20-20V40a20 20 0 0 0-20-20M68 60h120v136H68Zm12-32h96a12 12 0 0 1 12 12v12H68V40a12 12 0 0 1 12-12m96 200H80a12 12 0 0 1-12-12v-12h120v12a12 12 0 0 1-12 12"/></svg>