<svg xmlns="http://www.w3.org/2000/svg" viewBox="0 0 256 256" width="48" height="48"><path fill="#1b1b1d" d="M168 128a40 40 0 1 1-40-40a40 40 0 0 1 40 40m80-64v128a8 8 0 0 1-8 8H16a8 8 0 0 1-8-8V64a8 8 0 0 1 8-8h224a8 8 0 0 1 8 8m-16 46.35A56.78 56.78 0 0 1 193.65 72H62.35A56.78 56.78 0 0 1 24 110.35v35.3A56.78 56.78 0 0 1 62.35 184h131.3A56.78 56.78 0 0 1 232 145.65Z"/><path fill="#d9f0d5" d="M128 164a36 36 0 1 0-36-36a36 36 0 0 0 36 36m0-64a28 28 0 1 1-28 28a28 28 0 0 1 28-28m112-40H16a4 4 0 0 0-4 4v128a4 4 0 0 0 4 4h224a4 4 0 0 0 4-4V64a4 4 0 0 0-4-4M20 107.26A52.75 52.75 0 0 0 59.26 68h137.48A52.75 52.75 0 0 0 236 107.26v41.48A52.75 52.75 0 0 0 196.74 188H59.26A52.75 52.75 0 0 0 20 148.74ZM236 99a44.8 44.8 0 0 1-31-31h31ZM51 68a44.8 44.8 0 0 1-31 31V68Zm-31 89a44.8 44.8 0 0 1 31 31H20Zm185 31a44.8 44.8 0 0 1 31-31v31Z"/></svg>