<svg xmlns="http://www.w3.org/2000/svg" viewBox="0 0 256 256" width="48" height="48"><path fill="#1b1b1d" d="M184 89.57V84c0-25.08-37.83-44-88-44S8 58.92 8 84v40c0 20.89 26.25 37.49 64 42.46V172c0 25.08 37.83 44 88 44s88-18.92 88-44v-40c0-20.7-25.42-37.32-64-42.43m-128 57.3C36.41 141.4 24 132.39 24 124v-14.07c8.16 5.78 19.09 10.44 32 13.57Zm80-23.37c12.91-3.13 23.84-7.79 32-13.57V124c0 8.39-12.41 17.4-32 22.87Zm-16 71.37c-19.59-5.47-32-14.48-32-22.87v-4.17c2.63.1 5.29.17 8 .17c3.88 0 7.67-.13 11.39-.35a122 122 0 0 0 12.61 3.76Zm0-44.62A163 163 0 0 1 96 152a163 163 0 0 1-24-1.75v-23.79A184 184 0 0 0 96 128a184 184 0 0 0 24-1.54Zm64 48a165.5 165.5 0 0 1-48 0V174.4a179.5 179.5 0 0 0 24 1.6a184 184 0 0 0 24-1.54ZM232 172c0 8.39-12.41 17.4-32 22.87V171.5c12.91-3.13 23.84-7.79 32-13.57Z"/><path fill="#d9f0d5" d="M180 93.11V84c0-22.43-36.9-40-84-40S12 61.57 12 84v40c0 19.14 26.86 34.72 64 38.89V172c0 22.43 36.9 40 84 40s84-17.57 84-40v-40c0-18.88-26.13-34.63-64-38.89M236 132c0 15.45-30.54 32-76 32a165.7 165.7 0 0 1-28-2.34v-1.39c28.61-6.31 48-20 48-36.27v-22.83c32.22 3.83 56 16.76 56 30.83m-127.81 23.59Q102.3 156 96 156c-5.47 0-10.72-.25-15.73-.69H80q-6.24-.57-12-1.56V121.8a175 175 0 0 0 28 2.2a175 175 0 0 0 28-2.2v31.92a155 155 0 0 1-15.52 1.85ZM172 101.32V124c0 10.88-15.16 22.3-40 28.11v-31.84c17.63-3.89 31.75-10.58 40-18.95M96 52c45.46 0 76 16.55 76 32s-30.54 32-76 32s-76-16.55-76-32s30.54-32 76-32m-76 72v-22.68c8.25 8.37 22.37 15.06 40 19v31.84C35.16 146.3 20 134.88 20 124m64 48v-8.4c3.91.26 7.92.4 12 .4s8.06-.14 12-.39a124 124 0 0 0 16 4.63v31.87C99.16 194.3 84 182.88 84 172m48 29.72v-31.95a174.5 174.5 0 0 0 28 2.23a175 175 0 0 0 28-2.2v31.92a173 173 0 0 1-56 0M236 172c0 10.88-15.16 22.3-40 28.11v-31.84c17.63-3.89 31.75-10.58 40-19Z"/></svg>