<svg xmlns="http://www.w3.org/2000/svg" viewBox="0 0 256 256" width="48" height="48"><path fill="#1b1b1d" d="M208 40H48a24 24 0 0 0-24 24v112a24 24 0 0 0 24 24h72v16H96a8 8 0 0 0 0 16h64a8 8 0 0 0 0-16h-24v-16h72a24 24 0 0 0 24-24V64a24 24 0 0 0-24-24m0 144H48a8 8 0 0 1-8-8v-16h176v16a8 8 0 0 1-8 8"/><path fill="#dde3ef" d="M208 44H48a20 20 0 0 0-20 20v112a20 20 0 0 0 20 20h76v24H96a4 4 0 0 0 0 8h64a4 4 0 0 0 0-8h-28v-24h76a20 20 0 0 0 20-20V64a20 20 0 0 0-20-20M48 52h160a12 12 0 0 1 12 12v84H36V64a12 12 0 0 1 12-12m160 136H48a12 12 0 0 1-12-12v-20h184v20a12 12 0 0 1-12 12"/></svg>