<svg xmlns="http://www.w3.org/2000/svg" viewBox="0 0 256 256" width="48" height="48"><path fill="#1b1b1d" d="M244 172a32 32 0 1 1-49.38-26.85l-9-26.89l-51.46 62.81A8 8 0 0 1 128 184H73.66a32 32 0 1 1 2.08-16h48.47l55.46-67.69L162.23 48H136a8 8 0 0 1 0-16h32a8 8 0 0 1 7.59 5.47l34.21 102.61c.72-.05 1.46-.08 2.2-.08a32 32 0 0 1 32 32"/><path fill="#d9e6f7" d="M212 140a31.3 31.3 0 0 0-6.24.62l-34-101.88A4 4 0 0 0 168 36h-32a4 4 0 0 0 0 8h29.12l19 57.14l-58 70.86H76a32 32 0 1 0-1 8h53a4 4 0 0 0 3.09-1.46l56.06-68.43l11 33A32 32 0 1 0 212 140M44 196a24 24 0 1 1 24-24a24 24 0 0 1-24 24m168 0a24 24 0 1 1 24-24a24 24 0 0 1-24 24"/></svg>