<svg xmlns="http://www.w3.org/2000/svg" viewBox="0 0 256 256" width="48" height="48"><path fill="#1b1b1d" d="m254.88 195.92l-54.56-92.08A15.87 15.87 0 0 0 186.55 96a15.85 15.85 0 0 0-13.76 7.84l-15.64 26.39a4 4 0 0 0 0 4.07l26.8 45.47a8.13 8.13 0 0 1-1.89 10.55a8 8 0 0 1-11.8-2.26L101.79 71.88a16 16 0 0 0-27.58 0L1.11 195.94a8 8 0 0 0 1 9.52A8.23 8.23 0 0 0 8.23 208h239.54a8.3 8.3 0 0 0 6.09-2.55a8 8 0 0 0 1.02-9.53M64.43 120L88 80l23.57 40ZM140 52a24 24 0 1 1 24 24a24 24 0 0 1-24-24"/><path fill="#d4edf3" d="M164 76a24 24 0 1 0-24-24a24 24 0 0 0 24 24m0-40a16 16 0 1 1-16 16a16 16 0 0 1 16-16m87.44 162l-54.56-92.08a11.91 11.91 0 0 0-10.33-5.92a11.89 11.89 0 0 0-10.32 5.88l-29.61 50l-48.28-81.97a12 12 0 0 0-20.68 0L4.55 198A4 4 0 0 0 8 204h240a4 4 0 0 0 3.44-6M84.55 78a4 4 0 0 1 6.9 0l27.12 46H57.43ZM15 196l37.71-64h70.58L161 196Zm155.29 0l-19-32.29L183.11 110a4 4 0 0 1 6.88 0l51 86Z"/></svg>