<svg xmlns="http://www.w3.org/2000/svg" viewBox="0 0 256 256" width="48" height="48"><path fill="#1b1b1d" d="M216 128a39 39 0 0 0-6.27.5l-34.24-91.31A8 8 0 0 0 168 32h-32a8 8 0 0 0 0 16h26.46l32.3 86.13a40.13 40.13 0 0 0-18 25.87h-40.22l-25-66.81A8 8 0 0 0 104 88H24a8 8 0 0 0 0 16h8v13.39A56.12 56.12 0 0 0 0 168a8 8 0 0 0 8 8h8.8a40 40 0 0 0 78.4 0h81.6a40 40 0 1 0 39.2-48M56 192a24 24 0 0 1-22.62-16h45.24A24 24 0 0 1 56 192m160 0a24 24 0 0 1-15.43-42.36l7.94 21.17a8 8 0 0 0 15-5.62L215.55 144h.45a24 24 0 0 1 0 48"/><path fill="#d9e6f7" d="M216 132a35.7 35.7 0 0 0-8.82 1.1l-35.43-94.5A4 4 0 0 0 168 36h-32a4 4 0 0 0 0 8h29.23l34.47 91.92A36.06 36.06 0 0 0 180.23 164h-46.46l-26-69.4A4 4 0 0 0 104 92H24a4 4 0 0 0 0 8h12v20a52.1 52.1 0 0 0-32 48a4 4 0 0 0 4 4h12.23a36 36 0 0 0 71.54 0h88.46A36 36 0 1 0 216 132m-174.67-5.5a4 4 0 0 0 2.67-3.77V100h57.23l24 64h-113a44.1 44.1 0 0 1 29.1-37.5M56 196a28 28 0 0 1-27.71-24h55.42A28 28 0 0 1 56 196m160 0a28 28 0 0 1-13.47-52.54l9.72 25.94a4 4 0 1 0 7.5-2.8L210 140.65a28 28 0 1 1 6 55.35"/></svg>