<svg xmlns="http://www.w3.org/2000/svg" viewBox="0 0 256 256" width="48" height="48"><path fill="#1b1b1d" d="M239 188.08L173.68 72h58a8.17 8.17 0 0 0 8.32-7.47a8 8 0 0 0-8-8.53H24.27A8.17 8.17 0 0 0 16 63.47A8 8 0 0 0 24 72h58.32L17 188.08a8 8 0 0 0 1.17 9.43a8.24 8.24 0 0 0 6 2.49H116a4 4 0 0 0 4-4v-19.73a8.17 8.17 0 0 1 7.47-8.25a8 8 0 0 1 8.53 8v20a4 4 0 0 0 4 4h91.77a8.24 8.24 0 0 0 6-2.49a8 8 0 0 0 1.23-9.45M136 140a8 8 0 0 1-16 0v-16a8 8 0 0 1 16 0Zm0-52a8 8 0 0 1-16 0v-8a8 8 0 0 1 16 0Z"/><path fill="#d9e6f7" d="M235.49 190a4 4 0 0 1-1.53 5.45a4.07 4.07 0 0 1-2 .51a4 4 0 0 1-3.49-2L157.66 68H132v12a4 4 0 0 1-8 0V68H98.34L27.49 194a4 4 0 0 1-3.49 2a4.07 4.07 0 0 1-2-.51a4 4 0 0 1-1.49-5.49L89.16 68H24a4 4 0 0 1 0-8h208a4 4 0 0 1 0 8h-65.16ZM128 116a4 4 0 0 0-4 4v16a4 4 0 0 0 8 0v-16a4 4 0 0 0-4-4m0 56a4 4 0 0 0-4 4v16a4 4 0 0 0 8 0v-16a4 4 0 0 0-4-4"/></svg>