<svg xmlns="http://www.w3.org/2000/svg" viewBox="0 0 256 256" width="48" height="48"><path fill="#1b1b1d" d="M230.64 25.36a32 32 0 0 0-45.26 0q-.21.21-.42.45l-53.41 62.41L121 77.64a24 24 0 0 0-33.95 0l-76.69 76.7a8 8 0 0 0 0 11.31l80 80a8 8 0 0 0 11.31 0L178.36 169a24 24 0 0 0 0-33.95l-10.58-10.57L230.19 71c.15-.14.31-.28.45-.43a32 32 0 0 0 0-45.21M96 228.69L79.32 212l22.34-22.35a8 8 0 0 0-11.31-11.31L68 200.68L55.32 188l22.34-22.35a8 8 0 0 0-11.31-11.31L44 176.68L27.31 160l50.35-50.34l68.69 68.69Z"/><path fill="#efe0f6" d="M227.81 28.19a28 28 0 0 0-39.6 0l-.21.23l-56.22 65.69l-13.63-13.63a20 20 0 0 0-28.29 0l-76.69 76.69a4 4 0 0 0 0 5.65l80 80a4 4 0 0 0 5.65 0l76.69-76.69a20 20 0 0 0 0-28.29l-13.63-13.63L227.58 68l.23-.21a28 28 0 0 0 0-39.6M96 234.34L73.66 212l25.17-25.18a4 4 0 0 0-5.65-5.65L68 206.34L49.66 188l25.17-25.18a4 4 0 0 0-5.65-5.65L44 182.34L21.66 160L72 109.65L146.35 184ZM222.26 62l-68.85 59a4 4 0 0 0-.23 5.87l16.69 16.69a12 12 0 0 1 0 17L152 178.34L77.66 104l17.86-17.87a12 12 0 0 1 17 0l16.69 16.69a4 4 0 0 0 5.87-.23L194 33.74A20 20 0 0 1 222.26 62"/></svg>