<svg xmlns="http://www.w3.org/2000/svg" viewBox="0 0 256 256" width="48" height="48"><path fill="#1b1b1d" d="M144 72a32 32 0 1 1 32 32a32 32 0 0 1-32-32m66.89 112.19c-31.83 26.39-53.72 14.51-79.07.74c-26.61-14.44-56.76-30.81-96.93 2.49a8 8 0 1 0 10.22 12.31c31.83-26.39 53.72-14.5 79.07-.74c15.11 8.2 31.35 17 49.93 17c14.14 0 29.64-5.11 47-19.5a8 8 0 0 0-10.22-12.32Zm-176-36.76a8 8 0 1 0 10.22 12.31c31.83-26.38 53.72-14.5 79.07-.74c15.11 8.2 31.35 17 49.93 17c14.14 0 29.64-5.11 47-19.5a8 8 0 1 0-10.22-12.31a75.8 75.8 0 0 1-19.28 12.06l-53.84-53.82A103.34 103.34 0 0 0 64.24 72H40a8 8 0 0 0 0 16h24.24a87.66 87.66 0 0 1 41.88 10.56l-29.63 29.61c-12.67 1.19-26.42 6.67-41.6 19.25Z"/><path fill="#e3edd5" d="M176 100a28 28 0 1 0-28-28a28 28 0 0 0 28 28m0-48a20 20 0 1 1-20 20a20 20 0 0 1 20-20m43.08 135.84a4 4 0 0 1-.53 5.63C203.56 205.9 188.9 212 173.93 212a55 55 0 0 1-6.12-.34c-15-1.65-28.6-9-41.72-16.14c-25.52-13.86-49.62-27-83.54 1.18a4 4 0 0 1-5.1-6.16c17-14.12 33.62-20.07 50.74-18.19c15 1.65 28.6 9 41.72 16.14c25.52 13.86 49.62 26.94 83.54-1.18a4 4 0 0 1 5.63.53M40 84h24.24a91.4 91.4 0 0 1 48.37 13.73l-34.42 34.43c-13.63 1-27 7-40.74 18.38a4 4 0 0 0 5.1 6.16c33.92-28.13 58-15 83.54-1.18c13.12 7.12 26.69 14.49 41.72 16.14a55 55 0 0 0 6.12.34c15 0 29.63-6.1 44.62-18.53a4 4 0 1 0-5.1-6.16c-8.12 6.73-15.68 11.1-22.83 13.66L135 105.29A99.34 99.34 0 0 0 64.24 76H40a4 4 0 0 0 0 8m141.66 79.32c-18.77 3.07-35-5.71-51.75-14.83c-12.83-7-26.09-14.15-40.73-16l30.16-30.16a94 94 0 0 1 9.95 8.63Z"/></svg>