<svg xmlns="http://www.w3.org/2000/svg" viewBox="0 0 256 256" width="48" height="48"><path fill="#1b1b1d" d="M241.57 171.2L141.33 96l23.46-17.6A8 8 0 0 0 168 72a40 40 0 1 0-80 0a8 8 0 0 0 16 0a24 24 0 0 1 47.69-3.78L14.43 171.2A16 16 0 0 0 24 200h208a16 16 0 0 0 9.6-28.8ZM32.73 184c20.87-13.41 56.76-32 95.27-32s74.4 18.59 95.27 32Z"/><path fill="#dde3ef" d="M239.18 174.4L134.67 96l27.72-20.8A4 4 0 0 0 164 72a36 36 0 1 0-72 0a4 4 0 0 0 8 0a28 28 0 0 1 55.92-2l-30.26 22.7l-.14.1l-108.7 81.6A12 12 0 0 0 24 196h208a12 12 0 0 0 7.2-21.6Zm-3.41 10.87A3.88 3.88 0 0 1 232 188H24a4 4 0 0 1-2.4-7.2L128 101l106.38 79.8a3.88 3.88 0 0 1 1.39 4.47"/></svg>