<svg xmlns="http://www.w3.org/2000/svg" viewBox="0 0 256 256" width="48" height="48"><path fill="#1b1b1d" d="M240 112h-28.69L168 68.69A15.86 15.86 0 0 0 156.69 64H44.28A16 16 0 0 0 31 71.12L1.34 115.56A8.07 8.07 0 0 0 0 120v48a16 16 0 0 0 16 16h17a32 32 0 0 0 62 0h66a32 32 0 0 0 62 0h17a16 16 0 0 0 16-16v-40a16 16 0 0 0-16-16M44.28 80h112.41l32 32H23ZM64 192a16 16 0 1 1 16-16a16 16 0 0 1-16 16m128 0a16 16 0 1 1 16-16a16 16 0 0 1-16 16"/><path fill="#d9e6f7" d="M240 116h-30.34l-44.49-44.48a11.9 11.9 0 0 0-8.48-3.52H44.28a12 12 0 0 0-10 5.34L4.67 117.78A4 4 0 0 0 4 120v48a12 12 0 0 0 12 12h20.29a28 28 0 0 0 55.42 0h72.58a28 28 0 0 0 55.42 0H240a12 12 0 0 0 12-12v-40a12 12 0 0 0-12-12M41 77.78A4 4 0 0 1 44.28 76h112.41a4 4 0 0 1 2.82 1.17L198.34 116H15.47ZM64 196a20 20 0 1 1 20-20a20 20 0 0 1-20 20m128 0a20 20 0 1 1 20-20a20 20 0 0 1-20 20m52-28a4 4 0 0 1-4 4h-20.29a28 28 0 0 0-55.42 0H91.71a28 28 0 0 0-55.42 0H16a4 4 0 0 1-4-4v-44h228a4 4 0 0 1 4 4Z"/></svg>