<svg xmlns="http://www.w3.org/2000/svg" viewBox="0 0 256 256" width="48" height="48"><path fill="#1b1b1d" d="m223.68 66.15l-88-48.15a15.88 15.88 0 0 0-15.36 0l-88 48.17a16 16 0 0 0-8.32 14v95.64a16 16 0 0 0 8.32 14l88 48.17a15.88 15.88 0 0 0 15.36 0l88-48.17a16 16 0 0 0 8.32-14V80.18a16 16 0 0 0-8.32-14.03M128 32l80.35 44l-29.78 16.29l-80.35-44Zm0 88L47.65 76l33.91-18.57l80.35 44Zm88 55.85l-80 43.79v-85.81l32-17.51V152a8 8 0 0 0 16 0v-44.44l32-17.51v85.76Z"/><path fill="#eae9ec" d="m221.76 69.66l-88-48.18a12 12 0 0 0-11.52 0l-88 48.18A12 12 0 0 0 28 80.18v95.64a12 12 0 0 0 6.24 10.52l88 48.18a11.95 11.95 0 0 0 11.52 0l88-48.18a12 12 0 0 0 6.24-10.52V80.18a12 12 0 0 0-6.24-10.52M126.08 28.5a3.94 3.94 0 0 1 3.84 0L216.67 76L178.5 96.89a4 4 0 0 0-.58-.4l-88-48.18Zm1.92 96L39.33 76l42.23-23.13l88.67 48.54Zm-89.92 54.8a4 4 0 0 1-2.08-3.5V83.29l88 48.16v94.91Zm179.84 0l-85.92 47v-94.85l40-21.89V152a4 4 0 0 0 8 0v-46.82l40-21.89v92.53a4 4 0 0 1-2.08 3.5Z"/></svg>