<svg xmlns="http://www.w3.org/2000/svg" viewBox="0 0 256 256" width="48" height="48"><path fill="#1b1b1d" d="M240 108a28 28 0 1 1-28-28a28 28 0 0 1 28 28m-168 0a28 28 0 1 0-28 28a28 28 0 0 0 28-28m20-20a28 28 0 1 0-28-28a28 28 0 0 0 28 28m72 0a28 28 0 1 0-28-28a28 28 0 0 0 28 28m23.12 60.86a35.3 35.3 0 0 1-16.87-21.14a44 44 0 0 0-84.5 0A35.25 35.25 0 0 1 69 148.82A40 40 0 0 0 88 224a39.5 39.5 0 0 0 15.52-3.13a64.1 64.1 0 0 1 48.87 0a40 40 0 0 0 34.73-72Z"/><path fill="#ece7d6" d="M212 84a24 24 0 1 0 24 24a24 24 0 0 0-24-24m0 40a16 16 0 1 1 16-16a16 16 0 0 1-16 16M68 108a24 24 0 1 0-24 24a24 24 0 0 0 24-24m-24 16a16 16 0 1 1 16-16a16 16 0 0 1-16 16m48-40a24 24 0 1 0-24-24a24 24 0 0 0 24 24m0-40a16 16 0 1 1-16 16a16 16 0 0 1 16-16m72 40a24 24 0 1 0-24-24a24 24 0 0 0 24 24m0-40a16 16 0 1 1-16 16a16 16 0 0 1 16-16m21.18 108.36a39.32 39.32 0 0 1-18.77-23.52a40 40 0 0 0-76.82 0a39.3 39.3 0 0 1-18.73 23.51A36 36 0 0 0 102 217.17a68.14 68.14 0 0 1 51.95 0a36 36 0 0 0 31.23-64.79ZM168 212a27.8 27.8 0 0 1-11-2.23a76.16 76.16 0 0 0-58.11 0A27.7 27.7 0 0 1 88 212a28 28 0 0 1-13.29-52.65a47.23 47.23 0 0 0 22.56-28.29a32 32 0 0 1 61.46 0a47.26 47.26 0 0 0 22.6 28.3A28 28 0 0 1 168 212"/></svg>