<svg xmlns="http://www.w3.org/2000/svg" viewBox="0 0 256 256" width="48" height="48"><path fill="#1b1b1d" d="M168 76a12 12 0 1 1-12-12a12 12 0 0 1 12 12m42 79.08c-15.08 20.84-37.53 34.88-66.7 41.74c-20.08 4.72-43.54 6-70.12 3.93q2.4 17.82 6.72 37.54a8 8 0 0 1-6.1 9.52a7.8 7.8 0 0 1-1.72.19a8 8 0 0 1-7.81-6.29q-4.89-22.36-7.41-42.62q-20.22-2.51-42.58-7.41a8 8 0 0 1 3.43-15.63q19.7 4.32 37.5 6.73c-2.09-26.56-.78-50 3.93-70.06C66 83.55 80.05 61.1 100.88 46c14.12-10.24 39.26-22.36 78.39-22c21.19.21 40.83 4.33 43.81 6.08a8 8 0 0 1 2.83 2.83c1.75 3 5.87 22.59 6.08 43.78c.22 21.62-3.42 52.75-21.99 78.39m2.43-111.52a175.8 175.8 0 0 0-39.22-3.51c-24.34.64-44.71 6.49-60.76 17.39a96 96 0 0 0 86.09 86.1c10.91-16 16.76-36.42 17.4-60.76a175.8 175.8 0 0 0-3.5-39.22Z"/><path fill="#ece7d6" d="M164 76a8 8 0 1 1-8-8a8 8 0 0 1 8 8m42.77 76.73c-14.5 20-36.17 33.57-64.38 40.2c-20.91 4.91-45.61 6-73.8 3.42q2.46 20.18 7.41 42.79a4 4 0 0 1-3 4.77a4.2 4.2 0 0 1-.86.09a4 4 0 0 1-3.9-3.14a457 457 0 0 1-7.72-45.36q-21.4-2.49-45.33-7.72a4 4 0 1 1 1.67-7.78q22.59 4.95 42.76 7.41c-2.62-28.16-1.48-52.84 3.43-73.73c6.63-28.21 20.14-49.88 40.18-64.39C127.32 31.8 156.61 28 177.53 28h1.71c22 .21 40.12 4.54 41.81 5.53a4 4 0 0 1 1.41 1.47c1 1.68 5.31 19.8 5.53 41.79c.21 20.96-3.3 51.21-21.22 75.94m-12.23 2.43a108 108 0 0 1-93.7-93.7c-27.92 25.08-39 67.62-33.14 126.81c59.2 5.87 101.75-5.2 126.84-33.11m21.2-114.9c-10.84-2.53-67.24-13.57-107.44 15.2a99.92 99.92 0 0 0 92.23 92.24c28.76-40.18 17.74-96.59 15.21-107.44"/></svg>