<svg xmlns="http://www.w3.org/2000/svg" viewBox="0 0 256 256" width="48" height="48"><path fill="#1b1b1d" d="m227.31 73.37l-44.68-44.69a16 16 0 0 0-22.63 0L36.69 152A15.86 15.86 0 0 0 32 163.31V208a16 16 0 0 0 16 16h44.69a15.86 15.86 0 0 0 11.31-4.69L227.31 96a16 16 0 0 0 0-22.63M51.31 160l90.35-90.35l16.68 16.69L68 176.68ZM48 179.31L76.69 208H48Zm48 25.38L79.31 188l90.35-90.35l16.68 16.69Z"/><path fill="#e4eed3" d="M224.49 76.2L179.8 31.51a12 12 0 0 0-17 0L39.52 154.83a11.9 11.9 0 0 0-3.52 8.48V208a12 12 0 0 0 12 12h44.69a12 12 0 0 0 8.48-3.51L224.48 93.17a12 12 0 0 0 0-17ZM45.66 160L136 69.65L158.34 92L68 182.34ZM44 208v-38.34l21.17 21.17L86.34 212H48a4 4 0 0 1-4-4m52 2.34L73.66 188L164 97.65L186.34 120ZM218.83 87.51L192 114.34L141.66 64l26.82-26.83a4 4 0 0 1 5.66 0l44.69 44.68a4 4 0 0 1 0 5.66"/></svg>