<svg xmlns="http://www.w3.org/2000/svg" viewBox="0 0 256 256" width="48" height="48"><path fill="#1b1b1d" d="M64.12 147.8a4 4 0 0 1-4 4.2H16a8 8 0 0 1-7.8-6.17a8.35 8.35 0 0 1 1.62-6.93A67.8 67.8 0 0 1 37 117.51a40 40 0 1 1 66.46-35.8a3.94 3.94 0 0 1-2.27 4.18A64.08 64.08 0 0 0 64 144c0 1.28 0 2.54.12 3.8m182-8.91A67.76 67.76 0 0 0 219 117.51a40 40 0 1 0-66.46-35.8a3.94 3.94 0 0 0 2.27 4.18A64.08 64.08 0 0 1 192 144c0 1.28 0 2.54-.12 3.8a4 4 0 0 0 4 4.2H240a8 8 0 0 0 7.8-6.17a8.33 8.33 0 0 0-1.63-6.94Zm-89 43.18a48 48 0 1 0-58.37 0A72.13 72.13 0 0 0 65.07 212A8 8 0 0 0 72 224h112a8 8 0 0 0 6.93-12a72.15 72.15 0 0 0-33.74-29.93Z"/><path fill="#d6eee1" d="M237 147.44a4 4 0 0 1-5.48-1.4c-8.33-14-20.93-22-34.56-22a4 4 0 0 1-1.2-.2a37 37 0 0 1-3.8.2a4 4 0 0 1 0-8a28 28 0 1 0-27.12-35a4 4 0 0 1-7.75-2a36 36 0 1 1 54 39.48c10.81 3.85 20.51 12 27.31 23.48a4 4 0 0 1-1.4 5.44M187.46 214a4 4 0 0 1-1.46 5.46a3.93 3.93 0 0 1-2 .54a4 4 0 0 1-3.46-2a61 61 0 0 0-105.08 0a4 4 0 0 1-6.92-4a68.35 68.35 0 0 1 39.19-31a44 44 0 1 1 40.54 0a68.35 68.35 0 0 1 39.19 31M128 180a36 36 0 1 0-36-36a36 36 0 0 0 36 36m-64-64a28 28 0 1 1 27.12-35a4 4 0 0 0 7.75-2a36 36 0 1 0-53.57 39.75a63.55 63.55 0 0 0-32.5 22.85a4 4 0 0 0 6.4 4.8A55.55 55.55 0 0 1 64 124a4 4 0 0 0 0-8"/></svg>