<svg xmlns="http://www.w3.org/2000/svg" viewBox="0 0 256 256" width="48" height="48"><path fill="#1b1b1d" d="M216 40H40a16 16 0 0 0-16 16v144a16 16 0 0 0 16 16h176a16 16 0 0 0 16-16V56a16 16 0 0 0-16-16m-16 152H56a8 8 0 0 1-8-8V72a8 8 0 0 1 16 0v20.69l32 32l34.34-34.35a8 8 0 0 1 11.32 0L176 124.69V104a8 8 0 0 1 16 0v40a8 8 0 0 1-8 8h-40a8 8 0 0 1 0-16h20.69L136 107.31l-34.34 34.35a8 8 0 0 1-11.32 0L64 115.31V176h136a8 8 0 0 1 0 16"/><path fill="#d9f0d5" d="M228 208a4 4 0 0 1-4 4H32a4 4 0 0 1-4-4V48a4 4 0 0 1 8 0v14.34l60 60l29.17-29.17a4 4 0 0 1 5.66 0L196 158.34V128a4 4 0 0 1 8 0v40a4 4 0 0 1-.08.78a3 3 0 0 1-.1.34a3 3 0 0 1-.13.41a3 3 0 0 1-.2.39c-.05.1-.1.2-.16.3a4.2 4.2 0 0 1-1.11 1.11l-.31.16a4 4 0 0 1-.38.2a3 3 0 0 1-.41.13a3 3 0 0 1-.34.1a4 4 0 0 1-.78.08h-40a4 4 0 0 1 0-8h30.34L128 101.66l-29.17 29.17a4 4 0 0 1-5.66 0L36 73.66V204h188a4 4 0 0 1 4 4"/></svg>