<svg xmlns="http://www.w3.org/2000/svg" viewBox="0 0 256 256" width="48" height="48"><path fill="#1b1b1d" d="M96 48a32 32 0 1 1 32 32a32 32 0 0 1-32-32m120 48H40a8 8 0 0 0 0 16h80v28.44l-77.35 69.61A8 8 0 0 0 53.35 222l76.2-68.58L176 173.28V216a8 8 0 0 0 16 0v-48a8 8 0 0 0-4.85-7.35L136 138.72V112h80a8 8 0 0 0 0-16"/><path fill="#f8dee4" d="M128 76a28 28 0 1 0-28-28a28 28 0 0 0 28 28m0-48a20 20 0 1 1-20 20a20 20 0 0 1 20-20m92 76a4 4 0 0 1-4 4h-84v33.36l53.58 23A4 4 0 0 1 188 168v48a4 4 0 0 1-8 0v-45.36l-51.22-22L50.68 219a4 4 0 1 1-5.36-6L124 142.22V108H40a4 4 0 0 1 0-8h176a4 4 0 0 1 4 4"/></svg>