<svg xmlns="http://www.w3.org/2000/svg" viewBox="0 0 256 256" width="48" height="48"><path fill="#1b1b1d" d="m236.52 187.09l-143-97.87a36 36 0 1 0-14.38 17.27l21.39 21.69l-21.38 21.36a35.91 35.91 0 1 0 14.38 17.27l26.91-18.41L170 198.64a32.26 32.26 0 0 0 22.7 9.37a31.5 31.5 0 0 0 4.11-.27h.28l36.27-6.11a8 8 0 0 0 3.19-14.5Zm-162.38-97A20 20 0 1 1 80 76a20 20 0 0 1-5.86 14.13Zm0 104A20 20 0 1 1 80 180a20 20 0 0 1-5.86 14.15Zm61-101.5l34.8-35.19a32.19 32.19 0 0 1 26.84-9.14h.28l36 6.07a8.21 8.21 0 0 1 6.09 4.42a8 8 0 0 1-2.67 10.12l-69.93 47.85a4 4 0 0 1-4.51 0l-26.31-18a4 4 0 0 1-.55-6.07Z"/><path fill="#efe0f6" d="M161 110.87a4 4 0 0 1 1.05-5.56L229.74 59a4 4 0 0 1 4.52 6.61l-67.67 46.3a4 4 0 0 1-5.56-1ZM235.3 196a4 4 0 0 1-5.56 1L136 132.85l-47.53 32.53a32 32 0 1 1-5.84-8c.45.45.89.92 1.31 1.4l45-30.78l-45-30.78c-.42.48-.86 1-1.31 1.4a31.86 31.86 0 1 1 5.84-8l49.69 34l96.09 65.76a4 4 0 0 1 1.05 5.62M77 93a24.4 24.4 0 0 0 2.82-3.38A24 24 0 1 0 77 93m7 87a23.75 23.75 0 0 0-4.15-13.49v-.06A24.5 24.5 0 0 0 77 163a24 24 0 1 0 0 34a23.85 23.85 0 0 0 7-17"/></svg>