<svg xmlns="http://www.w3.org/2000/svg" viewBox="0 0 256 256" width="48" height="48"><path fill="#1b1b1d" d="M200 64v128a16 16 0 0 1-16 16h-16a16 16 0 0 1-16-16v-56h-48v56a16 16 0 0 1-16 16H72a16 16 0 0 1-16-16V64a16 16 0 0 1 16-16h16a16 16 0 0 1 16 16v56h48V64a16 16 0 0 1 16-16h16a16 16 0 0 1 16 16M36 72h-4a16 16 0 0 0-16 16v32H8.27A8.18 8.18 0 0 0 0 127.47A8 8 0 0 0 8 136h8v32a16 16 0 0 0 16 16h4a4 4 0 0 0 4-4V76a4 4 0 0 0-4-4m220 55.47a8.18 8.18 0 0 0-8.25-7.47H240V88a16 16 0 0 0-16-16h-4a4 4 0 0 0-4 4v104a4 4 0 0 0 4 4h4a16 16 0 0 0 16-16v-32h8a8 8 0 0 0 8-8.53"/><path fill="#f8dee4" d="M248 124h-12V88a12 12 0 0 0-12-12h-20V64a12 12 0 0 0-12-12h-24a12 12 0 0 0-12 12v60h-56V64a12 12 0 0 0-12-12H64a12 12 0 0 0-12 12v12H32a12 12 0 0 0-12 12v36H8a4 4 0 0 0 0 8h12v36a12 12 0 0 0 12 12h20v12a12 12 0 0 0 12 12h24a12 12 0 0 0 12-12v-60h56v60a12 12 0 0 0 12 12h24a12 12 0 0 0 12-12v-12h20a12 12 0 0 0 12-12v-36h12a4 4 0 0 0 0-8M32 172a4 4 0 0 1-4-4V88a4 4 0 0 1 4-4h20v88Zm60 20a4 4 0 0 1-4 4H64a4 4 0 0 1-4-4V64a4 4 0 0 1 4-4h24a4 4 0 0 1 4 4Zm104 0a4 4 0 0 1-4 4h-24a4 4 0 0 1-4-4V64a4 4 0 0 1 4-4h24a4 4 0 0 1 4 4Zm32-24a4 4 0 0 1-4 4h-20V84h20a4 4 0 0 1 4 4Z"/></svg>