<svg xmlns="http://www.w3.org/2000/svg" viewBox="0 0 256 256" width="48" height="48"><path fill="#1b1b1d" d="M239.54 63a15.9 15.9 0 0 0-7.25-9.9a201.49 201.49 0 0 0-208.58 0a16 16 0 0 0-5.37 22l96 157.27a16 16 0 0 0 27.36 0l96-157.27a15.82 15.82 0 0 0 1.84-12.1m-55.1 68.53a40 40 0 0 0-41.38 67.77L128 224l-31.5-51.57a40 40 0 1 0-41.35-67.76L48.8 94.26a152 152 0 0 1 158.39 0Z"/><path fill="#f8e3d2" d="M235.66 63.94a11.94 11.94 0 0 0-5.44-7.43a197.51 197.51 0 0 0-204.44 0a12 12 0 0 0-4 16.47l96 157.27a12 12 0 0 0 20.54 0L234.25 73a11.9 11.9 0 0 0 1.41-9.06M58.59 118a28 28 0 1 1 27.66 45.3Zm94 73.41a28 28 0 0 1 29.15-47.76Zm33.33-54.61A35.66 35.66 0 0 0 168 132a36 36 0 0 0-19.56 66.22l-17 27.86a4 4 0 0 1-6.88 0l-34-55.67a36 36 0 1 0-36.33-59.54L43.33 93a156 156 0 0 1 169.34 0Zm41.48-68l-10.55 17.34a164.07 164.07 0 0 0-177.7 0L28.58 68.81a3.9 3.9 0 0 1-.46-3a4 4 0 0 1 1.82-2.48a189.47 189.47 0 0 1 196.12 0a4 4 0 0 1 1.82 2.48a3.9 3.9 0 0 1-.46 3Z"/></svg>