<svg xmlns="http://www.w3.org/2000/svg" viewBox="0 0 256 256" width="48" height="48"><path fill="#1b1b1d" d="M200 32h-36.26a47.92 47.92 0 0 0-71.48 0H56a16 16 0 0 0-16 16v168a16 16 0 0 0 16 16h144a16 16 0 0 0 16-16V48a16 16 0 0 0-16-16m-72 0a32 32 0 0 1 32 32H96a32 32 0 0 1 32-32m32 128H96a8 8 0 0 1 0-16h64a8 8 0 0 1 0 16m0-32H96a8 8 0 0 1 0-16h64a8 8 0 0 1 0 16"/><path fill="#e8e3da" d="M164 152a4 4 0 0 1-4 4H96a4 4 0 0 1 0-8h64a4 4 0 0 1 4 4m-4-36H96a4 4 0 0 0 0 8h64a4 4 0 0 0 0-8m52-68v168a12 12 0 0 1-12 12H56a12 12 0 0 1-12-12V48a12 12 0 0 1 12-12h38.08a44 44 0 0 1 67.84 0H200a12 12 0 0 1 12 12M92 64v4h72v-4a36 36 0 0 0-72 0m112-16a4 4 0 0 0-4-4h-32.83A43.7 43.7 0 0 1 172 64v8a4 4 0 0 1-4 4H88a4 4 0 0 1-4-4v-8a43.7 43.7 0 0 1 4.83-20H56a4 4 0 0 0-4 4v168a4 4 0 0 0 4 4h144a4 4 0 0 0 4-4Z"/></svg>