<svg xmlns="http://www.w3.org/2000/svg" viewBox="0 0 256 256" width="48" height="48"><path fill="#1b1b1d" d="M128 24a104 104 0 1 0 104 104A104.11 104.11 0 0 0 128 24m40.55 110.58l-52 36A8 8 0 0 1 104 164V92a8 8 0 0 1 12.55-6.58l52 36a8 8 0 0 1 0 13.16"/><path fill="#e6dff2" d="M128 28a100 100 0 1 0 100 100A100.11 100.11 0 0 0 128 28m0 192a92 92 0 1 1 92-92a92.1 92.1 0 0 1-92 92m46.12-95.39l-64-40A4 4 0 0 0 104 88v80a4 4 0 0 0 2.06 3.5a4.06 4.06 0 0 0 1.94.5a4 4 0 0 0 2.12-.61l64-40a4 4 0 0 0 0-6.78M112 160.78V95.22L164.45 128Z"/></svg>