<svg xmlns="http://www.w3.org/2000/svg" viewBox="0 0 256 256" width="48" height="48"><path fill="#1b1b1d" d="M216 40H40a16 16 0 0 0-16 16v152a8 8 0 0 0 11.58 7.15L64 200.94l28.42 14.21a8 8 0 0 0 7.16 0L128 200.94l28.42 14.21a8 8 0 0 0 7.16 0L192 200.94l28.42 14.21A8 8 0 0 0 232 208V56a16 16 0 0 0-16-16m-40 104H80a8 8 0 0 1 0-16h96a8 8 0 0 1 0 16m0-32H80a8 8 0 0 1 0-16h96a8 8 0 0 1 0 16"/><path fill="#d9f0d5" d="M180 104a4 4 0 0 1-4 4H80a4 4 0 0 1 0-8h96a4 4 0 0 1 4 4m-4 28H80a4 4 0 0 0 0 8h96a4 4 0 0 0 0-8m52-76v152a4 4 0 0 1-4 4a4.05 4.05 0 0 1-1.79-.42L192 196.47l-30.21 15.11a4 4 0 0 1-3.58 0L128 196.47l-30.21 15.11a4 4 0 0 1-3.58 0L64 196.47l-30.21 15.11A4 4 0 0 1 28 208V56a12 12 0 0 1 12-12h176a12 12 0 0 1 12 12m-8 0a4 4 0 0 0-4-4H40a4 4 0 0 0-4 4v145.53l26.21-13.11a4 4 0 0 1 3.58 0L96 203.53l30.21-15.11a4 4 0 0 1 3.58 0L160 203.53l30.21-15.11a4 4 0 0 1 3.58 0L220 201.53Z"/></svg>