<svg xmlns="http://www.w3.org/2000/svg" viewBox="0 0 256 256" width="48" height="48"><path fill="#1b1b1d" d="m175.3 63.53l-6.24-34.38A16 16 0 0 0 153.32 16h-50.64a16 16 0 0 0-15.74 13.15L80.7 63.53a79.9 79.9 0 0 0 0 128.94l6.24 34.38A16 16 0 0 0 102.68 240h50.64a16 16 0 0 0 15.74-13.15l6.24-34.38a79.9 79.9 0 0 0 0-128.94M102.68 32h50.64l3.91 21.55a79.75 79.75 0 0 0-58.46 0Zm50.64 192h-50.64l-3.91-21.55a79.75 79.75 0 0 0 58.46 0ZM168 136h-40a8 8 0 0 1-8-8V88a8 8 0 0 1 16 0v32h32a8 8 0 0 1 0 16"/><path fill="#efe0f6" d="M204 128a75.94 75.94 0 0 0-32.35-62.16l-6.52-36A12 12 0 0 0 153.32 20h-50.64a12 12 0 0 0-11.81 9.86l-6.52 36a75.89 75.89 0 0 0 0 124.32l6.52 36a12 12 0 0 0 11.81 9.82h50.64a12 12 0 0 0 11.81-9.86l6.52-36A75.94 75.94 0 0 0 204 128M98.74 31.29a4 4 0 0 1 3.94-3.29h50.64a4 4 0 0 1 3.94 3.29l5.26 29a75.69 75.69 0 0 0-69 0Zm58.52 193.42a4 4 0 0 1-3.94 3.29h-50.64a4 4 0 0 1-3.94-3.29l-5.26-29a75.69 75.69 0 0 0 69 0ZM128 196a68 68 0 1 1 68-68a68.07 68.07 0 0 1-68 68m44-68a4 4 0 0 1-4 4h-40a4 4 0 0 1-4-4V88a4 4 0 0 1 8 0v36h36a4 4 0 0 1 4 4"/></svg>