<svg xmlns="http://www.w3.org/2000/svg" viewBox="0 0 256 256" width="48" height="48"><path fill="#1b1b1d" d="M24 128a72.08 72.08 0 0 1 72-72h96V40a8 8 0 0 1 13.66-5.66l24 24a8 8 0 0 1 0 11.32l-24 24A8 8 0 0 1 192 88V72H96a56.06 56.06 0 0 0-56 56a8 8 0 0 1-16 0m200-8a8 8 0 0 0-8 8a56.06 56.06 0 0 1-56 56H64v-16a8 8 0 0 0-13.66-5.66l-24 24a8 8 0 0 0 0 11.32l24 24A8 8 0 0 0 64 216v-16h96a72.08 72.08 0 0 0 72-72a8 8 0 0 0-8-8"/><path fill="#e6dff2" d="M28 128a68.07 68.07 0 0 1 68-68h118.34l-17.17-17.17a4 4 0 0 1 5.66-5.66l24 24a4 4 0 0 1 0 5.66l-24 24a4 4 0 0 1-5.66-5.66L214.34 68H96a60.07 60.07 0 0 0-60 60a4 4 0 0 1-8 0m196-4a4 4 0 0 0-4 4a60.07 60.07 0 0 1-60 60H41.66l17.17-17.17a4 4 0 0 0-5.66-5.66l-24 24a4 4 0 0 0 0 5.66l24 24a4 4 0 1 0 5.66-5.66L41.66 196H160a68.07 68.07 0 0 0 68-68a4 4 0 0 0-4-4"/></svg>