<svg xmlns="http://www.w3.org/2000/svg" viewBox="0 0 256 256" width="48" height="48"><path fill="#1b1b1d" d="M200 48h-64V16a8 8 0 0 0-16 0v32H56a32 32 0 0 0-32 32v112a32 32 0 0 0 32 32h144a32 32 0 0 0 32-32V80a32 32 0 0 0-32-32m-28 48a12 12 0 1 1-12 12a12 12 0 0 1 12-12m-76 88H80a16 16 0 0 1 0-32h16Zm-12-64a12 12 0 1 1 12-12a12 12 0 0 1-12 12m60 64h-32v-32h32Zm32 0h-16v-32h16a16 16 0 0 1 0 32"/><path fill="#dde7ef" d="M200 52h-68V16a4 4 0 0 0-8 0v36H56a28 28 0 0 0-28 28v112a28 28 0 0 0 28 28h144a28 28 0 0 0 28-28V80a28 28 0 0 0-28-28m20 140a20 20 0 0 1-20 20H56a20 20 0 0 1-20-20V80a20 20 0 0 1 20-20h144a20 20 0 0 1 20 20ZM76 108a8 8 0 1 1 8 8a8 8 0 0 1-8-8m88 0a8 8 0 1 1 8 8a8 8 0 0 1-8-8m0 32H92a24 24 0 0 0 0 48h72a24 24 0 0 0 0-48m-20 8v32h-32v-32Zm-68 16a16 16 0 0 1 16-16h12v32H92a16 16 0 0 1-16-16m88 16h-12v-32h12a16 16 0 0 1 0 32"/></svg>