<svg xmlns="http://www.w3.org/2000/svg" viewBox="0 0 256 256" width="48" height="48"><path fill="#1b1b1d" d="M152 224a8 8 0 0 1-8 8h-32a8 8 0 0 1 0-16h32a8 8 0 0 1 8 8m71.62-68.17l-12.36 55.63a16 16 0 0 1-25.51 9.11L158.51 200h-61l-27.26 20.57a16 16 0 0 1-25.51-9.11l-12.36-55.63a16.09 16.09 0 0 1 3.32-13.71l28.56-34.26a123 123 0 0 1 8.57-36.67c12.9-32.34 36-52.63 45.37-59.85a16 16 0 0 1 19.6 0c9.34 7.22 32.47 27.51 45.37 59.85a123 123 0 0 1 8.57 36.67l28.56 34.26a16.09 16.09 0 0 1 3.32 13.71m-139.23 34q-16.11-29.33-19.56-57.67L48 152.36L60.36 208l.18-.13ZM140 100a12 12 0 1 0-12 12a12 12 0 0 0 12-12m68 52.36l-16.83-20.2q-3.42 28.28-19.56 57.69l23.85 18l.18.13Z"/><path fill="#eae9ec" d="M148 224a4 4 0 0 1-4 4h-32a4 4 0 0 1 0-8h32a4 4 0 0 1 4 4m-20-116a8 8 0 1 0-8-8a8 8 0 0 0 8 8m91.72 47l-12.37 55.6a11.9 11.9 0 0 1-7.72 8.71a12.2 12.2 0 0 1-4 .69a11.94 11.94 0 0 1-7.43-2.6L159.85 196h-63.7l-28.34 21.4a11.94 11.94 0 0 1-7.43 2.6a12.2 12.2 0 0 1-4-.69a11.9 11.9 0 0 1-7.72-8.71L36.28 155a12 12 0 0 1 2.5-10.28l29.35-35.23c3.3-53.33 41.83-86.68 52.52-94.94a12 12 0 0 1 14.7 0c10.69 8.26 49.22 41.61 52.52 94.94l29.35 35.23a12 12 0 0 1 2.5 10.28M97.11 188h61.78C214.07 92.49 145 32.05 130.46 20.84a4 4 0 0 0-4.92 0C111 32.05 41.93 92.49 97.11 188m-7.52 2.93C75.12 165.56 68.93 142.52 68 122.06L44.92 149.8a4 4 0 0 0-.83 3.43l12.36 55.63a4 4 0 0 0 6.41 2.26l.09-.07Zm121.49-41.13L188 122.06c-.89 20.46-7.08 43.5-21.55 68.87l26.64 20.12l.09.07a4 4 0 0 0 6.41-2.26l12.36-55.63a4 4 0 0 0-.87-3.43"/></svg>