<svg xmlns="http://www.w3.org/2000/svg" viewBox="0 0 256 256" width="48" height="48"><path fill="#1b1b1d" d="m228.65 129.11l-28.06-9.35a4 4 0 0 0-2.63 0l-43.23 15.72a8.1 8.1 0 0 1-2.73.52a8 8 0 0 1-7.71-5.88a8.17 8.17 0 0 1 5.22-9.73l18.49-6.72a2.54 2.54 0 0 0-.06-4.8a23.9 23.9 0 0 1-8.8-5.25a4 4 0 0 0-4.17-.91l-24.22 8.8a8 8 0 0 1-10.44-5.39a8.17 8.17 0 0 1 5.22-9.73L146 88.93a4 4 0 0 0 2.31-5.34l-3.06-7.16a4 4 0 0 0-5.05-2.19l-25.5 9.27a8 8 0 0 1-10.44-5.39a8.17 8.17 0 0 1 5.22-9.73l24-8.73a4 4 0 0 0 2.31-5.33l-5.4-12.73v-.1a16 16 0 0 0-20.14-8.5L34.53 60.49A16.05 16.05 0 0 0 24 75.53V192a16 16 0 0 0 16 16h200a16 16 0 0 0 16-16v-24.94a40 40 0 0 0-27.35-37.95M240 192H40v-16h200Z"/><path fill="#efe0f6" d="m227.38 132.91l-60.72-20.24A28 28 0 0 1 150 97.53l-23.31-54.41a12 12 0 0 0-15.07-6.4L35.9 64.25A12 12 0 0 0 28 75.53V192a12 12 0 0 0 12 12h200a12 12 0 0 0 12-12v-24.94a36 36 0 0 0-24.62-34.15M38.63 71.77l75.72-27.53a3.8 3.8 0 0 1 1.37-.24a4 4 0 0 1 3.63 2.32L128.17 67l-25.54 9.29A4 4 0 0 0 104 84a4.1 4.1 0 0 0 1.37-.24l25.95-9.44l7.89 18.44l-20.58 7.48A4 4 0 0 0 120 108a4.1 4.1 0 0 0 1.37-.24l21-7.64l.25.6a36.1 36.1 0 0 0 13.52 15.7l-21.5 7.82A4 4 0 0 0 136 132a4.1 4.1 0 0 0 1.37-.24l29.3-10.66l58.18 19.4a28 28 0 0 1 19 23.5H36V75.53a4 4 0 0 1 2.63-3.76M240 196H40a4 4 0 0 1-4-4v-20h208v20a4 4 0 0 1-4 4"/></svg>