<svg xmlns="http://www.w3.org/2000/svg" viewBox="0 0 256 256" width="48" height="48"><path fill="#1b1b1d" d="m244.35 92.8l-104 125.43A15.93 15.93 0 0 1 128 224a15.93 15.93 0 0 1-12.31-5.77L11.65 92.8a15.65 15.65 0 0 1-3.54-11.89a15.93 15.93 0 0 1 6.17-10.81A186.67 186.67 0 0 1 128 32a186.67 186.67 0 0 1 113.72 38.1a15.93 15.93 0 0 1 6.17 10.81a15.65 15.65 0 0 1-3.54 11.89"/><path fill="#e7e0f7" d="M136 204a8 8 0 1 1-8-8a8 8 0 0 1 8 8m98.54-113.9a168 168 0 0 0-213.08 0a4 4 0 1 0 5.08 6.18a160 160 0 0 1 202.92 0a4 4 0 0 0 5.08-6.18m-32.06 35.81a120 120 0 0 0-149 0a4 4 0 0 0 5 6.27a112 112 0 0 1 139 0a4 4 0 0 0 5-6.27m-32.13 35.86a72 72 0 0 0-84.7 0a4 4 0 1 0 4.7 6.46a64.07 64.07 0 0 1 75.3 0a4 4 0 0 0 5.58-.87a4 4 0 0 0-.88-5.59"/></svg>