<svg xmlns="http://www.w3.org/2000/svg" viewBox="0 0 256 256" width="48" height="48"><path fill="#1b1b1d" d="M224 224a8 8 0 0 1-8 8H40a8 8 0 0 1 0-16h176a8 8 0 0 1 8 8m-16-96h-56.43l15.71-73.29A32 32 0 0 0 136 16h-16a32 32 0 0 0-31.28 38.71L104.43 128H48a16 16 0 0 0-16 16v40a16 16 0 0 0 16 16h160a16 16 0 0 0 16-16v-40a16 16 0 0 0-16-16"/><path fill="#e8e3da" d="M220 224a4 4 0 0 1-4 4H40a4 4 0 0 1 0-8h176a4 4 0 0 1 4 4m0-80v40a12 12 0 0 1-12 12H48a12 12 0 0 1-12-12v-40a12 12 0 0 1 12-12h61.37L92.63 53.87A28 28 0 0 1 120 20h16a28 28 0 0 1 27.38 33.87L146.63 132H208a12 12 0 0 1 12 12m-102.45-12h20.9l17.1-79.81A20 20 0 0 0 136 28h-16a20 20 0 0 0-19.56 24.19ZM212 144a4 4 0 0 0-4-4H48a4 4 0 0 0-4 4v40a4 4 0 0 0 4 4h160a4 4 0 0 0 4-4Z"/></svg>