<svg xmlns="http://www.w3.org/2000/svg" viewBox="0 0 256 256" width="48" height="48"><path fill="#1b1b1d" d="M216 144h-16V80h16a8 8 0 0 0 0-16h-16V40a16 16 0 0 0-16-16H72a16 16 0 0 0-16 16v24H40a8 8 0 0 0 0 16h16v64H40a8 8 0 0 0 0 16h16v56a16 16 0 0 0 16 16h112a16 16 0 0 0 16-16v-56h16a8 8 0 0 0 0-16m-88-28a28 28 0 1 1 28-28a28 28 0 0 1-28 28m0 24a28 28 0 1 1-28 28a28 28 0 0 1 28-28"/><path fill="#d9e6f7" d="M128 60a28 28 0 1 0 28 28a28 28 0 0 0-28-28m0 48a20 20 0 1 1 20-20a20 20 0 0 1-20 20m0 32a28 28 0 1 0 28 28a28 28 0 0 0-28-28m0 48a20 20 0 1 1 20-20a20 20 0 0 1-20 20m88-40h-20V76h20a4 4 0 0 0 0-8h-20V40a12 12 0 0 0-12-12H72a12 12 0 0 0-12 12v28H40a4 4 0 0 0 0 8h20v72H40a4 4 0 0 0 0 8h20v60a12 12 0 0 0 12 12h112a12 12 0 0 0 12-12v-60h20a4 4 0 0 0 0-8m-28 68a4 4 0 0 1-4 4H72a4 4 0 0 1-4-4V40a4 4 0 0 1 4-4h112a4 4 0 0 1 4 4Z"/></svg>