<svg xmlns="http://www.w3.org/2000/svg" viewBox="0 0 256 256" width="48" height="48"><path fill="#1b1b1d" d="M88 48V16a8 8 0 0 1 16 0v32a8 8 0 0 1-16 0m40 8a8 8 0 0 0 8-8V16a8 8 0 0 0-16 0v32a8 8 0 0 0 8 8m32 0a8 8 0 0 0 8-8V16a8 8 0 0 0-16 0v32a8 8 0 0 0 8 8m94.4 35.2a8 8 0 0 0-11.2-1.6L224 104V80a8 8 0 0 0-8-8H40a8 8 0 0 0-8 8v24L12.8 89.6a8 8 0 0 0-9.6 12.8L32 124v60a32 32 0 0 0 32 32h128a32 32 0 0 0 32-32v-60l28.8-21.6a8 8 0 0 0 1.6-11.2"/><path fill="#f8e3d2" d="M92 48V16a4 4 0 0 1 8 0v32a4 4 0 0 1-8 0m36 4a4 4 0 0 0 4-4V16a4 4 0 0 0-8 0v32a4 4 0 0 0 4 4m32 0a4 4 0 0 0 4-4V16a4 4 0 0 0-8 0v32a4 4 0 0 0 4 4m90.4 47.2L220 122v62a28 28 0 0 1-28 28H64a28 28 0 0 1-28-28v-62L5.6 99.2a4 4 0 0 1 4.8-6.4L36 112V80a4 4 0 0 1 4-4h176a4 4 0 0 1 4 4v32l25.6-19.2a4 4 0 1 1 4.8 6.4M212 84H44v100a20 20 0 0 0 20 20h128a20 20 0 0 0 20-20Z"/></svg>