<svg xmlns="http://www.w3.org/2000/svg" viewBox="0 0 256 256" width="48" height="48"><path fill="#1b1b1d" d="M216 40H40a16 16 0 0 0-16 16v144a16 16 0 0 0 16 16h176a16 16 0 0 0 16-16V56a16 16 0 0 0-16-16m-88 96a48.05 48.05 0 0 1-48-48a8 8 0 0 1 16 0a32 32 0 0 0 64 0a8 8 0 0 1 16 0a48.05 48.05 0 0 1-48 48"/><path fill="#f8e3d2" d="M216 44H40a12 12 0 0 0-12 12v144a12 12 0 0 0 12 12h176a12 12 0 0 0 12-12V56a12 12 0 0 0-12-12m4 156a4 4 0 0 1-4 4H40a4 4 0 0 1-4-4V56a4 4 0 0 1 4-4h176a4 4 0 0 1 4 4ZM172 88a44 44 0 0 1-88 0a4 4 0 0 1 8 0a36 36 0 0 0 72 0a4 4 0 0 1 8 0"/></svg>