<svg xmlns="http://www.w3.org/2000/svg" viewBox="0 0 256 256" width="48" height="48"><path fill="#1b1b1d" d="M240 132a28 28 0 0 1-24 27.71V200a16 16 0 0 1-16 16H56a16 16 0 0 1-16-16v-40.29A28 28 0 1 1 72 132v36a8 8 0 0 0 16 0v-24h80v24a8 8 0 0 0 16 0v-36a28 28 0 0 1 56 0M44 88a44.06 44.06 0 0 1 43.81 40h80.38A44.06 44.06 0 0 1 212 88a4 4 0 0 0 4-4V72a40 40 0 0 0-40-40H80a40 40 0 0 0-40 40v12a4 4 0 0 0 4 4"/><path fill="#e7e0f7" d="M212 92.23V72a36 36 0 0 0-36-36H80a36 36 0 0 0-36 36v20.23a36 36 0 0 0 0 71.55V200a12 12 0 0 0 12 12h144a12 12 0 0 0 12-12v-36.22a36 36 0 0 0 0-71.55M80 44h96a28 28 0 0 1 28 28v20.23A36 36 0 0 0 172 128v4H84v-4a36 36 0 0 0-32-35.77V72a28 28 0 0 1 28-28m128.3 112h-.3a4 4 0 0 0-4 4v40a4 4 0 0 1-4 4H56a4 4 0 0 1-4-4v-40a4 4 0 0 0-4-4h-.3A28 28 0 1 1 76 128v40a4 4 0 0 0 8 0v-28h88v28a4 4 0 0 0 8 0v-40a28 28 0 1 1 28.3 28"/></svg>