<svg xmlns="http://www.w3.org/2000/svg" viewBox="0 0 256 256" width="48" height="48"><path fill="#1b1b1d" d="M178.42 72a75 75 0 0 0-10.21.37a91.9 91.9 0 0 0-21.59-25.09c-37.84-30.49-89.57-23.51-91.75-23.2A8 8 0 0 0 48 31.43a8.19 8.19 0 0 0 3.69 7.32c17.4 11.68 25.37 30.91 28.7 49.65a72.08 72.08 0 1 0 16.26.14C93.54 68.59 86.56 52 76 39.37c16.67.72 41.24 4.78 60.64 20.48a74.8 74.8 0 0 1 15 16.39c-1.9.69-3.79 1.44-5.65 2.29a8.42 8.42 0 0 0-4.49 4.63a8 8 0 0 0 2.41 9a89 89 0 0 1 13.59 14a3.6 3.6 0 0 0 .65.65C160 108.15 165.83 112 176 112c12.15 0 18.18-5.51 18.43-5.75l-.09.09a8 8 0 1 1 11.32 11.32C204.6 118.72 194.77 128 176 128h-1.61a3 3 0 0 0-3 4a87.9 87.9 0 0 1-7 71.6a8.4 8.4 0 0 0-1 6.24a8 8 0 0 0 7.16 6c1.78.13 3.59.2 5.37.2a72 72 0 0 0 2.42-144Zm-72 50.21l-.09.09a8 8 0 0 1 11.32 11.32C116.6 134.72 106.77 144 88 144s-28.6-9.28-29.66-10.34a8 8 0 0 1 11.32-11.32l-.09-.09c.25.24 6.28 5.75 18.43 5.75s18.18-5.51 18.43-5.75Z"/><path fill="#d9f0d5" d="M176 76a67 67 0 0 0-9.94.74a88.1 88.1 0 0 0-21.95-26.3C107.61 21 57.55 27.74 55.43 28a4 4 0 0 0-1.65 7.29C73.74 48.64 82 71.09 85 92.08a68 68 0 1 0 56.12 110.29A68 68 0 1 0 176 76M66.62 35.27c16-.4 48 1.66 72.47 21.39a79.9 79.9 0 0 1 18.75 21.82a68.3 68.3 0 0 0-35 23.14a67.44 67.44 0 0 0-29.66-9.4c-3.3-24.44-12.35-43.85-26.56-56.95M88 220a60 60 0 0 1-2.09-119.95a177.8 177.8 0 0 1-1.28 39.8c-11.7-.93-17.56-6.44-17.8-6.68a4 4 0 0 0-5.66 5.66c.38.37 9.37 9.17 26.83 9.17s26.45-8.8 26.83-9.17a4 4 0 0 0-5.64-5.68c-.25.25-5.65 5.35-16.43 6.58A183.7 183.7 0 0 0 94 100.3A60 60 0 0 1 88 220m88-16a59.75 59.75 0 0 1-30.24-8.17a67.86 67.86 0 0 0-16.31-89.68a60.25 60.25 0 0 1 32.22-20.4c5.17 11 8.49 23.68 9.93 38c-11-1.16-16.53-6.36-16.77-6.59a4 4 0 0 0-5.66 5.66c.38.37 9.37 9.17 26.83 9.17s26.45-8.8 26.83-9.17a4 4 0 0 0-5.64-5.68c-.26.25-6 5.68-17.55 6.68q-2.1-22.14-9.81-39.49A60 60 0 1 1 176 204"/></svg>