<svg xmlns="http://www.w3.org/2000/svg" viewBox="0 0 256 256" width="48" height="48"><path fill="#1b1b1d" d="M224 48H32a8 8 0 0 0-8 8v136a16 16 0 0 0 16 16h176a16 16 0 0 0 16-16V56a8 8 0 0 0-8-8M98.71 128L40 181.81V74.19Zm11.84 10.85l12 11.05a8 8 0 0 0 10.82 0l12-11.05l58 53.15H52.57ZM157.29 128L216 74.18v107.64Z"/><path fill="#dde3ef" d="M224 52H32a4 4 0 0 0-4 4v136a12 12 0 0 0 12 12h176a12 12 0 0 0 12-12V56a4 4 0 0 0-4-4m-96 86.57L42.28 60h171.44ZM104.63 128L36 190.91V65.09Zm5.92 5.43L125.3 147a4 4 0 0 0 5.4 0l14.75-13.52L213.72 196H42.28Zm40.82-5.43L220 65.09v125.82Z"/></svg>