<svg xmlns="http://www.w3.org/2000/svg" viewBox="0 0 256 256" width="48" height="48"><path fill="#1b1b1d" d="M128 24a104 104 0 1 0 104 104A104.11 104.11 0 0 0 128 24m8 39.38l24.79-17.05a88.4 88.4 0 0 1 36.18 27l-8 26.94c-.2 0-.41.1-.61.17l-22.82 7.41a8 8 0 0 0-1 .4L136 88.62zM95.24 46.33L120 63.38v25.24l-28.56 19.67a8 8 0 0 0-1-.4l-22.82-7.41c-.2-.07-.41-.12-.61-.17l-8-26.94a88.4 88.4 0 0 1 36.23-27.04m-13 129.09H53.9a87.4 87.4 0 0 1-13.79-43.07l22-16.88a6 6 0 0 0 .58.22l22.83 7.42a8 8 0 0 0 .93.22l10.79 31.42c-.15.18-.3.36-.44.55l-14.1 19.41a8 8 0 0 0-.46.71M150.69 213a88.16 88.16 0 0 1-45.38 0l-10.06-28.4c.13-.16.27-.31.39-.48l14.11-19.42a8 8 0 0 0 .46-.7h35.58a8 8 0 0 0 .46.7l14.11 19.42c.12.17.26.32.39.48Zm23.07-37.61a8 8 0 0 0-.46-.71l-14.11-19.38c-.14-.19-.29-.37-.44-.55l10.79-31.42a8 8 0 0 0 .93-.22l22.83-7.42a6 6 0 0 0 .58-.22l22 16.88a87.4 87.4 0 0 1-13.79 43.07Z"/><path fill="#f8ecd0" d="M128 28a100 100 0 1 0 100 100A100.11 100.11 0 0 0 128 28m40.87 147.42l-11.69-16.09l13.95-40.64l18.93-6.15l29.65 22.74a91.3 91.3 0 0 1-12.9 40.14Zm-81.74 0H49.19a91.3 91.3 0 0 1-12.9-40.14l29.65-22.74l18.93 6.15l13.95 40.64ZM51.69 76.66l8.87 29.92L36 125.39a91.4 91.4 0 0 1 15.69-48.73M106.13 156l-13.36-38.92L128 92.85l35.23 24.23L149.87 156Zm89.31-49.42l8.87-29.92A91.4 91.4 0 0 1 220 125.39Zm2.87-37.84l-10.72 36.19l-19 6.16L132 85.9V66.1l32.68-22.46a92.44 92.44 0 0 1 33.63 25.1m-42.77-28.53L128 59.15l-27.54-18.94a92.2 92.2 0 0 1 55.08 0m-64.22 3.43L124 66.1v19.8l-36.64 25.19l-19-6.16l-10.67-36.19a92.44 92.44 0 0 1 33.63-25.1M54.61 183.42h31.73l11.1 31.36a92.46 92.46 0 0 1-42.83-31.36m52.3 34.14l-13.27-37.5L105.32 164h45.36l11.68 16.06l-13.27 37.5a92.4 92.4 0 0 1-42.18 0m51.65-2.78l11.1-31.36h31.73a92.46 92.46 0 0 1-42.83 31.36"/></svg>