<svg xmlns="http://www.w3.org/2000/svg" viewBox="0 0 256 256" width="48" height="48"><path fill="#1b1b1d" d="M240 160a32 32 0 1 0-39.93 31a8 8 0 0 0-.07 1a32 32 0 0 1-32 32h-24a32 32 0 0 1-32-32v-40.52c31.47-4 56-31.47 56-64.31V40a8 8 0 0 0-8-8h-24a8 8 0 0 0 0 16h16v39.17c0 26.58-21.25 48.49-47.36 48.83A48 48 0 0 1 56 88V48h16a8 8 0 0 0 0-16H48a8 8 0 0 0-8 8v48a64 64 0 0 0 56 63.49V192a48.05 48.05 0 0 0 48 48h24a48.05 48.05 0 0 0 48-48a8 8 0 0 0-.07-1A32 32 0 0 0 240 160m-32 8a8 8 0 1 1 8-8a8 8 0 0 1-8 8"/><path fill="#f8dee4" d="M216 160a8 8 0 1 1-8-8a8 8 0 0 1 8 8m-4.17 35.79A44.06 44.06 0 0 1 168 236h-24a44.05 44.05 0 0 1-44-44v-44.15A60 60 0 0 1 44 88V40a4 4 0 0 1 4-4h24a4 4 0 0 1 0 8H52v44a52 52 0 0 0 52.69 52C133 139.63 156 115.93 156 87.17V44h-20a4 4 0 0 1 0-8h24a4 4 0 0 1 4 4v47.17c0 32-24.84 58.59-56 60.69V192a36 36 0 0 0 36 36h24a36.05 36.05 0 0 0 35.8-32.25a36 36 0 1 1 8 0ZM236 160a28 28 0 1 0-28 28a28 28 0 0 0 28-28"/></svg>