<svg xmlns="http://www.w3.org/2000/svg" viewBox="0 0 256 256" width="48" height="48"><path fill="#1b1b1d" d="M216 64h-68.69l34.35-34.34a8 8 0 1 0-11.32-11.32L128 60.69L85.66 18.34a8 8 0 0 0-11.32 11.32L108.69 64H40a16 16 0 0 0-16 16v120a16 16 0 0 0 16 16h176a16 16 0 0 0 16-16V80a16 16 0 0 0-16-16m0 136h-56V80h56zm-16-84a12 12 0 1 1-12-12a12 12 0 0 1 12 12m0 48a12 12 0 1 1-12-12a12 12 0 0 1 12 12"/><path fill="#e6dff2" d="M216 68h-78.34l41.17-41.17a4 4 0 1 0-5.66-5.66L128 66.34L82.83 21.17a4 4 0 0 0-5.66 5.66L118.34 68H40a12 12 0 0 0-12 12v120a12 12 0 0 0 12 12h176a12 12 0 0 0 12-12V80a12 12 0 0 0-12-12M36 200V80a4 4 0 0 1 4-4h108v128H40a4 4 0 0 1-4-4m184 0a4 4 0 0 1-4 4h-60V76h60a4 4 0 0 1 4 4Zm-24-84a8 8 0 1 1-8-8a8 8 0 0 1 8 8m0 48a8 8 0 1 1-8-8a8 8 0 0 1 8 8"/></svg>