<svg xmlns="http://www.w3.org/2000/svg" viewBox="0 0 256 256" width="48" height="48"><path fill="#1b1b1d" d="M168 76a12 12 0 1 1-12-12a12 12 0 0 1 12 12m48.72 67.64c-19.37 34.9-55.44 53.76-107.24 56.1l-22 51.41A8 8 0 0 1 80.1 256h-.51a8 8 0 0 1-7.19-5.78l-14.8-51.83l-51.8-14.83a8 8 0 0 1-1-15.05l51.41-22c2.35-51.78 21.21-87.84 56.09-107.22c24.75-13.74 52.74-15.84 71.88-15.18c18.64.64 36 4.27 38.86 6a8 8 0 0 1 2.83 2.83c1.69 2.85 5.33 20.21 6 38.85c.68 19.1-1.41 47.1-15.15 71.85m-4.3-100.07c-14.15-3-64.1-11-100.3 14.75a81.2 81.2 0 0 0-16 15.07a36 36 0 0 0 39.35 38.44a8 8 0 0 1 8.73 8.73a36 36 0 0 0 38.47 39.34a80.8 80.8 0 0 0 15-16c25.75-36.17 17.75-86.16 14.75-100.33"/><path fill="#f8e3d2" d="M164 76.05a8 8 0 1 1-8-8a8 8 0 0 1 8 8m49.23 65.68c-19 34.15-54.76 52.35-106.43 54.13l-23 53.72a4 4 0 0 1-3.7 2.42h-.26a4 4 0 0 1-3.59-2.89l-15.41-53.94L6.9 179.73a4 4 0 0 1-.47-7.52l53.72-23C62 97.6 80.16 61.81 114.3 42.85c45.5-25.27 103.78-11 106.76-9.27a4.1 4.1 0 0 1 1.42 1.42c.87 1.48 4.72 16.94 5.42 36.95c.64 18.62-1.38 45.84-14.67 69.78m-40.46 29.77A48 48 0 0 1 132 124a48.05 48.05 0 0 1-47.47-40.71c-10.27 18-15.79 40.95-16.46 68.71a4 4 0 0 1-2.42 3.58l-45.73 19.56l45.26 13a4 4 0 0 1 2.74 2.74l12.93 45.25l19.6-45.72a4 4 0 0 1 3.58-2.43c27.78-.7 50.75-6.21 68.74-16.48M220 77.25a169.6 169.6 0 0 0-4.2-37a169.5 169.5 0 0 0-37-4.2c-18.81-.12-45.93 3-68.2 18.49a85.2 85.2 0 0 0-18.36 17.3a40 40 0 0 0 43.58 44a4 4 0 0 1 4.36 4.36a40 40 0 0 0 44.06 43.56a85.3 85.3 0 0 0 17.26-18.33c8.5-12.27 18.68-34.08 18.5-68.18"/></svg>