<svg xmlns="http://www.w3.org/2000/svg" viewBox="0 0 256 256" width="48" height="48"><path fill="#1b1b1d" d="M237.66 77.6a8 8 0 0 1-11.32 0L208 59.25L179.3 88l34.35 34.35a8 8 0 0 1-11.32 11.32l-6.33-6.4l-84 84a16 16 0 0 1-11.35 4.73H51.26L29.6 237.66a8 8 0 0 1-11.72-.43a8.21 8.21 0 0 1 .61-11.1l21.45-21.46v-49.39A16 16 0 0 1 44.63 144l15.18-15.18a4 4 0 0 1 5.66 0l28.83 28.81a8 8 0 1 0 11.32-11.32l-28.84-28.84a4 4 0 0 1 0-5.66l11-11a4 4 0 0 1 5.66 0l28.84 28.84a8 8 0 1 0 11.32-11.32l-28.81-28.87a4 4 0 0 1 0-5.66l23.87-23.86l-6.35-6.35a8 8 0 0 1 .18-11.49a8.22 8.22 0 0 1 11.37.41L168 76.63l28.69-28.7l-18.36-18.35a8 8 0 0 1 .17-11.49a8.23 8.23 0 0 1 11.38.41l47.78 47.78a8 8 0 0 1 0 11.32"/><path fill="#f8dee4" d="m234.83 69.17l-48-48a4 4 0 0 0-5.66 5.66L202.34 48L168 82.34l-37.17-37.17a4 4 0 1 0-5.66 5.66l9.17 9.17l-86.83 86.83a12 12 0 0 0-3.51 8.48v51l-22.83 22.86a4 4 0 0 0 5.66 5.66L49.66 212h51a11.93 11.93 0 0 0 8.48-3.51L196 121.66l9.17 9.17a4 4 0 0 0 5.66-5.66L173.66 88L208 53.66l21.17 21.17a4 4 0 1 0 5.66-5.66M103.51 202.83a4 4 0 0 1-2.82 1.17H52v-48.69a4 4 0 0 1 1.17-2.82L74 131.66l23.17 23.17a4 4 0 1 0 5.66-5.66L79.66 126L98 107.66l23.17 23.17a4 4 0 0 0 5.66-5.66L103.66 102L140 65.66l25.17 25.17L190.34 116Z"/></svg>