<svg xmlns="http://www.w3.org/2000/svg" viewBox="0 0 256 256" width="48" height="48"><path fill="#1b1b1d" d="M32 144a95.3 95.3 0 0 1 37.53 7.67a4 4 0 0 1 2.47 3.7V192a16 16 0 0 1-16 16H40a16 16 0 0 1-16-16v-44a4 4 0 0 1 4-4Zm199 12.19l-51-11.48L69.66 34.34a8 8 0 0 0-11.56.26C36.11 58.64 24 89 24 120a8 8 0 0 0 8 8a111.2 111.2 0 0 1 63.34 19.7a112.45 112.45 0 0 1 40.55 50.39a15.9 15.9 0 0 0 14.83 9.91H240a16 16 0 0 0 16-16v-4.73a31.72 31.72 0 0 0-25-31.08"/><path fill="#efe0f6" d="M230.09 160.09L178 148.35L66.83 37.17A4 4 0 0 0 63.91 36a4 4 0 0 0-2.86 1.3C39.74 60.6 28 90 28 120v72a12 12 0 0 0 12 12h32a12 12 0 0 0 12-12v-55.64a116.73 116.73 0 0 1 55.59 60.23a11.93 11.93 0 0 0 11.13 7.41H240a12 12 0 0 0 12-12v-4.73a27.74 27.74 0 0 0-21.91-27.18M76 192a4 4 0 0 1-4 4H40a4 4 0 0 1-4-4v-67.92a114.9 114.9 0 0 1 40 8.62Zm168 0a4 4 0 0 1-4 4h-89.28a4 4 0 0 1-3.71-2.42a124.36 124.36 0 0 0-44.87-55.76a123.1 123.1 0 0 0-66.07-21.75c.93-25.33 10.8-50 28.11-70.23l109 109a4 4 0 0 0 2 1.07l53.22 12a19.79 19.79 0 0 1 15.6 19.4Z"/></svg>