<svg xmlns="http://www.w3.org/2000/svg" viewBox="0 0 256 256" width="48" height="48"><path fill="#1b1b1d" d="M240 104h-11.36l-27.39-47.94A16 16 0 0 0 187.36 48h-21.94l-12-29.94A15.93 15.93 0 0 0 138.58 8h-21.16a15.93 15.93 0 0 0-14.86 10.06L90.58 48H68.64a16 16 0 0 0-13.89 8.06L27.36 104H16a8 8 0 0 0 0 16h8v80a16 16 0 0 0 16 16h24a16 16 0 0 0 16-16v-8h96v8a16 16 0 0 0 16 16h24a16 16 0 0 0 16-16v-80h8a8 8 0 0 0 0-16M80 152H56a8 8 0 0 1 0-16h24a8 8 0 0 1 0 16m120 0h-24a8 8 0 0 1 0-16h24a8 8 0 0 1 0 16M45.79 104l22.85-40h118.72l22.85 40Z"/><path fill="#d9e6f7" d="M240 108h-13.68l-28.54-49.95a12 12 0 0 0-10.42-6h-24.65l-13-32.46A12 12 0 0 0 138.58 12h-21.16a12 12 0 0 0-11.15 7.54L93.29 52H68.64a12 12 0 0 0-10.42 6l-28.54 50H16a4 4 0 0 0 0 8h12v84a12 12 0 0 0 12 12h24a12 12 0 0 0 12-12v-20h104v20a12 12 0 0 0 12 12h24a12 12 0 0 0 12-12v-84h12a4 4 0 0 0 0-8M113.7 22.51a4 4 0 0 1 3.72-2.51h21.16a4 4 0 0 1 3.72 2.51L154.09 52h-52.18ZM65.17 62a4 4 0 0 1 3.47-2h118.72a4 4 0 0 1 3.47 2l26.28 46H38.89ZM68 200a4 4 0 0 1-4 4H40a4 4 0 0 1-4-4v-20h32Zm148 4h-24a4 4 0 0 1-4-4v-20h32v20a4 4 0 0 1-4 4m4-32H36v-56h184ZM60 144a4 4 0 0 1 4-4h16a4 4 0 0 1 0 8H64a4 4 0 0 1-4-4m112 0a4 4 0 0 1 4-4h16a4 4 0 0 1 0 8h-16a4 4 0 0 1-4-4"/></svg>