<svg xmlns="http://www.w3.org/2000/svg" viewBox="0 0 256 256" width="48" height="48"><path fill="#1b1b1d" d="M224 48H32a16 16 0 0 0-16 16v128a16 16 0 0 0 16 16h192a16 16 0 0 0 16-16V64a16 16 0 0 0-16-16M64 168H48a8 8 0 0 1 0-16h16a8 8 0 0 1 0 16m96 0H96a8 8 0 0 1 0-16h64a8 8 0 0 1 0 16m48 0h-16a8 8 0 0 1 0-16h16a8 8 0 0 1 0 16m0-32H48a8 8 0 0 1 0-16h160a8 8 0 0 1 0 16m0-32H48a8 8 0 0 1 0-16h160a8 8 0 0 1 0 16"/><path fill="#dde7ef" d="M224 52H32a12 12 0 0 0-12 12v128a12 12 0 0 0 12 12h192a12 12 0 0 0 12-12V64a12 12 0 0 0-12-12m4 140a4 4 0 0 1-4 4H32a4 4 0 0 1-4-4V64a4 4 0 0 1 4-4h192a4 4 0 0 1 4 4Zm-24-64a4 4 0 0 1-4 4H56a4 4 0 0 1 0-8h144a4 4 0 0 1 4 4m0-32a4 4 0 0 1-4 4H56a4 4 0 0 1 0-8h144a4 4 0 0 1 4 4M68 160a4 4 0 0 1-4 4h-8a4 4 0 0 1 0-8h8a4 4 0 0 1 4 4m96 0a4 4 0 0 1-4 4H96a4 4 0 0 1 0-8h64a4 4 0 0 1 4 4m40 0a4 4 0 0 1-4 4h-8a4 4 0 0 1 0-8h8a4 4 0 0 1 4 4"/></svg>