<svg xmlns="http://www.w3.org/2000/svg" viewBox="0 0 256 256" width="48" height="48"><path fill="#1b1b1d" d="M24.81 115.41a103.9 103.9 0 0 1 90.6-90.65a4 4 0 0 1 4.47 3.79a87.82 87.82 0 0 1-91.27 91.33a4 4 0 0 1-3.8-4.47m202.54 20.7c-1.12 0-2.23-.07-3.35-.07a87.84 87.84 0 0 0-87.88 91.41a4 4 0 0 0 4.47 3.79a103.9 103.9 0 0 0 90.6-90.66a4 4 0 0 0-3.84-4.47m-76.89 14.35A103.33 103.33 0 0 1 224 120h3.09a4 4 0 0 0 4.12-4.43a103.91 103.91 0 0 0-90.88-90.89a4 4 0 0 0-4.43 4.12a103.72 103.72 0 0 1-30.36 76.7A103.33 103.33 0 0 1 32 136h-3.09a4 4 0 0 0-4.12 4.43a103.91 103.91 0 0 0 90.88 90.89a4 4 0 0 0 4.43-4.12a103.72 103.72 0 0 1 30.36-76.74"/><path fill="#e3edd5" d="M198.74 57.29A99.4 99.4 0 0 0 128 28h-.19a100 100 0 1 0 70.93 29.29M62.92 63a91.38 91.38 0 0 1 60.8-26.85a91.3 91.3 0 0 1-26.85 60.74a91.44 91.44 0 0 1-60.77 26.84A91.6 91.6 0 0 1 62.92 63m-26.83 68.74a99.36 99.36 0 0 0 66.44-29.2a99.25 99.25 0 0 0 29.21-66.45a91.9 91.9 0 0 1 88.17 88.17a100 100 0 0 0-95.65 95.65a91.9 91.9 0 0 1-88.17-88.17m157 61.31a91.38 91.38 0 0 1-60.8 26.85a92 92 0 0 1 87.62-87.63a91.6 91.6 0 0 1-26.83 60.78Z"/></svg>