<svg xmlns="http://www.w3.org/2000/svg" viewBox="0 0 256 256" width="48" height="48"><path fill="#1b1b1d" d="M232 64h-24V48a8 8 0 0 0-8-8H56a8 8 0 0 0-8 8v16H24A16 16 0 0 0 8 80v16a40 40 0 0 0 40 40h3.65A80.13 80.13 0 0 0 120 191.61V216H96a8 8 0 0 0 0 16h64a8 8 0 0 0 0-16h-24v-24.42c31.94-3.23 58.44-25.64 68.08-55.58H208a40 40 0 0 0 40-40V80a16 16 0 0 0-16-16M48 120a24 24 0 0 1-24-24V80h24v32q0 4 .39 8Zm184-24a24 24 0 0 1-24 24h-.5a82 82 0 0 0 .5-8.9V80h24Z"/><path fill="#e3edd5" d="M232 68h-28V48a4 4 0 0 0-4-4H56a4 4 0 0 0-4 4v20H24a12 12 0 0 0-12 12v16a36 36 0 0 0 36 36h6.66A76 76 0 0 0 124 187.89V220H96a4 4 0 0 0 0 8h64a4 4 0 0 0 0-8h-28v-32.12c32.93-1.74 60.41-24.91 69.11-55.88H208a36 36 0 0 0 36-36V80a12 12 0 0 0-12-12M48 124a28 28 0 0 1-28-28V80a4 4 0 0 1 4-4h28v36a77 77 0 0 0 1 12Zm148-12.9c0 37.71-30.79 68.62-68 68.9a68 68 0 0 1-68-68V52h136ZM236 96a28 28 0 0 1-28 28h-5.1a77.4 77.4 0 0 0 1.1-12.9V76h28a4 4 0 0 1 4 4Z"/></svg>