<svg xmlns="http://www.w3.org/2000/svg" viewBox="0 0 256 256" width="48" height="48"><path fill="#1b1b1d" d="M232 80h-32.56a64 64 0 0 1-10.19 77.26c-8.52 8.69-19.61 16.92-31.85 24.51a4 4 0 0 1-4.91-.59l-34.84-34.84a8 8 0 0 0-11.49.18a8.23 8.23 0 0 0 .41 11.38l29.88 29.88a4 4 0 0 1-1 6.39C95.74 214.79 53 228.54 46.78 230.48a16 16 0 0 1-21.26-21.26c2.73-8.71 29-90.27 64.86-133.35a4 4 0 0 1 5.9-.26l42.05 42.06a8 8 0 0 0 11.71-.43a8.19 8.19 0 0 0-.6-11.1l-41.36-41.36a4 4 0 0 1 .63-6.18a64 64 0 0 1 67.28-2V24a8 8 0 0 1 8.54-8a8.18 8.18 0 0 1 7.47 8.28v28.41l26.34-26.35a8 8 0 0 1 11.32 11.32L203.31 64h28.41a8.18 8.18 0 0 1 8.28 7.47a8 8 0 0 1-8 8.53"/><path fill="#f8e3d2" d="M232 68h-38.34l33.17-33.17a4 4 0 1 0-5.66-5.66L188 62.34V24a4 4 0 0 0-8 0v40a60 60 0 0 0-78.39 5.54c-17.12 16.79-34.51 45.72-51.7 86c-11.93 28-19.61 52-20.59 55.09A12.05 12.05 0 0 0 40 228a12 12 0 0 0 5.36-1.28c3.12-1 27.13-8.65 55.09-20.59c40.29-17.2 69.24-34.61 86-51.71A60 60 0 0 0 192 76h40a4 4 0 0 0 0-8m-51.26 80.79c-9.76 10-23.42 19.39-38.37 27.91l-27.54-27.53a4 4 0 0 0-5.65 5.65l25.9 25.91C92.61 203.55 43.34 219 42.64 219.18a4.5 4.5 0 0 0-.71.3a4 4 0 0 1-5.41-5.41a4.5 4.5 0 0 0 .3-.71c.29-1 29.72-95 67.62-135.27l36.74 36.73a4 4 0 0 0 5.65 0a4 4 0 0 0 0-5.65l-36.65-36.65a52 52 0 0 1 70.56 76.27"/></svg>