<svg xmlns="http://www.w3.org/2000/svg" viewBox="0 0 256 256" width="48" height="48"><path fill="#1b1b1d" d="M66.26 80.23a15.26 15.26 0 0 1-1.65-12.17a15.5 15.5 0 0 1 2-4.76L88 32.7V8a8 8 0 0 1 8.53-8A8.17 8.17 0 0 1 104 8.27v24.15l5.25 6.58a23.91 23.91 0 0 0 19.13 9a24.67 24.67 0 0 0 18.71-9.43l4.91-6.15V8a8 8 0 0 1 8.53-8A8.17 8.17 0 0 1 168 8.27V32.7l21.42 30.6a15.5 15.5 0 0 1 2 4.76a15.26 15.26 0 0 1-1.65 12.17a2 2 0 0 0-.11.18l-13.86 21.74a4 4 0 0 1-3.4 1.85H83.6a4 4 0 0 1-3.37-1.85L66.37 80.41a2 2 0 0 0-.11-.18m148.5 129.56a2.5 2.5 0 0 0-.15-.34l-40.92-87.15a4 4 0 0 0-3.63-2.3H85.94a4 4 0 0 0-3.63 2.3l-40.92 87.15a2.5 2.5 0 0 0-.15.34A16.2 16.2 0 0 0 41.6 223a16 16 0 0 0 14.4 9h144a16 16 0 0 0 14.39-9a16.2 16.2 0 0 0 .37-13.21"/><path fill="#efe0f6" d="m211 211.27l-.06-.12l-46.41-98.86l21.68-34v-.1a11.94 11.94 0 0 0 0-12.34l-.15-.24L164 34V8a4 4 0 0 0-8 0v25.82l-6.13 7.67a28 28 0 0 1-43.74 0L100 33.82V8a4 4 0 0 0-8 0v26L69.86 65.59l-.15.24a11.94 11.94 0 0 0 0 12.34a1 1 0 0 1 .05.1l21.68 34L45 211.15l-.06.12A12 12 0 0 0 56 228h144a12 12 0 0 0 11-16.73M76.54 74a4 4 0 0 1 0-4l19.67-28.1l3.68 4.59a36 36 0 0 0 56.22 0l3.68-4.59l19.7 28.1a4 4 0 0 1 0 4l-21.65 34H98.19Zm126.79 144.2A3.94 3.94 0 0 1 200 220H56a3.94 3.94 0 0 1-3.33-1.8a3.89 3.89 0 0 1-.36-3.72L98.54 116h58.92l46.23 98.48a3.89 3.89 0 0 1-.36 3.72"/></svg>