<svg xmlns="http://www.w3.org/2000/svg" viewBox="0 0 256 256" width="48" height="48"><path fill="#1b1b1d" d="M247.44 173.75a.7.7 0 0 0 0-.14l-16.39-84.17v-.18A60.08 60.08 0 0 0 172 40H83.89a59.88 59.88 0 0 0-59 49.52L8.58 173.61a.7.7 0 0 0 0 .14a36 36 0 0 0 60.9 31.71l.35-.37L109.52 160h37l39.71 45.09c.11.13.23.25.35.37A36.08 36.08 0 0 0 212 216a36 36 0 0 0 35.43-42.25ZM104 112h-8v8a8 8 0 0 1-16 0v-8h-8a8 8 0 0 1 0-16h8v-8a8 8 0 0 1 16 0v8h8a8 8 0 0 1 0 16m40-8a8 8 0 0 1 8-8h24a8 8 0 0 1 0 16h-24a8 8 0 0 1-8-8m84.37 87.47a19.84 19.84 0 0 1-12.9 8.23a20.09 20.09 0 0 1-17.47-5.39L167.8 160h4.2a60 60 0 0 0 51-28.38l8.74 45a19.82 19.82 0 0 1-3.37 14.85"/><path fill="#f8ecd0" d="M176 108h-24a4 4 0 0 1 0-8h24a4 4 0 0 1 0 8m-72-8H92V88a4 4 0 0 0-8 0v12H72a4 4 0 0 0 0 8h12v12a4 4 0 0 0 8 0v-12h12a4 4 0 0 0 0-8m134.21 98.36a32 32 0 0 1-48.84 4.27l-.17-.18L148.29 156h-40.57l-40.91 46.44l-.18.19A32.08 32.08 0 0 1 44 212a32 32 0 0 1-31.5-37.56l16.37-84.23A55.87 55.87 0 0 1 83.89 44H172a56.07 56.07 0 0 1 55.1 46.1a.3.3 0 0 1 0 .1l16.37 84.16a31.86 31.86 0 0 1-5.26 24M172 148a48 48 0 1 0 0-96H83.9a47.9 47.9 0 0 0-47.16 39.67L20.36 175.9a24 24 0 0 0 19.48 27.73a24 24 0 0 0 21-6.58l42-47.69a4 4 0 0 1 3-1.36Zm63.63 27.83l-11-56.66A56.09 56.09 0 0 1 172 156h-13l36.16 41.06a24 24 0 0 0 40.52-21.23Z"/></svg>