<svg xmlns="http://www.w3.org/2000/svg" viewBox="0 0 256 256" width="48" height="48"><path fill="#1b1b1d" d="M240 120h-16.34a95.52 95.52 0 0 0-22.39-53.95l12.39-12.39a8 8 0 0 0-11.32-11.32L190 54.73a95.52 95.52 0 0 0-54-22.39V16a8 8 0 0 0-16 0v16.34a95.52 95.52 0 0 0-53.95 22.39L53.66 42.34a8 8 0 0 0-11.32 11.32l12.39 12.39a95.52 95.52 0 0 0-22.39 54H16a8 8 0 0 0 0 16h16.34A95.52 95.52 0 0 0 54.73 190l-12.39 12.34a8 8 0 0 0 11.32 11.32l12.39-12.39a95.52 95.52 0 0 0 54 22.39V240a8 8 0 0 0 16 0v-16.34A95.52 95.52 0 0 0 190 201.27l12.39 12.39a8 8 0 0 0 11.32-11.32L201.27 190a95.52 95.52 0 0 0 22.39-54H240a8 8 0 0 0 0-16M80 108a28 28 0 1 1 28 28a28 28 0 0 1-28-28m48 84a16 16 0 1 1 16-16a16 16 0 0 1-16 16m48-48a16 16 0 1 1 16-16a16 16 0 0 1-16 16"/><path fill="#f8dee4" d="M132 108a24 24 0 1 0-24 24a24 24 0 0 0 24-24m-24 16a16 16 0 1 1 16-16a16 16 0 0 1-16 16m80 4a12 12 0 1 1-12-12a12 12 0 0 1 12 12m-48 48a12 12 0 1 1-12-12a12 12 0 0 1 12 12m100-52h-20.09a91.64 91.64 0 0 0-24.12-58.13l15-15a4 4 0 1 0-5.66-5.66l-15 15A91.64 91.64 0 0 0 132 36.09V16a4 4 0 0 0-8 0v20.09a91.64 91.64 0 0 0-58.13 24.12l-15-15a4 4 0 0 0-5.66 5.66l15 15A91.64 91.64 0 0 0 36.09 124H16a4 4 0 0 0 0 8h20.09a91.64 91.64 0 0 0 24.12 58.13l-15 15a4 4 0 0 0 5.66 5.66l15-15A91.64 91.64 0 0 0 124 219.91V240a4 4 0 0 0 8 0v-20.09a91.64 91.64 0 0 0 58.13-24.12l15 15a4 4 0 0 0 5.66-5.66l-15-15A91.64 91.64 0 0 0 219.91 132H240a4 4 0 0 0 0-8m-112 88a84 84 0 1 1 84-84a84.09 84.09 0 0 1-84 84"/></svg>