<svg xmlns="http://www.w3.org/2000/svg" viewBox="0 0 256 256" width="48" height="48"><path fill="#1b1b1d" d="m205.33 103.67l-21.77-73.93a8 8 0 0 0-7.67-5.74H80.11a8 8 0 0 0-7.67 5.74l-21.77 73.93a63.46 63.46 0 0 0 17.42 64.67A87.4 87.4 0 0 0 120 191.63V232H88a8 8 0 1 0 0 16h80a8 8 0 1 0 0-16h-32v-40.37a87.4 87.4 0 0 0 51.91-23.29a63.48 63.48 0 0 0 17.42-64.67M86.09 40h83.82L190 108.19c.09.3.17.6.25.9c-21.42 7.68-45.54-1.6-58.63-8.23c-25.19-12.75-45.19-14.37-59.94-11.93Z"/><path fill="#f8e3d2" d="m201.5 104.8l-21.78-73.93a4 4 0 0 0-3.83-2.87H80.11a4 4 0 0 0-3.83 2.87L54.5 104.8a59.51 59.51 0 0 0 16.32 60.62A83.4 83.4 0 0 0 124 187.91V236H88a4 4 0 1 0 0 8h80a4 4 0 1 0 0-8h-36v-48.09a83.4 83.4 0 0 0 53.18-22.49a59.51 59.51 0 0 0 16.32-60.62M83.1 36h89.8l20.93 71.06c.43 1.49.8 3 1.1 4.47c-23.64 10.47-50.76.18-65.12-7.1c-28.22-14.29-49.48-14.1-63.88-10.14Zm96.62 123.57a75.68 75.68 0 0 1-103.44 0a51.53 51.53 0 0 1-14.11-52.51l1-3.46c12.66-4.87 33.45-7 63 8C137 117 154.33 124 172.8 124a62.8 62.8 0 0 0 23.2-4.22a51.26 51.26 0 0 1-16.28 39.79"/></svg>