<svg xmlns="http://www.w3.org/2000/svg" viewBox="0 0 256 256" width="48" height="48"><path fill="#1b1b1d" d="M228.92 49.69a8 8 0 0 0-6.86-1.45l-61.13 15.28l-61.35-30.68a8 8 0 0 0-5.52-.6l-64 16A8 8 0 0 0 24 56v144a8 8 0 0 0 9.94 7.76l61.13-15.28l61.35 30.68a8.15 8.15 0 0 0 3.58.84a8 8 0 0 0 1.94-.24l64-16A8 8 0 0 0 232 200V56a8 8 0 0 0-3.08-6.31M96 176a8 8 0 0 0-1.94.24L40 189.75V62.25l55.07-13.77l.93.46Zm120 17.75l-55.07 13.77l-.93-.46V80a8 8 0 0 0 1.94-.23L216 66.25Z"/><path fill="#d4edf3" d="M226.46 52.85a4 4 0 0 0-3.43-.73l-62.56 15.64l-62.68-31.34a4 4 0 0 0-2.76-.3l-64 16A4 4 0 0 0 28 56v144a4 4 0 0 0 5 3.88l62.56-15.64l62.68 31.34a4 4 0 0 0 2.76.3l64-16a4 4 0 0 0 3-3.88V56a4 4 0 0 0-1.54-3.15M100 46.47l56 28v135.06l-56-28ZM36 59.12l56-14v135.76l-56 14Zm184 137.76l-56 14V75.12l56-14Z"/></svg>