<svg xmlns="http://www.w3.org/2000/svg" viewBox="0 0 256 256" width="48" height="48"><path fill="#1b1b1d" d="M216 72h-35.08c.39-.33.79-.65 1.17-1A29.53 29.53 0 0 0 192 49.57A32.62 32.62 0 0 0 158.44 16A29.53 29.53 0 0 0 137 25.91a55 55 0 0 0-9 14.48a55 55 0 0 0-9-14.48A29.53 29.53 0 0 0 97.56 16A32.62 32.62 0 0 0 64 49.57A29.53 29.53 0 0 0 73.91 71c.38.33.78.65 1.17 1H40a16 16 0 0 0-16 16v32a16 16 0 0 0 16 16v64a16 16 0 0 0 16 16h60a4 4 0 0 0 4-4v-92H40V88h80v32h16V88h80v32h-80v92a4 4 0 0 0 4 4h60a16 16 0 0 0 16-16v-64a16 16 0 0 0 16-16V88a16 16 0 0 0-16-16M84.51 59a13.7 13.7 0 0 1-4.5-10a16.62 16.62 0 0 1 16.58-17h.49a13.7 13.7 0 0 1 10 4.5c8.39 9.48 11.35 25.2 12.39 34.92C109.71 70.39 94 67.43 84.51 59m87 0c-9.49 8.4-25.24 11.36-35 12.4C137.7 60.89 141 45.5 149 36.51a13.7 13.7 0 0 1 10-4.5h.49A16.62 16.62 0 0 1 176 49.08a13.7 13.7 0 0 1-4.51 9.92Z"/><path fill="#efe0f6" d="M216 76h-49.19a50.5 50.5 0 0 0 12.63-8A25.53 25.53 0 0 0 188 49.44A28.62 28.62 0 0 0 158.56 20A25.53 25.53 0 0 0 140 28.56c-5.91 6.67-9.63 15.36-12 23.69c-2.35-8.33-6.07-17-12-23.69A25.53 25.53 0 0 0 97.44 20A28.62 28.62 0 0 0 68 49.44A25.53 25.53 0 0 0 76.56 68a50.5 50.5 0 0 0 12.63 8H40a12 12 0 0 0-12 12v32a12 12 0 0 0 12 12h4v68a12 12 0 0 0 12 12h144a12 12 0 0 0 12-12v-68h4a12 12 0 0 0 12-12V88a12 12 0 0 0-12-12m-70-42.14A17.6 17.6 0 0 1 158.8 28h.61A20.62 20.62 0 0 1 180 49.2a17.6 17.6 0 0 1-5.86 12.8c-12.09 10.7-33.07 13.21-42 13.79c.62-8.86 3.12-29.79 13.86-41.93M76 49.2A20.62 20.62 0 0 1 96.59 28h.61a17.6 17.6 0 0 1 12.8 5.86c10.71 12.09 13.21 33.07 13.79 42c-8.89-.58-29.87-3.09-42-13.79A17.6 17.6 0 0 1 76 49.2M36 120V88a4 4 0 0 1 4-4h84v40H40a4 4 0 0 1-4-4m16 80v-68h72v72H56a4 4 0 0 1-4-4m152 0a4 4 0 0 1-4 4h-68v-72h72Zm16-80a4 4 0 0 1-4 4h-84V84h84a4 4 0 0 1 4 4Z"/></svg>