<svg xmlns="http://www.w3.org/2000/svg" viewBox="0 0 256 256" width="48" height="48"><path fill="#1b1b1d" d="M232 96a72 72 0 0 1-100.94 66L79 222.22c-.12.14-.26.29-.39.42a32 32 0 0 1-45.26-45.26c.14-.13.28-.27.43-.39L94 124.94a72.07 72.07 0 0 1 83.54-98.78a8 8 0 0 1 3.93 13.19L144 80l5.66 26.35L176 112l40.65-37.52a8 8 0 0 1 13.19 3.93A72.6 72.6 0 0 1 232 96"/><path fill="#eae9ec" d="M223.05 70.5a4 4 0 0 0-6.42-1.44l-41.82 38.6L153 103l-4.68-21.79l38.6-41.82a4 4 0 0 0-1.44-6.43A68 68 0 0 0 98.94 126L36.4 180l-.21.2a28 28 0 0 0 39.6 39.6l.2-.21l54-62.54A68 68 0 0 0 228 96a67.5 67.5 0 0 0-4.95-25.5M160 156a60 60 0 0 1-29-7.47a4 4 0 0 0-5 .89l-56 64.83A20 20 0 0 1 41.75 186l64.82-56a4 4 0 0 0 .89-5a60 60 0 0 1 69.46-86.59l-35.87 38.88a4 4 0 0 0-1 3.55l5.66 26.35a4 4 0 0 0 3.07 3.07l26.35 5.66a4 4 0 0 0 3.55-1l38.87-35.87A60.05 60.05 0 0 1 160 156"/></svg>